<svg xmlns="http://www.w3.org/2000/svg" viewBox="0 0 908.72 505.37"><defs><style>.cls-1{fill:#e15a5a;}.cls-2{fill:#f5cacb;}.cls-3{fill:#fbe4cb;}.cls-4{fill:#d8eecf;}.cls-5{fill:#bce4a7;}.cls-6{fill:#a0d57f;}.cls-7{fill:#6aae46;}.cls-8{fill:none;stroke:#000;stroke-width:3px;}.cls-9{fill:#fff;}.cls-10{fill:#68a74e;}</style></defs><g id="Layer_2" data-name="Layer 2"><g id="Layer_1-2" data-name="Layer 1"><polygon points="276.59 282.91 275.3 284.77 274 286.62 275.3 284.77 276.59 282.91"/><polygon points="298.65 249.65 299.95 247.62 298.65 249.65 297.36 251.68 296.05 253.71 297.36 251.68 298.65 249.65"/><polygon points="306.43 237.33 305.14 239.4 303.84 241.46 305.14 239.4 306.43 237.33"/><polygon points="334.98 191.09 333.68 193.19 332.39 195.29 333.68 193.19 334.98 191.09"/><polygon points="341 181.4 340.8 181.73 341 181.73 341 181.4"/><polygon points="536.1 133.62 537.4 135.44 538.7 137.26 540 139.09 541.29 140.95 541.94 141.89 541.29 140.95 540 139.09 538.7 137.26 537.4 135.44 536.1 133.62 534.81 131.84 534.16 130.95 534.81 131.84 536.1 133.62"/><polygon points="519.23 111.86 520.53 113.41 521.83 114.98 523.12 116.58 524.43 118.19 525.07 119.01 524.43 118.19 523.12 116.58 521.83 114.98 520.53 113.41 519.23 111.86 517.94 110.34 517.29 109.59 517.94 110.34 519.23 111.86"/><polygon points="552.97 158.29 554.27 160.28 555.57 162.27 556.87 164.29 558.16 166.3 558.81 167.32 558.16 166.3 556.87 164.29 555.57 162.27 554.27 160.28 552.97 158.29 551.67 156.31 551.02 155.33 551.67 156.31 552.97 158.29"/><polygon points="349.26 168.33 347.95 170.37 346.66 172.41 347.95 170.37 349.26 168.33"/><polygon points="394.67 105.91 393.38 107.36 392.07 108.84 393.38 107.36 394.67 105.91"/><polygon points="489.39 83.42 490.69 84.34 489.39 83.42 488.09 82.52 486.8 81.67 488.09 82.52 489.39 83.42"/><polygon points="344.06 176.52 345.37 174.46 346.66 172.41 345.37 174.46 344.06 176.52 342.77 178.59 341.47 180.66 342.77 178.59 344.06 176.52"/><polygon points="403.75 96.45 402.45 97.72 401.16 99.02 402.45 97.72 403.75 96.45"/><polygon points="410.24 90.51 408.94 91.64 407.64 92.81 408.94 91.64 410.24 90.51"/><polygon points="354.44 160.28 353.15 162.27 351.85 164.29 353.15 162.27 354.44 160.28"/><polygon points="501.06 92.81 502.37 93.99 503.66 95.21 504.97 96.45 506.26 97.72 507.56 99.02 508.21 99.69 507.56 99.02 506.26 97.72 504.97 96.45 503.66 95.21 502.37 93.99 501.06 92.81 499.77 91.64 499.6 91.49 499.77 91.64 501.06 92.81"/><polygon points="510.15 101.7 511.45 103.08 512.75 104.48 514.04 105.91 515.34 107.36 516.64 108.84 517.29 109.59 516.64 108.84 515.34 107.36 514.04 105.91 512.75 104.48 511.45 103.08 510.15 101.7 508.86 100.35 508.21 99.69 508.86 100.35 510.15 101.7"/><polygon points="495.88 88.34 497.18 89.41 498.48 90.51 499.6 91.49 498.48 90.51 497.18 89.41 495.88 88.34 494.58 87.29 493.28 86.27 494.58 87.29 495.88 88.34"/><polygon points="543.89 144.71 545.18 146.61 546.49 148.53 547.78 150.45 549.08 152.39 550.38 154.35 551.02 155.33 550.38 154.35 549.08 152.39 547.78 150.45 546.49 148.53 545.18 146.61 543.89 144.71 542.59 142.83 541.94 141.89 542.59 142.83 543.89 144.71"/><polygon points="560.76 170.37 562.05 172.41 563.35 174.46 564.65 176.52 565.95 178.59 567.24 180.66 567.73 181.43 567.73 181.43 567.24 180.66 565.95 178.59 564.65 176.52 563.35 174.46 562.05 172.41 560.76 170.37 559.46 168.33 558.81 167.32 559.46 168.33 560.76 170.37"/><polygon points="527.02 121.48 528.32 123.16 529.61 124.85 530.91 126.57 532.21 128.31 533.51 130.07 534.16 130.95 533.51 130.07 532.21 128.31 530.91 126.57 529.61 124.85 528.32 123.16 527.02 121.48 525.72 119.83 525.07 119.01 525.72 119.83 527.02 121.48"/><polygon points="567.92 181.73 567.89 181.69 567.92 181.73 567.92 181.73"/><polygon points="569.84 184.82 571.13 186.91 572.44 188.99 573.73 191.09 575.03 193.19 575.83 194.49 575.03 193.19 573.73 191.09 572.44 188.99 571.13 186.91 569.84 184.82 568.56 182.76 568.56 182.76 569.84 184.82"/><polygon points="603.58 239.4 604.87 241.46 606.17 243.52 607.47 245.57 608.76 247.62 609.72 249.11 608.76 247.62 607.47 245.57 606.17 243.52 604.87 241.46 603.58 239.4 602.28 237.33 601.63 236.29 602.28 237.33 603.58 239.4"/><polygon points="620.45 265.66 621.74 267.62 623.04 269.57 624.34 271.51 625.63 273.44 626.93 275.35 627.58 276.3 626.93 275.35 625.63 273.44 624.34 271.51 623.04 269.57 621.74 267.62 620.45 265.66 619.14 263.69 618.5 262.7 619.14 263.69 620.45 265.66"/><polygon points="586.7 212.17 588.01 214.28 589.3 216.39 590.6 218.5 591.9 220.61 592.55 221.66 591.9 220.61 590.6 218.5 589.3 216.39 588.01 214.28 586.7 212.17 585.41 210.06 584.77 209 585.41 210.06 586.7 212.17"/><polygon points="611.36 251.68 612.65 253.71 613.96 255.72 615.25 257.73 616.55 259.72 617.85 261.71 618.5 262.7 617.85 261.71 616.55 259.72 615.25 257.73 613.96 255.72 612.65 253.71 611.36 251.68 610.07 249.65 609.72 249.11 610.07 249.65 611.36 251.68"/><polygon points="577.62 197.4 578.92 199.51 580.22 201.61 581.52 203.73 582.81 205.84 584.11 207.95 584.77 209 584.11 207.95 582.81 205.84 581.52 203.73 580.22 201.61 578.92 199.51 577.62 197.4 576.33 195.29 575.83 194.49 576.33 195.29 577.62 197.4"/><polygon points="594.5 224.81 595.79 226.91 597.09 229 598.39 231.09 599.68 233.17 600.98 235.25 601.63 236.29 600.98 235.25 599.68 233.17 598.39 231.09 597.09 229 595.79 226.91 594.5 224.81 593.19 222.71 592.55 221.66 593.19 222.71 594.5 224.81"/><polygon points="567.73 181.73 567.92 181.73 567.89 181.69 567.73 181.43 567.73 181.73"/><polygon points="629.53 279.15 630.82 281.04 632.13 282.91 633.42 284.77 634.71 286.62 635.37 287.54 634.71 286.62 633.42 284.77 632.13 282.91 630.82 281.04 629.53 279.15 628.23 277.26 627.58 276.3 628.23 277.26 629.53 279.15"/><polygon points="567.89 181.69 567.73 181.43 567.73 181.43 567.89 181.69"/><polygon points="568.54 182.74 568.56 182.76 568.56 182.76 568.54 182.74 567.92 181.73 567.92 181.73 568.54 182.74"/><polygon points="637.31 290.28 638.61 292.09 639.91 293.88 641.2 295.67 642.51 297.44 643.8 299.2 644.45 300.07 643.8 299.2 642.51 297.44 641.2 295.67 639.91 293.88 638.62 292.09 637.31 290.28 636.02 288.45 635.37 287.54 636.02 288.45 637.31 290.28"/><polygon points="646.39 302.67 647.69 304.39 648.99 306.1 650.29 307.78 651.59 309.45 652.24 310.29 651.59 309.45 650.29 307.78 648.99 306.1 647.69 304.39 646.4 302.67 645.1 300.94 644.45 300.07 645.1 300.94 646.39 302.67"/><polygon points="654.18 312.76 655.48 314.39 656.77 316 658.08 317.61 659.37 319.19 660.66 320.76 661.32 321.54 660.66 320.76 659.37 319.19 658.08 317.61 656.77 316 655.48 314.39 654.18 312.76 652.88 311.12 652.24 310.29 652.88 311.12 654.18 312.76"/><polygon points="663.26 323.86 664.56 325.39 665.86 326.9 667.15 328.4 668.45 329.88 668.9 330.38 668.45 329.88 667.15 328.4 665.86 326.9 664.56 325.39 663.26 323.86 661.97 322.32 661.32 321.54 661.97 322.32 663.26 323.86"/><polygon points="210.41 359.66 209.12 360.76 207.82 361.87 209.12 360.76 210.41 359.66"/><polygon points="225.99 345.13 224.69 346.43 223.39 347.72 224.69 346.43 225.99 345.13"/><polygon points="240.26 329.88 238.96 331.34 237.67 332.79 238.96 331.34 240.26 329.88"/><polygon points="671.05 332.79 672.35 334.23 673.64 335.65 674.94 337.04 676.24 338.44 677.54 339.81 678.19 340.48 677.54 339.81 676.24 338.44 674.94 337.04 673.64 335.65 672.35 334.23 671.05 332.79 669.75 331.34 668.9 330.38 669.75 331.34 671.05 332.79"/><polygon points="680.13 342.5 681.06 343.45 681.06 343.45 680.13 342.5 678.83 341.16 678.19 340.48 678.83 341.16 680.13 342.5"/><polygon points="699.8 360.94 699.6 360.76 699.41 360.6 699.6 360.76 699.8 360.94"/><polygon points="684.04 346.45 684.03 346.43 684.03 346.43 684.03 346.43 684.04 346.45"/><polygon points="687.92 350.22 689.21 351.46 690.51 352.68 691.81 353.87 693.11 355.06 694.4 356.24 695.05 356.81 694.4 356.24 693.11 355.06 691.81 353.87 690.51 352.68 689.21 351.46 687.92 350.22 686.62 348.98 685.97 348.34 686.62 348.98 687.92 350.22"/><polygon points="702.19 362.94 702.84 363.48 702.19 362.94 700.89 361.87 699.8 360.94 700.89 361.87 702.19 362.94"/><polygon points="697 358.53 698.29 359.66 699.41 360.6 698.29 359.66 697 358.53 695.7 357.39 695.05 356.81 695.7 357.39 697 358.53"/><polygon points="682.72 345.13 684.03 346.43 682.72 345.13 681.9 344.3 681.9 344.3 682.72 345.13"/><polygon points="685.97 348.34 685.32 347.72 684.04 346.45 685.32 347.72 685.97 348.34"/><polygon points="681.43 343.83 681.65 344.04 681.65 344.04 681.43 343.83 681.06 343.45 681.06 343.45 681.43 343.83"/><polygon points="681.06 343.45 681.06 344.04 681.65 344.04 681.43 343.83 681.06 343.45"/><polygon points="681.9 344.04 681.65 344.04 681.9 344.3 681.9 344.04"/><polygon points="681.9 344.3 681.9 344.3 681.65 344.04 681.65 344.04 681.9 344.3"/><polygon points="111.15 408.59 111.8 408.45 113.1 408.16 111.8 408.45 111.15 408.59"/><polygon points="105.97 409.66 106.61 409.52 107.91 409.27 106.61 409.52 105.97 409.66"/><polygon points="93.64 411.82 94.93 411.61 96.23 411.4 94.93 411.61 93.64 411.82"/><polygon points="83.25 413.29 81.96 413.46 83.25 413.29 84.56 413.13 85.2 413.04 84.56 413.13 83.25 413.29"/><polygon points="100.13 410.74 101.42 410.51 102.72 410.28 101.42 410.51 100.13 410.74"/><polygon points="107.91 409.27 109.21 409.01 109.86 408.87 109.21 409.01 107.91 409.27"/><polygon points="79.36 413.78 80.67 413.62 81.96 413.46 80.67 413.62 79.36 413.78"/><polygon points="89.75 412.41 88.45 412.6 89.75 412.41 91.04 412.21 92.34 412.02 91.04 412.21 89.75 412.41"/><polygon points="85.2 413.04 85.85 412.96 87.15 412.77 85.85 412.96 85.2 413.04"/><polygon points="109.86 408.87 110.51 408.73 111.15 408.59 110.51 408.73 109.86 408.87"/><polygon points="104.02 410.03 105.31 409.78 105.97 409.66 105.31 409.78 104.02 410.03"/><polygon points="114.34 407.89 113.86 408 114.34 408 114.34 407.89"/><polygon points="113.51 408 113.51 408.07 113.86 408 113.51 408"/><polygon class="cls-1" points="113.86 408 113.51 408.07 113.1 408.16 111.8 408.45 111.15 408.59 110.51 408.73 109.86 408.87 109.21 409.01 107.91 409.27 106.61 409.52 105.97 409.66 105.31 409.78 104.02 410.03 102.72 410.28 101.42 410.51 100.13 410.74 98.83 410.97 97.53 411.19 96.23 411.4 94.93 411.61 93.64 411.82 92.34 412.02 91.04 412.21 89.75 412.41 88.45 412.6 87.15 412.77 85.85 412.96 85.2 413.04 84.56 413.13 83.25 413.29 81.96 413.46 80.67 413.62 79.36 413.78 78.07 413.94 76.77 414.08 75.47 414.23 74.17 414.37 72.87 414.5 71.58 414.64 70.28 414.77 69.41 414.85 68.98 414.89 67.69 415.02 66.39 415.14 65.09 415.25 63.79 415.37 62.6 415.48 62.5 415.49 61.2 415.6 59.9 415.7 58.61 415.8 57.3 415.9 56.01 416 54.71 416.09 53.5 416.18 53.41 416.18 53.33 416.19 52.12 416.27 50.82 416.37 50.19 416.41 49.52 416.45 48.85 416.49 48.22 416.53 46.93 416.61 45.63 416.69 44.33 416.77 43.03 416.84 41.73 416.91 40.44 416.98 40.37 416.98 39.14 417.04 37.84 417.11 36.55 417.18 35.91 417.21 35.24 417.23 33.95 417.3 32.66 417.35 31.35 417.41 30.06 417.47 28.76 417.52 27.46 417.58 26.16 417.63 24.87 417.67 23.57 417.72 22.27 417.77 20.97 417.81 19.68 417.85 18.38 417.89 17.08 417.94 15.78 417.98 14.49 418.01 13.19 418.05 11.89 418.09 10.6 418.12 9.94 418.14 9.29 418.15 8.66 418.17 8 418.19 7.33 418.2 6.7 418.22 5.4 418.25 4.11 418.28 2.81 418.31 1.51 418.34 0.23 418.36 0.21 418.36 0.23 418.36 0.23 419.29 0.23 459.87 1.9 459.87 113.51 459.87 114.34 459.87 114.34 418.36 114.34 408 113.86 408"/><polygon points="120.88 406.32 119.59 406.64 118.29 406.96 119.59 406.64 120.88 406.32"/><polygon points="137.75 401.39 139.05 400.95 137.75 401.39 136.46 401.81 135.81 402.02 136.46 401.81 137.75 401.39"/><polygon points="166.95 389.18 166.3 389.5 165.65 389.83 166.3 389.5 166.95 389.18"/><polygon points="133.86 402.64 132.57 403.05 131.26 403.44 132.57 403.05 133.86 402.64"/><polygon points="154.62 394.97 155.92 394.41 154.62 394.97 153.32 395.52 152.03 396.06 153.32 395.52 154.62 394.97"/><polygon points="123.48 405.64 122.19 405.98 120.88 406.32 122.19 405.98 123.48 405.64"/><polygon points="152.03 396.06 150.73 396.6 149.43 397.12 150.73 396.6 152.03 396.06"/><polygon points="126.08 404.94 127.37 404.58 128.68 404.2 129.97 403.83 131.26 403.44 129.97 403.83 128.68 404.2 127.37 404.58 126.08 404.94 124.78 405.3 123.48 405.64 124.78 405.3 126.08 404.94"/><polygon points="135.81 402.02 135.16 402.23 133.86 402.64 135.16 402.23 135.81 402.02"/><polygon points="168.89 388.17 167.6 388.84 166.95 389.18 167.6 388.84 168.89 388.17"/><polygon points="118.29 406.96 116.99 407.27 115.7 407.58 116.99 407.27 118.29 406.96"/><polygon points="149.43 397.12 148.14 397.63 146.83 398.13 148.14 397.63 149.43 397.12"/><polygon points="165.65 389.83 165 390.15 163.71 390.8 165 390.15 165.65 389.83"/><polygon points="142.94 399.58 144.25 399.11 145.54 398.63 144.25 399.11 142.94 399.58 141.65 400.05 140.35 400.5 141.65 400.05 142.94 399.58"/><polygon class="cls-2" points="227.29 343.83 227.07 344.04 226.84 344.28 225.99 345.13 224.69 346.43 223.39 347.72 222.1 348.98 220.8 350.22 219.5 351.46 218.21 352.68 216.9 353.87 215.61 355.06 214.31 356.24 213.01 357.39 211.72 358.53 210.41 359.66 209.12 360.76 207.82 361.87 206.52 362.94 205.23 364 203.93 365.06 202.63 366.09 201.33 367.12 200.04 368.12 198.74 369.12 197.44 370.09 196.15 371.05 194.84 372 193.55 372.94 192.25 373.87 190.95 374.77 189.66 375.66 188.35 376.54 187.06 377.41 185.76 378.26 184.46 379.11 183.17 379.93 181.87 380.74 180.57 381.54 179.28 382.33 177.98 383.1 176.68 383.86 175.38 384.61 174.09 385.34 172.78 386.07 171.49 386.78 170.2 387.47 168.89 388.17 167.6 388.84 166.95 389.18 166.3 389.5 165.65 389.83 165 390.15 163.71 390.8 162.4 391.43 161.11 392.04 159.81 392.65 158.51 393.25 157.22 393.83 155.92 394.41 154.62 394.97 153.32 395.52 152.03 396.06 150.73 396.6 149.43 397.12 148.14 397.63 146.83 398.13 145.54 398.63 144.25 399.11 142.94 399.58 141.65 400.05 140.35 400.5 139.05 400.95 137.75 401.39 136.46 401.81 135.81 402.02 135.16 402.23 133.86 402.64 132.57 403.05 131.26 403.44 129.97 403.83 128.68 404.2 127.37 404.58 126.08 404.94 124.78 405.3 123.48 405.64 122.19 405.98 120.88 406.32 119.59 406.64 118.29 406.96 116.99 407.27 115.7 407.58 114.4 407.87 114.34 407.89 114.34 408 114.34 418.36 114.34 459.87 115.18 459.87 226.84 459.87 227.67 459.87 227.67 418.36 227.67 344.04 227.67 343.43 227.29 343.83"/><polygon class="cls-3" points="340.8 181.73 340.17 182.74 340.17 182.74 338.88 184.82 337.58 186.91 336.28 188.99 334.98 191.09 333.68 193.19 332.39 195.29 331.09 197.4 329.8 199.51 328.49 201.61 327.2 203.73 325.9 205.84 324.6 207.95 323.31 210.06 322 212.17 320.71 214.28 319.41 216.39 318.11 218.5 316.82 220.61 315.52 222.71 314.22 224.81 312.92 226.91 311.63 229 310.33 231.09 309.03 233.17 307.74 235.25 306.43 237.33 305.14 239.4 303.84 241.46 302.54 243.52 301.25 245.57 299.95 247.62 298.65 249.65 297.36 251.68 296.05 253.71 294.76 255.72 293.46 257.73 292.16 259.72 290.87 261.71 289.57 263.69 288.27 265.66 286.97 267.62 285.68 269.57 284.38 271.51 283.08 273.44 281.79 275.35 280.48 277.26 279.19 279.15 277.89 281.04 276.59 282.91 275.3 284.77 274 286.62 272.7 288.45 271.4 290.28 270.1 292.09 268.81 293.88 267.51 295.67 266.21 297.44 264.91 299.2 263.62 300.94 262.32 302.67 261.02 304.39 259.73 306.1 258.42 307.78 257.13 309.45 255.84 311.12 254.53 312.76 253.24 314.39 251.94 316 250.64 317.61 249.34 319.19 248.05 320.76 246.75 322.32 245.45 323.86 244.15 325.39 242.85 326.9 241.56 328.4 240.26 329.88 238.96 331.34 237.67 332.79 236.37 334.23 235.07 335.65 233.78 337.04 232.47 338.44 231.18 339.81 229.88 341.16 228.58 342.5 227.67 343.43 227.67 344.04 227.67 418.36 227.67 459.87 228.5 459.87 340.17 459.87 341 459.87 341 418.36 341 181.73 340.8 181.73"/><polygon class="cls-4" points="567.24 180.66 565.95 178.59 564.65 176.52 563.35 174.46 562.05 172.41 560.76 170.37 559.46 168.33 558.81 167.32 558.16 166.3 556.87 164.29 555.57 162.27 554.27 160.28 552.97 158.29 551.67 156.31 551.02 155.33 550.38 154.35 549.08 152.39 547.78 150.45 546.49 148.53 545.18 146.61 543.89 144.71 542.59 142.83 541.94 141.89 541.29 140.95 540 139.09 538.7 137.26 537.4 135.44 536.1 133.62 534.81 131.84 534.16 130.95 533.51 130.07 532.21 128.31 530.91 126.57 529.61 124.85 528.32 123.16 527.02 121.48 525.72 119.83 525.07 119.01 524.43 118.19 523.12 116.58 521.83 114.98 520.53 113.41 519.23 111.86 517.94 110.34 517.29 109.59 516.64 108.84 515.34 107.36 514.04 105.91 512.75 104.48 511.45 103.08 510.15 101.7 508.86 100.35 508.21 99.69 507.56 99.02 506.26 97.72 504.97 96.45 503.66 95.21 502.37 93.99 501.06 92.81 499.77 91.64 499.6 91.49 498.48 90.51 497.18 89.41 495.88 88.34 494.58 87.29 493.28 86.27 491.99 85.29 490.69 84.34 489.39 83.42 488.09 82.52 486.8 81.67 485.5 80.84 484.2 80.04 482.91 79.28 481.6 78.55 480.31 77.85 479.01 77.19 477.71 76.55 476.42 75.95 475.12 75.38 473.82 74.85 472.52 74.35 471.22 73.89 469.93 73.45 468.63 73.06 467.33 72.69 466.03 72.37 464.74 72.07 463.44 71.81 462.14 71.58 460.85 71.39 459.55 71.23 458.25 71.11 456.95 71.02 455.65 70.97 454.36 70.95 453.06 70.97 451.76 71.02 450.46 71.11 449.17 71.23 447.87 71.39 446.57 71.58 445.28 71.81 443.98 72.07 442.68 72.37 441.39 72.69 440.08 73.06 438.79 73.45 437.49 73.89 436.19 74.35 434.9 74.85 433.59 75.38 432.3 75.95 431 76.55 429.7 77.19 428.41 77.85 427.11 78.55 425.81 79.28 424.51 80.04 423.22 80.84 421.92 81.67 420.62 82.52 419.33 83.42 418.02 84.34 416.73 85.29 415.44 86.27 414.13 87.29 412.84 88.34 411.53 89.41 410.24 90.51 408.94 91.64 407.64 92.81 406.35 93.99 405.05 95.21 403.75 96.45 402.45 97.72 401.16 99.02 399.86 100.35 398.56 101.7 397.27 103.08 395.96 104.48 394.67 105.91 393.38 107.36 392.07 108.84 390.78 110.34 389.48 111.86 388.18 113.41 386.89 114.98 385.58 116.58 384.29 118.19 382.99 119.83 381.69 121.48 380.4 123.16 379.1 124.85 377.8 126.57 376.5 128.31 375.21 130.07 373.91 131.84 372.61 133.62 371.32 135.44 370.01 137.26 368.72 139.09 367.42 140.95 366.12 142.83 364.83 144.71 363.53 146.61 362.23 148.53 360.94 150.45 359.63 152.39 358.34 154.35 357.04 156.31 355.75 158.29 354.44 160.28 353.15 162.27 351.85 164.29 350.55 166.3 349.26 168.33 347.95 170.37 346.66 172.41 345.37 174.46 344.06 176.52 342.77 178.59 341.47 180.66 341 181.4 341 181.73 341 418.36 341 459.87 341.84 459.87 566.89 459.87 567.73 459.87 567.73 418.36 567.73 181.73 567.73 181.43 567.24 180.66"/><polygon class="cls-5" points="680.13 342.5 678.83 341.16 678.19 340.48 677.54 339.81 676.24 338.44 674.94 337.04 673.64 335.65 672.35 334.23 671.05 332.79 669.75 331.34 668.9 330.38 668.45 329.88 667.15 328.4 665.86 326.9 664.56 325.39 663.26 323.86 661.97 322.32 661.32 321.54 660.66 320.76 659.37 319.19 658.08 317.61 656.77 316 655.48 314.39 654.18 312.76 652.88 311.12 652.24 310.29 651.59 309.45 650.29 307.78 648.99 306.1 647.69 304.39 646.39 302.67 645.1 300.94 644.45 300.07 643.8 299.2 642.51 297.44 641.2 295.67 639.91 293.88 638.61 292.09 637.31 290.28 636.02 288.45 635.37 287.54 634.71 286.62 633.42 284.77 632.13 282.91 630.82 281.04 629.53 279.15 628.23 277.26 627.58 276.3 626.93 275.35 625.63 273.44 624.34 271.51 623.04 269.57 621.74 267.62 620.45 265.66 619.14 263.69 618.5 262.7 617.85 261.71 616.55 259.72 615.25 257.73 613.96 255.72 612.65 253.71 611.36 251.68 610.07 249.65 609.72 249.11 608.76 247.62 607.47 245.57 606.17 243.52 604.87 241.46 603.58 239.4 602.28 237.33 601.63 236.29 600.98 235.25 599.68 233.17 598.39 231.09 597.09 229 595.79 226.91 594.5 224.81 593.19 222.71 592.55 221.66 591.9 220.61 590.6 218.5 589.3 216.39 588.01 214.28 586.7 212.17 585.41 210.06 584.77 209 584.11 207.95 582.81 205.84 581.52 203.73 580.22 201.61 578.92 199.51 577.62 197.4 576.33 195.29 575.83 194.49 575.03 193.19 573.73 191.09 572.44 188.99 571.13 186.91 569.84 184.82 568.56 182.76 568.54 182.74 567.92 181.73 567.73 181.73 567.73 418.36 567.73 459.87 568.56 459.87 680.23 459.87 681.06 459.87 681.06 418.36 681.06 344.04 681.06 343.45 680.13 342.5"/><polygon points="787.83 406.32 789.13 406.64 790.42 406.96 790.74 407.04 790.42 406.96 789.13 406.64 787.83 406.32 786.53 405.98 785.58 405.73 786.53 405.98 787.83 406.32"/><polygon points="794.31 407.87 794.39 407.89 794.39 407.89 794.31 407.87 793.02 407.58 792.71 407.5 793.02 407.58 794.31 407.87"/><polygon points="704.78 365.06 706.09 366.09 707.38 367.12 708.68 368.12 709.98 369.12 711.27 370.09 711.92 370.58 711.27 370.09 709.98 369.12 708.68 368.12 707.38 367.12 706.09 366.09 704.78 365.06 703.49 364 702.84 363.48 703.49 364 704.78 365.06"/><polygon points="755.39 395.52 756.69 396.06 757.99 396.6 759.28 397.12 759.79 397.32 759.28 397.12 757.99 396.6 756.69 396.06 755.39 395.52 754.1 394.97 753.09 394.53 754.1 394.97 755.39 395.52"/><polygon points="721.65 377.41 722.95 378.26 724.25 379.11 725.55 379.93 726.84 380.74 728.14 381.54 728.79 381.94 728.14 381.54 726.84 380.74 725.55 379.93 724.25 379.11 722.95 378.26 721.65 377.41 720.35 376.54 719.71 376.11 720.35 376.54 721.65 377.41"/><polygon points="762.52 398.38 761.88 398.13 761.37 397.94 761.88 398.13 762.52 398.38"/><polygon points="745.66 391.11 745.01 390.8 744.37 390.48 745.01 390.8 745.66 391.11"/><polygon points="743.39 390 742.41 389.5 741.43 389 742.41 389.5 743.39 390"/><polygon points="738.52 387.47 739.82 388.17 740.5 388.52 739.82 388.17 738.52 387.47 737.23 386.78 736.57 386.42 737.23 386.78 738.52 387.47"/><polygon points="772.25 401.81 773.12 402.09 772.25 401.81 770.96 401.39 769.92 401.04 770.96 401.39 772.25 401.81"/><polygon points="776.15 403.05 777.45 403.44 777.84 403.56 777.45 403.44 776.15 403.05 774.85 402.64 774.44 402.52 774.85 402.64 776.15 403.05"/><polygon points="780.04 404.2 781.34 404.58 782.64 404.94 783.94 405.3 785.24 405.64 785.58 405.73 785.24 405.64 783.94 405.3 782.64 404.94 781.34 404.58 780.04 404.2 778.75 403.83 777.84 403.56 778.75 403.83 780.04 404.2"/><polygon points="747.61 392.04 748.9 392.65 750.2 393.25 751.5 393.83 752.79 394.41 753.09 394.53 752.79 394.41 751.5 393.83 750.2 393.25 748.9 392.65 747.61 392.04 746.3 391.43 745.66 391.11 746.3 391.43 747.61 392.04"/><polygon points="744.37 390.48 743.71 390.15 743.39 390 743.71 390.15 744.37 390.48"/><polygon points="741.43 389 741.12 388.84 740.5 388.52 741.12 388.84 741.43 389"/><polygon points="730.74 383.1 732.03 383.86 733.33 384.61 734.63 385.34 735.93 386.07 736.57 386.42 735.93 386.07 734.63 385.34 733.33 384.61 732.04 383.86 730.74 383.1 729.44 382.33 728.79 381.94 729.44 382.33 730.74 383.1"/><polygon points="792.71 407.5 791.73 407.27 790.74 407.04 791.73 407.27 792.71 407.5"/><polygon points="713.87 372 715.16 372.94 716.46 373.87 717.76 374.77 719.06 375.66 719.71 376.11 719.06 375.66 717.76 374.77 716.46 373.87 715.16 372.94 713.87 372 712.57 371.05 711.92 370.58 712.57 371.05 713.87 372"/><polygon points="761.37 397.94 760.58 397.63 759.79 397.32 760.58 397.63 761.37 397.94"/><polygon points="764.47 399.11 765.77 399.58 767.07 400.05 768.36 400.5 769.67 400.95 769.92 401.04 769.67 400.95 768.36 400.5 767.07 400.05 765.77 399.58 764.47 399.11 763.18 398.63 762.52 398.38 763.18 398.63 764.47 399.11"/><polygon points="774.44 402.52 773.56 402.23 773.12 402.09 773.56 402.23 774.44 402.52"/><polygon class="cls-6" points="794.31 407.87 793.02 407.58 792.71 407.5 791.73 407.27 790.74 407.04 790.42 406.96 789.13 406.64 787.83 406.32 786.53 405.98 785.58 405.73 785.24 405.64 783.94 405.3 782.64 404.94 781.34 404.58 780.04 404.2 778.75 403.83 777.84 403.56 777.45 403.44 776.15 403.05 774.85 402.64 774.44 402.52 773.56 402.23 773.12 402.09 772.25 401.81 770.96 401.39 769.92 401.04 769.67 400.95 768.36 400.5 767.07 400.05 765.77 399.58 764.47 399.11 763.18 398.63 762.52 398.38 761.88 398.13 761.37 397.94 760.58 397.63 759.79 397.32 759.28 397.12 757.99 396.6 756.69 396.06 755.39 395.52 754.1 394.97 753.09 394.53 752.79 394.41 751.5 393.83 750.2 393.25 748.9 392.65 747.61 392.04 746.3 391.43 745.66 391.11 745.01 390.8 744.37 390.48 743.71 390.15 743.39 390 742.41 389.5 741.43 389 741.12 388.84 740.5 388.52 739.82 388.17 738.52 387.47 737.23 386.78 736.57 386.42 735.93 386.07 734.63 385.34 733.33 384.61 732.03 383.86 730.74 383.1 729.44 382.33 728.79 381.94 728.14 381.54 726.84 380.74 725.55 379.93 724.25 379.11 722.95 378.26 721.65 377.41 720.35 376.54 719.71 376.11 719.06 375.66 717.76 374.77 716.46 373.87 715.16 372.94 713.87 372 712.57 371.05 711.92 370.58 711.27 370.09 709.98 369.12 708.68 368.12 707.38 367.12 706.09 366.09 704.78 365.06 703.49 364 702.84 363.48 702.19 362.94 700.89 361.87 699.8 360.94 699.6 360.76 699.41 360.6 698.29 359.66 697 358.53 695.7 357.39 695.05 356.81 694.4 356.24 693.11 355.06 691.81 353.87 690.51 352.68 689.21 351.46 687.92 350.22 686.62 348.98 685.97 348.34 685.32 347.72 684.04 346.45 684.03 346.43 684.03 346.43 682.72 345.13 681.9 344.3 681.65 344.04 681.06 344.04 681.06 418.36 681.06 459.87 681.9 459.87 793.55 459.87 794.39 459.87 794.39 459 794.39 418.36 794.39 408 794.39 407.89 794.31 407.87"/><polygon points="900.08 418.17 900.72 418.19 901.35 418.2 900.72 418.19 900.08 418.17"/><polygon points="883.89 417.68 885.15 417.72 886.39 417.76 885.15 417.72 883.89 417.68"/><polygon points="850.21 415.81 851.41 415.9 852.61 415.99 851.41 415.9 850.21 415.81"/><polygon points="858.5 416.4 859.2 416.45 859.88 416.49 859.2 416.45 858.5 416.4"/><polygon points="906.55 418.32 907.21 418.34 908.5 418.36 908.5 418.36 907.21 418.34 906.55 418.32"/><polygon points="861.79 416.61 861.71 416.61 861.79 416.61 863.09 416.69 863.73 416.73 863.09 416.69 861.79 416.61"/><polygon points="865.68 416.84 864.46 416.77 865.68 416.84 866.98 416.91 868.21 416.98 866.98 416.91 865.68 416.84"/><polygon points="878.66 417.47 877.36 417.41 876.06 417.35 874.77 417.3 873.47 417.23 872.82 417.21 873.47 417.23 874.77 417.3 876.06 417.35 877.36 417.41 878.66 417.47 879.95 417.52 881.21 417.57 879.95 417.52 878.66 417.47"/><polygon points="795.62 408.16 795.23 408.08 795.23 408.08 795.62 408.16 796.91 408.45 797.42 408.56 796.91 408.45 795.62 408.16"/><polygon points="846.11 415.47 846.22 415.49 846.87 415.54 846.22 415.49 846.11 415.47"/><polygon points="798.99 408.9 799.51 409.01 800.54 409.22 799.51 409.01 798.99 408.9"/><polygon points="794.85 408 794.85 408 794.39 407.89 794.39 407.89 794.85 408"/><polygon points="896.83 418.09 895.52 418.05 894.23 418.01 892.93 417.98 891.63 417.94 890.34 417.89 889.04 417.85 887.74 417.81 886.49 417.77 887.74 417.81 889.04 417.85 890.34 417.89 891.63 417.94 892.93 417.98 894.23 418.01 895.52 418.05 896.83 418.09 898.12 418.12 898.75 418.14 898.12 418.12 896.83 418.09"/><polygon points="801.06 409.32 802.1 409.52 802.63 409.63 802.1 409.52 801.06 409.32"/><polygon points="837.2 414.64 838.43 414.77 839.32 414.85 838.43 414.77 837.2 414.64"/><polygon points="842.32 415.14 841.03 415.02 840.9 415.01 841.03 415.02 842.32 415.14 843.62 415.25 843.74 415.27 843.62 415.25 842.32 415.14"/><polygon points="828.05 413.62 826.75 413.46 825.46 413.29 824.16 413.13 823.42 413.03 824.16 413.13 825.46 413.29 826.75 413.46 828.05 413.62 829.35 413.78 830 413.85 829.35 413.78 828.05 413.62"/><polygon points="812.48 411.4 811.19 411.19 809.88 410.97 808.59 410.74 807.29 410.51 805.99 410.28 804.7 410.03 804.52 410 804.7 410.03 805.99 410.28 807.29 410.51 808.59 410.74 809.88 410.97 811.19 411.19 812.48 411.4 813.77 411.61 814.87 411.79 813.77 411.61 812.48 411.4"/><polygon points="817.68 412.21 816.57 412.05 817.68 412.21 818.97 412.41 820.08 412.56 818.97 412.41 817.68 412.21"/><polygon points="898.75 418.14 899.42 418.15 900.08 418.17 899.42 418.15 898.75 418.14"/><polygon points="904.61 418.28 903.32 418.25 902.01 418.22 901.35 418.2 902.01 418.22 903.31 418.25 904.61 418.28 905.9 418.31 906.55 418.32 905.9 418.31 904.61 418.28"/><polygon points="821.57 412.77 820.26 412.6 820.08 412.56 820.26 412.6 821.57 412.77 822.86 412.96 823.42 413.03 822.86 412.96 821.57 412.77"/><polygon points="839.32 414.85 839.74 414.89 840.9 415.01 839.74 414.89 839.32 414.85"/><polygon points="802.63 409.63 803.4 409.78 804.52 410 803.4 409.78 802.63 409.63"/><polygon points="800.54 409.22 800.8 409.27 801.06 409.32 800.8 409.27 800.54 409.22"/><polygon points="835.84 414.5 834.54 414.37 833.25 414.23 831.94 414.08 830.65 413.94 830 413.85 830.65 413.94 831.94 414.08 833.25 414.23 834.54 414.37 835.84 414.5 837.14 414.64 837.2 414.64 837.14 414.64 835.84 414.5"/><polygon points="886.39 417.76 886.44 417.77 886.49 417.77 886.44 417.77 886.39 417.76"/><polygon points="797.42 408.56 798.21 408.73 798.99 408.9 798.21 408.73 797.42 408.56"/><polygon points="794.39 408 794.85 408 794.39 407.89 794.39 408"/><polygon points="815.08 411.82 814.87 411.79 815.08 411.82 816.37 412.02 816.57 412.05 816.37 412.02 815.08 411.82"/><polygon points="863.73 416.73 864.38 416.77 864.46 416.77 864.38 416.77 863.73 416.73"/><polygon points="859.88 416.49 860.49 416.53 861.71 416.61 860.49 416.53 859.88 416.49"/><polygon points="882.55 417.63 881.26 417.58 881.21 417.57 881.26 417.58 882.55 417.63 883.85 417.67 883.89 417.68 883.85 417.67 882.55 417.63"/><polygon points="870.87 417.11 869.58 417.04 868.28 416.98 868.21 416.98 868.28 416.98 869.58 417.04 870.87 417.11 872.17 417.18 872.82 417.21 872.17 417.18 870.87 417.11"/><polygon points="856.6 416.27 855.3 416.18 854 416.09 852.71 416 852.61 415.99 852.71 416 854 416.09 855.3 416.18 856.6 416.27 857.89 416.37 858.5 416.4 857.89 416.37 856.6 416.27"/><polygon points="843.74 415.27 844.92 415.37 846.11 415.47 844.92 415.37 843.74 415.27"/><polygon points="848.81 415.7 847.52 415.6 846.87 415.54 847.52 415.6 848.81 415.7 850.11 415.8 850.21 415.81 850.11 415.8 848.81 415.7"/><polygon points="794.85 408 794.85 408 795.23 408.08 795.23 408.08 794.85 408"/><polygon class="cls-7" points="907.21 418.34 906.55 418.32 905.9 418.31 904.61 418.28 903.31 418.25 902.01 418.22 901.35 418.2 900.72 418.19 900.08 418.17 899.42 418.15 898.75 418.14 898.12 418.12 896.83 418.09 895.52 418.05 894.23 418.01 892.93 417.98 891.63 417.94 890.34 417.89 889.04 417.85 887.74 417.81 886.49 417.77 886.44 417.77 886.39 417.76 885.15 417.72 883.89 417.68 883.85 417.67 882.55 417.63 881.26 417.58 881.21 417.57 879.95 417.52 878.66 417.47 877.36 417.41 876.06 417.35 874.77 417.3 873.47 417.23 872.82 417.21 872.17 417.18 870.87 417.11 869.58 417.04 868.28 416.98 868.21 416.98 866.98 416.91 865.68 416.84 864.46 416.77 864.38 416.77 863.73 416.73 863.09 416.69 861.79 416.61 861.71 416.61 860.49 416.53 859.88 416.49 859.2 416.45 858.5 416.4 857.89 416.37 856.6 416.27 855.3 416.18 854 416.09 852.71 416 852.61 415.99 851.41 415.9 850.21 415.81 850.11 415.8 848.81 415.7 847.52 415.6 846.87 415.54 846.22 415.49 846.11 415.47 844.92 415.37 843.74 415.27 843.62 415.25 842.32 415.14 841.03 415.02 840.9 415.01 839.74 414.89 839.32 414.85 838.43 414.77 837.2 414.64 837.14 414.64 835.84 414.5 834.54 414.37 833.25 414.23 831.94 414.08 830.65 413.94 830 413.85 829.35 413.78 828.05 413.62 826.75 413.46 825.46 413.29 824.16 413.13 823.42 413.03 822.86 412.96 821.57 412.77 820.26 412.6 820.08 412.56 818.97 412.41 817.68 412.21 816.57 412.05 816.37 412.02 815.08 411.82 814.87 411.79 813.77 411.61 812.48 411.4 811.19 411.19 809.88 410.97 808.59 410.74 807.29 410.51 805.99 410.28 804.7 410.03 804.52 410 803.4 409.78 802.63 409.63 802.1 409.52 801.06 409.32 800.8 409.27 800.54 409.22 799.51 409.01 798.99 408.9 798.21 408.73 797.42 408.56 796.91 408.45 795.62 408.16 795.23 408.08 794.85 408 794.39 408 794.39 418.36 794.39 443.05 794.39 457.62 794.39 459.87 908.5 459.87 908.5 457.62 908.5 443.05 908.5 418.36 907.21 418.34"/><path class="cls-8" d="M.21,417.14h13l1.29,0h2.6l1.29,0,1.3,0,1.3,0,1.29-.05,1.3-.05,1.3-.05,1.3-.05,1.29,0,1.3-.05,1.3-.05,1.29-.06,1.31-.05,1.29,0,1.3-.07,1.3-.06,1.29-.07,1.3-.06,1.3-.07,1.3-.07L43,416l1.29-.07,1.3-.08,1.3-.08,1.3-.07,1.29-.09,1.3-.09,1.3-.08,1.29-.09,1.31-.1,1.29-.09,1.29-.1,1.31-.1,1.29-.1,1.29-.49,1.34-.08,1.29-.11,1.29-.12,1.31-.12,1.29-.11,1.3-.13,1.3-.12,1.29-.14,1.28-.16,1.3-.14,1.29-.13,1.3-.15,1.3-.15,1.29-.15,1.31-.16,1.29-.16,1.3-.17,1.3-.16,1.29-.17,1.3-.19,1.3-.17,1.3-.19L91,411l1.3-.19,1.3-.2,1.29-.21,1.31-.21,1.29-.21,1.3-.22,1.3-.23,1.29-.23,1.31-.23,1.29-.25,1.3-.25,1.3-.25,1.29-.26,1.3-.27,1.3-.27,1.3-.28,1.29-.29,1.3-.29,1.3-.29,1.29-.31,1.31-.31,1.29-.32,1.29-.32,1.31-.34,1.29-.34,1.3-.34,1.3-.36,1.29-.36,1.31-.38,1.29-.37,1.3-.39,1.3-.4,1.29-.4,1.3-.41,1.3-.41,1.3-.44,1.29-.43,1.3-.45,1.3-.45,1.29-.47,1.31-.47,1.29-.48,1.3-.5,1.3-.5,1.29-.52,1.3-.51,1.3-.54,1.3-.54,1.3-.55,1.29-.56,1.3-.58,1.3-.58,1.3-.6,1.29-.61,1.3-.61,1.3-.63,1.29-.64,1.31-.66,1.29-.66,1.29-.67,1.31-.7,1.29-.69,1.3-.71,1.3-.73,1.29-.73,1.3-.75,1.3-.76,1.3-.77,1.29-.79,1.3-.8,1.3-.83,1.3-.84,1.3-.83,1.29-.84,1.3-.83,1.3-.88,1.29-.89,1.31-.92,1.29-.91,1.3-.94,1.3-.95,1.29-1,1.3-1,1.3-1,1.3-1,1.29-1,1.3-1,1.3-1.05,1.29-1.06,1.31-1.09,1.29-1.09,1.3-1.11,1.3-1.12,1.29-1.15,1.31-1.15,1.29-1.18,1.3-1.18,1.3-1.21,1.29-1.21,1.3-1.23,1.3-1.25,1.3-1.27,1.29-1.27,1.3-1.3,1.3-1.31,1.29-1.32L229.9,340l1.29-1.36,1.3-1.37,1.3-1.39,1.3-1.4,1.29-1.41,1.3-1.44,1.3-1.45,1.3-1.47,1.3-1.47,1.29-1.5,1.3-1.51,1.3-1.53,1.29-1.54,1.31-1.56,1.29-1.57,1.3-1.59,1.3-1.6,1.29-1.61,1.3-1.63,1.3-1.67,1.3-1.67,1.29-1.67,1.3-1.67,1.3-1.67,1.29-1.72,1.31-1.73,1.29-1.75,1.29-1.75,1.31-1.77,1.29-1.79,1.31-1.8,1.29-1.81,1.29-1.82,1.31-1.84,1.29-1.84,1.3-1.87,1.3-1.87L279.2,278l1.3-1.9,1.3-1.9,1.3-1.92,1.29-1.93,1.3-1.93,1.3-2,1.29-1.95,1.31-2,1.29-2,1.3-2,1.3-2,1.29-2,1.3-2,1.3-2,1.3-2,1.3-2,1.29-2,1.3-2.06,1.3-2,1.3-2.06,1.29-2.08,1.3-2.08,1.3-2.08,1.29-2.07,1.31-2.09,1.29-2.1,1.3-2.1,1.3-2.1,1.29-2.1,1.3-2.1,1.3-2.12,1.29-2.1L322,211l1.3-2.12,1.3-2.11,1.33-2.11,1.3-2.12,1.29-2.11,1.31-2.1,1.29-2.12,1.3-2.1,1.3-2.1,1.29-2.1,1.3-2.1,1.3-2.09,1.3-2.09,1.29-2.08,1.3-2.08,1.3-2.07,1.29-2.07,1.31-2.05,1.29-2.06,1.29-2,1.31-2,1.29-2,1.3-2,1.3-2,1.29-2,1.31-2,1.29-2,1.3-2,1.3-1.95,1.29-1.94,1.3-1.93,1.3-1.91,1.3-1.91,1.29-1.88,1.3-1.87,1.3-1.86,1.29-1.84,1.31-1.82,1.29-1.81,1.3-1.79,1.3-1.77,1.29-1.75,1.3-1.74,1.3-1.72,1.3-1.67,1.29-1.67,1.3-1.67,1.3-1.67,1.3-1.61,1.29-1.6,1.29-1.57,1.31-1.54,1.29-1.53,1.29-1.5,1.31-1.48,1.29-1.45,1.3-1.43,1.27-1.36,1.34-1.42,1.3-1.35,1.3-1.33,1.29-1.29,1.3-1.28,1.3-1.25,1.3-1.21,1.29-1.19,1.3-1.16,1.3-1.13,1.3-1.1,1.3-1.08,1.29-1,1.3-1,1.3-1,1.29-.95,1.31-.92,1.29-.9,1.29-.83,1.31-.84,1.29-.79,1.3-.76,1.3-.74,1.29-.7,1.3-.66,1.3-.63,1.3-.6,1.29-.57,1.3-.54,1.3-.5,1.29-.46,1.31-.43,1.29-.4,1.3-.36,1.3-.33,1.29-.3,1.31-.26,1.29-.22,1.27-.22,1.3-.16,1.3-.11,1.29-.1,1.31-.05h2.59l1.3.05,1.29.1,1.3.11,1.3.16,1.3.19,1.29.23,1.3.26,1.3.29,1.3.33,1.3.36,1.29.4,1.33.45,1.29.46,1.3.5,1.3.53,1.3.57,1.29.6,1.3.64,1.3.66,1.29.7,1.3.73,1.3.76,1.29.8,1.31.83,1.29.84,1.3.89,1.3.92,1.29,1,1.3,1,1.3,1,1.3,1,1.3,1.08,1.29,1.1,1.3,1.13,1.3,1.16,1.3,1.19L503.72,94l1.3,1.24,1.3,1.28,1.29,1.29,1.31,1.33,1.29,1.35,1.25,1.44,1.31,1.4,1.29,1.43,1.3,1.46,1.3,1.47,1.29,1.5,1.3,1.53,1.3,1.54,1.3,1.57,1.29,1.6,1.3,1.61,1.3,1.67,1.3,1.67,1.3,1.67,1.29,1.67,1.3,1.72,1.3,1.74,1.29,1.75,1.31,1.78,1.29,1.78,1.3,1.81,1.3,1.83,1.29,1.83,1.3,1.86,1.3,1.87,1.29,1.89,1.3,1.9,1.3,1.91,1.3,1.93,1.29,1.94,1.3,2,1.3,2,1.3,2,1.3,2,1.29,2,1.3,2,1.3,2,1.29,2,1.31,2,1.29,2,1.3,2.06,1.3,2,1.29,2.07,1.3,2.08,1.3,2.08,1.3,2.08,1.29,2.08,1.3,2.09,1.3,2.1L575,192l1.31,2.1,1.29,2.1,1.3,2.12,1.3,2.1,1.29,2.12,1.31,2.11,1.29,2.1,1.3,2.12,1.3,2.11,1.29,2.11,1.3,2.11,1.3,2.11,1.3,2.11,1.29,2.09,1.3,2.11,1.3,2.09,1.29,2.1,1.3,2.09,1.3,2.08,1.29,2.08,1.31,2.08,1.29,2.07,1.3,2.06,1.3,2.06,1.29,2,1.3,2,1.3,2,1.3,2,1.3,2,1.29,2,1.3,2,1.3,2,1.3,2,1.29,2,1.3,2,1.3,1.95,1.29,2,1.31,1.94,1.29,1.93,1.3,1.91,1.3,1.9,1.29,1.9,1.28,1.82,1.3,1.87,1.3,1.86,1.29,1.85,1.31,1.84,1.29,1.82,1.3,1.81,1.3,1.8,1.29,1.78,1.31,1.77L643.8,298l1.3,1.74,1.3,1.73,1.29,1.72,1.3,1.67,1.3,1.67,1.3,1.68,1.29,1.67,1.3,1.67,1.3,1.62,1.29,1.62,1.31,1.6,1.29,1.59,1.3,1.57,1.3,1.56,1.29,1.54,1.3,1.53,1.3,1.51,1.29,1.49,1.31,1.48,1.29,1.46,1.3,1.46,1.3,1.43,1.29,1.41,1.3,1.41,1.3,1.38,1.3,1.38,1.31,1.39,1.3,1.34,1.3,1.32,1.29,1.31,1.3,1.3,1.3,1.28,1.29,1.27,1.31,1.24,1.29,1.24,1.3,1.21,1.3,1.2,1.29,1.19,1.3,1.17,1.3,1.16,1.3,1.14,1.3,1.12,1.29,1.11,1.3,1.1,1.3,1.08,1.3,1.06,1.29,1,1.3,1,1.3,1,1.29,1,1.31,1,1.29,1,1.29,1,1.31,1,1.29.9,1.3.92,1.3.91,1.29.89,1.3.88,1.3.83,1.3.84,1.3.83,1.29.84,1.3.83,1.3.8,1.3.79,1.29.77,1.3.76,1.3.75,1.29.74,1.31.72,1.29.71,1.3.7,1.3.69,1.29.68,1.3.66,1.3.65,1.3.64,1.29.63,1.3.61,1.3.61,1.29.6,1.31.58,1.29.58,1.3.56,1.3.55,1.29.54,1.31.54,1.29.51,1.29.52,1.31.5,1.29.5,1.3.48,1.3.47,1.29.47,1.3.46,1.3.44,1.3.43,1.29.44,1.3.41,1.3.41,1.29.41,1.31.4,1.29.38,1.3.38,1.3.37,1.29.36L784,404l1.29.34,1.3.35,1.3.33,1.29.33,1.3.31,1.3.31,1.3.31,1.29.29,1.3.3,1.3.28,1.29.28,1.31.27,1.29.27,1.29.26,1.31.26,1.29.25,1.3.24,1.3.23,1.29.24,1.31.22,1.29.22,1.3.22,1.3.2,1.29.21,1.3.2,1.3.2,1.3.19,1.29.19,1.3.18,1.3.18,1.29.17,1.31.16,1.29.17,1.3.16,1.3.16,1.29.15,1.3.15,1.3.15,1.3.13,1.29.14,1.3.14,1.3.13,1.3.13,1.3.12,1.29.12,1.3.12,1.3.11,1.29.11,1.31.11,1.29.11,1.29.1,1.31.1,1.29.1,1.3.09,1.3.09,1.29.1,1.3.08,1.3.09,1.3.08,1.29.08,1.31.07,1.29.09,1.3.07,1.3.07,1.29.07,1.31.06,1.29.07,1.29.07,1.31.06,1.29.06,1.3.05,1.3.06,1.29.06,1.3.05,1.3.05,1.3,0,1.29.05,1.3.05,1.3,0,1.29,0,1.31,0,1.29.05,1.3,0h2.59l1.31,0h13"/><rect class="cls-9" x="553.65" y="420.58" width="28.14" height="28.14" rx="4.53"/><path d="M559.51,430.5a10.9,10.9,0,0,1-1.26.41,10.13,10.13,0,0,1-1.45.32l-.18-.88a8.46,8.46,0,0,0,1.88-.68,8.1,8.1,0,0,0,1.61-1.05h0l.9.18v10.75l2.46.15v.84H557v-.84l2.5-.15Z"/><path d="M566.05,430.5c-.41.16-.84.29-1.26.41a10.44,10.44,0,0,1-1.45.32l-.18-.88a8.49,8.49,0,0,0,3.49-1.73h0l.9.18v10.75l2.51.15v.84h-6.5v-.84l2.5-.15Z"/><path d="M571.29,439a7.66,7.66,0,0,1-1.12-4.3,7,7,0,0,1,.65-3.13,5.3,5.3,0,0,1,1.78-2.12,4.35,4.35,0,0,1,2.5-.75,3.92,3.92,0,0,1,3.52,1.61,7.48,7.48,0,0,1,1.06,4.26,7.75,7.75,0,0,1-.64,3.15,5.36,5.36,0,0,1-1.73,2.21,4.05,4.05,0,0,1-2.51.83A3.89,3.89,0,0,1,571.29,439Zm6-.49a7.84,7.84,0,0,0,.75-3.78q0-5.16-3-5.16a2.61,2.61,0,0,0-2.39,1.3,7.12,7.12,0,0,0-.77,3.6,8.94,8.94,0,0,0,.75,3.85,2.44,2.44,0,0,0,2.34,1.54A2.5,2.5,0,0,0,577.24,438.46Z"/><rect class="cls-9" x="439.52" y="420.58" width="30.69" height="28.14" rx="4.53"/><path d="M444.38,430.5c-.42.16-.84.29-1.26.41a10.44,10.44,0,0,1-1.45.32l-.18-.88a8.56,8.56,0,0,0,1.87-.68,8.17,8.17,0,0,0,1.62-1.05h0l.9.18v10.75l2.46.15v.84h-6.5v-.84l2.5-.15Z"/><path d="M449.61,439a7.66,7.66,0,0,1-1.12-4.3,7,7,0,0,1,.66-3.13,5.28,5.28,0,0,1,1.77-2.12,4.4,4.4,0,0,1,2.51-.75,3.93,3.93,0,0,1,3.53,1.61,7.64,7.64,0,0,1,1.06,4.26,7.74,7.74,0,0,1-.63,3.15,5.36,5.36,0,0,1-1.73,2.21,4.05,4.05,0,0,1-2.51.83A3.92,3.92,0,0,1,449.61,439Zm6-.49a7.84,7.84,0,0,0,.75-3.78q0-5.16-3-5.16a2.6,2.6,0,0,0-2.39,1.3,7.12,7.12,0,0,0-.77,3.6,8.94,8.94,0,0,0,.75,3.85,2.44,2.44,0,0,0,2.34,1.54A2.5,2.5,0,0,0,455.57,438.46Z"/><path d="M460,439a7.75,7.75,0,0,1-1.13-4.3,7.19,7.19,0,0,1,.66-3.13,5.38,5.38,0,0,1,1.78-2.12,4.43,4.43,0,0,1,2.47-.75,3.93,3.93,0,0,1,3.52,1.61,7.48,7.48,0,0,1,1.06,4.26,7.73,7.73,0,0,1-.62,3.15,5.45,5.45,0,0,1-1.73,2.21,4.07,4.07,0,0,1-2.51.83A3.92,3.92,0,0,1,460,439Zm6-.49a7.84,7.84,0,0,0,.75-3.78c0-3.44-1-5.16-3-5.16a2.6,2.6,0,0,0-2.39,1.3,7,7,0,0,0-.77,3.6,8.93,8.93,0,0,0,.74,3.85,2.45,2.45,0,0,0,2.34,1.54A2.52,2.52,0,0,0,466,438.46Z"/><rect class="cls-9" x="665.72" y="420.58" width="30.69" height="28.14" rx="4.53"/><path d="M670.57,430.5a10.9,10.9,0,0,1-1.26.41,10.3,10.3,0,0,1-1.44.32l-.19-.88a8.46,8.46,0,0,0,1.88-.68,7.82,7.82,0,0,0,1.61-1.05h0l.9.18v10.75l2.51.15v.84h-6.5v-.84l2.51-.15Z"/><path d="M677.7,437.57a13.25,13.25,0,0,0,2.43-2.75,5.11,5.11,0,0,0,.91-2.63,2.42,2.42,0,0,0-.66-1.77,2.51,2.51,0,0,0-1.88-.66,4,4,0,0,0-2,.46,7.06,7.06,0,0,0-1.5,1.1l-.53-.71a6.67,6.67,0,0,1,1.87-1.38,5.19,5.19,0,0,1,2.5-.61,4.45,4.45,0,0,1,2.15.47,3.1,3.1,0,0,1,1.29,1.27,3.35,3.35,0,0,1,.43,1.67,6.09,6.09,0,0,1-1.81,4,19,19,0,0,1-4.51,3.62l6.07-.39.63-1.67.83.16-.45,2.75h-8.85l-.23-.64A19.42,19.42,0,0,0,677.7,437.57Z"/><path d="M685.47,439a7.75,7.75,0,0,1-1.13-4.3,7.19,7.19,0,0,1,.66-3.13,5.3,5.3,0,0,1,1.78-2.12,4.4,4.4,0,0,1,2.51-.75,3.93,3.93,0,0,1,3.52,1.61,7.56,7.56,0,0,1,1.06,4.26,7.74,7.74,0,0,1-.63,3.15,5.36,5.36,0,0,1-1.73,2.21,4,4,0,0,1-2.5.83A3.89,3.89,0,0,1,685.47,439Zm6-.49a8,8,0,0,0,.74-3.78q0-5.16-3-5.16a2.58,2.58,0,0,0-2.38,1.3,7,7,0,0,0-.78,3.6,8.94,8.94,0,0,0,.75,3.85,2.44,2.44,0,0,0,2.34,1.54A2.51,2.51,0,0,0,691.43,438.46Z"/><rect class="cls-9" x="778.6" y="419.97" width="32.03" height="29.38" rx="4.53"/><path d="M784.39,430.31a12.59,12.59,0,0,1-1.31.44,13.12,13.12,0,0,1-1.51.33l-.19-.92a8.6,8.6,0,0,0,2-.71,7.66,7.66,0,0,0,1.67-1.1h0l.94.2v11.21l2.57.16v.83h-6.78v-.83l2.62-.16Z"/><path d="M788.68,443.75v-.92a5.43,5.43,0,0,0,1.39.15,7.06,7.06,0,0,0,2.87-.52,4.29,4.29,0,0,0,1.85-1.4,3.19,3.19,0,0,0,.63-1.93,2.7,2.7,0,0,0-.83-2.14,4,4,0,0,0-2.66-.8,5.3,5.3,0,0,1-.84.24l-.41.12-.29-.94a7.46,7.46,0,0,0,1.53-.45,5.41,5.41,0,0,0,2.09-1.44,2.88,2.88,0,0,0,.84-2,2.05,2.05,0,0,0-.7-1.67,2.81,2.81,0,0,0-1.79-.54,5,5,0,0,0-1.74.32,5.71,5.71,0,0,0-1.48.84l-.43-.71a5.64,5.64,0,0,1,1.67-1.06,5.87,5.87,0,0,1,2.37-.51,4.72,4.72,0,0,1,2.78.77,2.68,2.68,0,0,1,1.06,2.35,3.29,3.29,0,0,1-.52,1.77,5.65,5.65,0,0,1-1.37,1.47,6.12,6.12,0,0,1-1.77,1h.52a4.46,4.46,0,0,1,2.06.45,3.17,3.17,0,0,1,1.33,1.18,3.1,3.1,0,0,1,.46,1.62,4.23,4.23,0,0,1-.84,2.59,5.6,5.6,0,0,1-2.43,1.78,9.57,9.57,0,0,1-3.62.64A7.77,7.77,0,0,1,788.68,443.75Z"/><path d="M799.2,439.13a8.1,8.1,0,0,1-1.18-4.48,7.4,7.4,0,0,1,.69-3.27,5.27,5.27,0,0,1,1.85-2.2,4.55,4.55,0,0,1,2.57-.79,4.12,4.12,0,0,1,3.69,1.67,9.12,9.12,0,0,1,.44,7.75,5.51,5.51,0,0,1-1.8,2.31,4.33,4.33,0,0,1-2.58.84A4.08,4.08,0,0,1,799.2,439.13Zm6.21-.51a8.1,8.1,0,0,0,.79-3.94q0-5.39-3.18-5.38a2.68,2.68,0,0,0-2.51,1.35,7.47,7.47,0,0,0-.83,3.77,9.18,9.18,0,0,0,.77,4,2.52,2.52,0,0,0,2.44,1.62,2.64,2.64,0,0,0,2.5-1.42Z"/><rect class="cls-9" x="325.73" y="420.58" width="30.69" height="28.14" rx="4.53"/><path d="M337.57,428.25a4.31,4.31,0,0,1,1.57,2,7.1,7.1,0,0,1,.52,2.77,9.93,9.93,0,0,1-1,4.51,9.64,9.64,0,0,1-2.67,3.34,8.33,8.33,0,0,1-3.57,1.67l-.35-.72a8.24,8.24,0,0,0,3.73-2.45,9.07,9.07,0,0,0,1.93-3.9,4.1,4.1,0,0,1-1.33,1.05,4,4,0,0,1-1.83.44,4.08,4.08,0,0,1-3.18-1.24,4.52,4.52,0,0,1-1.16-3.29,5.26,5.26,0,0,1,.57-2.43,4.5,4.5,0,0,1,1.67-1.79,4.65,4.65,0,0,1,2.51-.68A4.48,4.48,0,0,1,337.57,428.25Zm-1.41,7.45a4,4,0,0,0,1.13-.69,2.43,2.43,0,0,0,.62-.8c0-.3,0-.51,0-.65a9.09,9.09,0,0,0-.66-3.75,2.42,2.42,0,0,0-2.44-1.43,2.47,2.47,0,0,0-1.67.54,3.28,3.28,0,0,0-1,1.4,4.72,4.72,0,0,0-.34,1.77,4.52,4.52,0,0,0,.77,3,2.52,2.52,0,0,0,2.07.95,3.63,3.63,0,0,0,1.49-.29Z"/><path d="M343.49,437.86a7.72,7.72,0,0,1-1.12-4.3,7,7,0,0,1,.66-3.13,5.06,5.06,0,0,1,1.78-2.11,4.23,4.23,0,0,1,2.46-.75,3.91,3.91,0,0,1,3.52,1.59,7.62,7.62,0,0,1,1.07,4.27,7.82,7.82,0,0,1-.63,3.16,5.4,5.4,0,0,1-1.73,2.2,4.12,4.12,0,0,1-2.51.84A3.91,3.91,0,0,1,343.49,437.86Zm6-.49a7.78,7.78,0,0,0,.75-3.77c0-3.44-1-5.17-3-5.17a2.6,2.6,0,0,0-2.39,1.3,7.16,7.16,0,0,0-.77,3.61,8.83,8.83,0,0,0,.75,3.83,2.45,2.45,0,0,0,2.34,1.56,2.5,2.5,0,0,0,2.33-1.36Z"/><rect class="cls-9" x="212.15" y="420.55" width="30.69" height="28.14" rx="4.53"/><path d="M217.77,436.05a5.63,5.63,0,0,1,2.22-1.67,6.39,6.39,0,0,1-1.76-1.47,3.44,3.44,0,0,1,0-3.86,3.58,3.58,0,0,1,1.53-1.19,5,5,0,0,1,2-.41,4.41,4.41,0,0,1,2.81.83,2.74,2.74,0,0,1,1.1,2.26,3.55,3.55,0,0,1-.67,2,6.06,6.06,0,0,1-1.89,1.67,9.78,9.78,0,0,1,2.32,1.67,2.85,2.85,0,0,1,.84,2.06,3.15,3.15,0,0,1-.66,2,4.22,4.22,0,0,1-1.72,1.32,5.55,5.55,0,0,1-2.27.46,6.2,6.2,0,0,1-2.17-.38,3.79,3.79,0,0,1-1.67-1.18,3.16,3.16,0,0,1-.67-2.05A3.44,3.44,0,0,1,217.77,436.05Zm6.48,1.06a4.08,4.08,0,0,0-1-.92c-.4-.25-1-.56-1.67-.92l-.83-.44a4.26,4.26,0,0,0-1.61,1.27,2.76,2.76,0,0,0-.62,1.74,3,3,0,0,0,.83,2.26,3.52,3.52,0,0,0,3.76.51,2.89,2.89,0,0,0,1.1-.92,2.22,2.22,0,0,0,.42-1.34,1.9,1.9,0,0,0-.36-1.24Zm-4.87-5.23a4.27,4.27,0,0,0,1.06.93c.41.26,1,.59,1.8,1a4.36,4.36,0,0,0,1.5-1.2,2.68,2.68,0,0,0,.55-1.62,2.79,2.79,0,0,0-.72-2,2.61,2.61,0,0,0-1.93-.73,2.85,2.85,0,0,0-1.9.65,2.11,2.11,0,0,0-.79,1.72,2,2,0,0,0,.43,1.27Z"/><path d="M229.81,440a7.78,7.78,0,0,1-1.13-4.31,7.18,7.18,0,0,1,.66-3.12,5.21,5.21,0,0,1,1.78-2.11,4.32,4.32,0,0,1,2.51-.76,3.9,3.9,0,0,1,3.52,1.6,7.5,7.5,0,0,1,1.06,4.26,7.63,7.63,0,0,1-.63,3.16,5.17,5.17,0,0,1-1.72,2.2,4.08,4.08,0,0,1-2.51.84A3.93,3.93,0,0,1,229.81,440Zm5.95-.49a7.9,7.9,0,0,0,.76-3.77q0-5.17-3.05-5.17a2.57,2.57,0,0,0-2.38,1.29,7.08,7.08,0,0,0-.77,3.61,8.89,8.89,0,0,0,.74,3.84,2.46,2.46,0,0,0,2.34,1.56,2.53,2.53,0,0,0,2.35-1.36Z"/><rect class="cls-9" x="99" y="420.58" width="30.69" height="28.14" rx="4.53"/><path d="M106.09,442.11c.6-1.34,1.18-2.68,1.73-4s1.34-3.32,2.38-5.92l1.29-3.27-5.93.06-.65,2.34-1-.17.37-3.43h8.29l.32.42c-.05.1-.91,2.5-2.57,7.22s-2.53,7.12-2.59,7.23Z"/><path d="M116.21,437.86a7.66,7.66,0,0,1-1.12-4.3,7,7,0,0,1,.66-3.12,5.18,5.18,0,0,1,1.77-2.11,4.35,4.35,0,0,1,2.5-.75,3.94,3.94,0,0,1,3.52,1.6,8.69,8.69,0,0,1,.43,7.4,5.4,5.4,0,0,1-1.73,2.2,4,4,0,0,1-2.46.8A4,4,0,0,1,116.21,437.86Zm5.94-.5a7.74,7.74,0,0,0,.75-3.76q0-5.16-3-5.16a2.59,2.59,0,0,0-2.38,1.3,7,7,0,0,0-.77,3.6,8.87,8.87,0,0,0,.74,3.83,2.47,2.47,0,0,0,2.34,1.55,2.5,2.5,0,0,0,2.35-1.36Z"/><polygon class="cls-1" points="0.22 54.23 22.04 41.63 22.04 66.83 0.22 54.23"/><polygon class="cls-10" points="908.51 54.23 886.69 66.83 886.69 41.63 908.51 54.23"/><rect class="cls-1" x="0.22" width="113.47" height="16.81"/><rect class="cls-2" x="113.69" width="113.99" height="16.81"/><rect class="cls-3" x="227.68" width="113.34" height="16.81"/><rect class="cls-4" x="341.01" width="226.72" height="16.81"/><rect class="cls-7" x="794.4" width="114.11" height="16.81"/><rect class="cls-5" x="567.73" width="113.34" height="16.81"/><rect class="cls-6" x="681.07" width="113.34" height="16.81"/><path d="M35.5,58.47h1.06l4.61-13h2.07l4.57,13h1.07v1H44v-1h1.81l-1.27-3.58H39.07l-1.23,3.58h1.81v1H35.47Zm3.87-4.59h4.89L41.92,47h-.14Z"/><path d="M53,57.92H53l-1,1.52h-.7V45.63l-1.5-.28v-.72L53,44v6.68h.08a3.19,3.19,0,0,1,3.07-1.83c2.6,0,4.32,1.91,4.32,5.42s-1.69,5.41-4.32,5.41A3.24,3.24,0,0,1,53,57.92Zm5.53-2.79V53.41c0-2-1.07-3.34-2.9-3.34-1.31,0-2.65.74-2.65,2v4.37c0,1.28,1.34,2,2.65,2C57.5,58.47,58.57,57.16,58.57,55.13Z"/><path d="M62.52,58.47H64v-8l-1.51-.28v-.72l3.29-.63v9.62h1.51v1h-4.8Zm1.25-12.8v-.12a1.14,1.14,0,0,1,1.14-1.15,1.16,1.16,0,0,1,1.15,1.15v.12a1.15,1.15,0,0,1-2.29,0Z"/><path d="M68.7,58.47h1.5V45.63l-1.5-.28v-.72L72,44V58.47h1.5v1H68.7Z"/><path d="M75.21,58.47h1.5v-8l-1.5-.28v-.72l3.29-.63v9.62H80v1h-4.8Zm1.25-12.81v-.12a1.14,1.14,0,1,1,2.28,0v.12a1.14,1.14,0,1,1-2.28,0Z"/><path d="M82.9,57.56V50.12H81.57v-1h.16c1.17,0,1.32-.3,1.51-.91l.5-1.78h1V49.1h2.71v1H84.7v8.26h2.71v.7a6.35,6.35,0,0,1-2.51.46C83.4,59.56,82.9,59,82.9,57.56Z"/><path d="M89,56.87c0-2,1.25-3.06,4.74-3.06h1.46V52.32a2.21,2.21,0,0,0-2.39-2.51,4,4,0,0,0-1.67.33h0a1.16,1.16,0,0,1,.68,1.08,1.08,1.08,0,0,1-1,1.16h-.19a1.1,1.1,0,0,1-1.17-1,1.21,1.21,0,0,1,0-.19c0-1.19,1.43-2.35,4-2.35,2.21,0,3.54,1.19,3.54,3.21v6.46h1.5v.82a2.41,2.41,0,0,1-1.47.4,1.57,1.57,0,0,1-1.72-1.4,1.22,1.22,0,0,1,0-.27V58h-.1a3,3,0,0,1-3.07,1.74A2.8,2.8,0,0,1,89,56.87Zm1.61-12.14.58-.29.42.79c.28.54.74.83,1.85.83s1.57-.3,1.84-.83l.42-.79.58.29c-.4,1.18-.83,2.72-2.84,2.72S91,45.94,90.59,44.73Zm4.59,11.84v-1.9H93.9c-2.31,0-3,.66-3,1.93V57c0,1,.74,1.52,2,1.52S95.18,57.9,95.18,56.57Z"/><path d="M101.18,57.56V50.12H99.83v-1H100c1.16,0,1.33-.3,1.51-.91l.5-1.78h.94V49.1h2.71v1h-2.71v8.26h2.71v.7a6.18,6.18,0,0,1-2.51.46C101.66,59.56,101.18,59,101.18,57.56Zm2.26,5.15a1,1,0,0,1-1.18-1v-.1a1.07,1.07,0,0,1,1.1-1h.08a1.07,1.07,0,0,1,1.11,1v.27a4,4,0,0,1-1.35,2.69h-.83A4.81,4.81,0,0,0,103.44,62.71Z"/><path d="M107.25,58.47h1.54v-8l-1.51-.28v-.72l3.3-.63v9.62h1.5v1h-4.8Zm1.25-12.81v-.12a1.14,1.14,0,0,1,2.28,0v.12a1.16,1.16,0,0,1-1.24,1.05A1.14,1.14,0,0,1,108.5,45.66Z"/><path d="M118.3,58.47h1.51V50.12H118.3v-1h1.51V47.33A3.21,3.21,0,0,1,122.89,44h.26c1.52,0,2.46.59,2.46,1.67a1.11,1.11,0,0,1-1,1.19h-.08a1,1,0,0,1-1.05-1v0a.93.93,0,0,1,.56-1h0a2.45,2.45,0,0,0-.72-.08c-1.11,0-1.74.83-1.74,2.29v2h2.3v1h-2.3v8.35h1.9v1h-5.18Z"/><path d="M125.32,54.29c0-3.26,2-5.41,4.88-5.41s4.9,2.15,4.9,5.41-2,5.41-4.9,5.41S125.32,57.53,125.32,54.29Zm7.76,1.15V53.12c0-1.82-.84-3.22-2.88-3.22s-2.86,1.4-2.86,3.22v2.29c0,1.82.83,3.23,2.86,3.23s2.88-1.41,2.88-3.23Z"/><path d="M137.19,56.87c0-2,1.24-3.06,4.72-3.06h1.47V52.32A2.21,2.21,0,0,0,141,49.81a4,4,0,0,0-1.67.33h0a1.15,1.15,0,0,1,.68,1.08,1.08,1.08,0,0,1-.94,1.2h-.21a1.11,1.11,0,0,1-1.17-1,1.09,1.09,0,0,1,0-.18c0-1.19,1.42-2.35,4-2.35,2.2,0,3.52,1.19,3.52,3.21v6.46h1.51v.78a2.55,2.55,0,0,1-1.47.4,1.56,1.56,0,0,1-1.71-1.39,2.53,2.53,0,0,1,0-.28V58h-.1a3,3,0,0,1-3.07,1.74A2.82,2.82,0,0,1,137.19,56.87Zm6.19-.3v-1.9h-1.27c-2.3,0-3,.66-3,1.93V57c0,1,.74,1.52,2,1.52s2.3-.62,2.3-2Z"/><path d="M148.39,58.47h1.5v-8l-1.5-.28v-.72l3.23-.63v1.79h.1a2.76,2.76,0,0,1,2.58-1.79c1.23,0,2.07.61,2.07,1.73a1.18,1.18,0,0,1-1,1.33h-.15a1.13,1.13,0,0,1-1.25-1s0-.06,0-.09c0-.58.29-.94.6-1h0a2.17,2.17,0,0,0-.51,0,2.57,2.57,0,0,0-2.35,2.28v6.33h1.9v1h-5.19Z"/><path d="M159,57.56V50.12h-1.35v-1h.16c1.16,0,1.32-.3,1.51-.91l.5-1.78h1V49.1h2.7v1h-2.7v8.26h2.7v.7a6.1,6.1,0,0,1-2.5.46C159.45,59.56,159,59,159,57.56Z"/><path d="M165,54.29c0-3.21,2-5.41,4.73-5.41s4.48,2,4.48,4.89v.48h-7.22v.5c0,2.21,1.23,3.59,3.12,3.59a3.26,3.26,0,0,0,3.17-1.82l.7.44a4.21,4.21,0,0,1-4.18,2.74C166.71,59.68,165,57.5,165,54.29Zm2-1h5.33v-.22c0-1.8-.76-3.19-2.59-3.19s-2.74,1.33-2.74,3.13Z"/><path d="M182.29,58.47h-.07v1h-1.31V56.31h1.31v.4c0,1.13.63,1.91,2.32,1.91,1.52,0,2.4-.46,2.4-1.67a1.8,1.8,0,0,0-1.67-1.72L184,55c-2-.43-3.08-1.45-3.08-3.19s1.39-3,3.58-3c1.26,0,2.14.42,2.4,1.06H187v-.84h1.3v3.13H187V51.4c0-1-.7-1.54-2.25-1.54-1.36,0-2.16.5-2.16,1.56a1.85,1.85,0,0,0,1.67,1.76l1.16.24c2.1.45,3.17,1.41,3.17,3.17s-1.4,3-3.75,3A3,3,0,0,1,182.29,58.47Z"/><path d="M190.64,54.29c0-3.28,2.05-5.41,5-5.41,2.25,0,3.67,1.06,3.67,2.5a1.28,1.28,0,0,1-1.14,1.43H198a1.24,1.24,0,0,1-1.31-1.15v-.15a1.38,1.38,0,0,1,.91-1.3v-.06a3.52,3.52,0,0,0-1.72-.32,3.21,3.21,0,0,0-3.22,3.2c0,.05,0,.1,0,.14v1.53c0,2.15,1.2,3.57,3.12,3.57a3.15,3.15,0,0,0,3.09-1.83l.7.44a4.11,4.11,0,0,1-4.06,2.75C192.38,59.68,190.64,57.5,190.64,54.29Z"/><path d="M201.26,56.87c0-2,1.24-3.06,4.73-3.06h1.47V52.32a2.22,2.22,0,0,0-2.39-2.51,4,4,0,0,0-1.67.33h0a1.16,1.16,0,0,1,.68,1.08,1.07,1.07,0,0,1-1,1.16h-.18a1.1,1.1,0,0,1-1.17-1,1.34,1.34,0,0,1,0-.2c0-1.19,1.42-2.35,3.95-2.35,2.2,0,3.52,1.19,3.52,3.21v6.46h1.5v.82a2.5,2.5,0,0,1-1.46.4,1.55,1.55,0,0,1-1.71-1.39,1.29,1.29,0,0,1,0-.28V58h-.1a3,3,0,0,1-3.07,1.74A2.79,2.79,0,0,1,201.26,56.87Zm1.6-12.14.59-.29.42.79c.27.54.74.83,1.84.83s1.56-.3,1.85-.83l.41-.79.59.29c-.4,1.18-.84,2.72-2.85,2.72S203.26,45.94,202.86,44.73Zm4.6,11.84v-1.9h-1.29c-2.3,0-3,.66-3,1.93V57c0,1,.75,1.52,2,1.52S207.46,57.9,207.46,56.57Z"/><path d="M212.44,58.72l6-8.6H213.9v2.12h-1.3V49.1h8.11v.71l-6,8.66h4.83V56.31h1.31v3.13h-8.45Z"/><path d="M224,55.77V50.48l-1.5-.28v-.72l3.28-.63v6.78c0,1.9.77,2.85,2.43,2.85a2.18,2.18,0,0,0,2.43-2v-6l-1.51-.28v-.72l3.29-.63V58l1.51.28V59l-3.23.62V57.87h-.08a3.22,3.22,0,0,1-3.05,1.81C225,59.68,224,58.38,224,55.77Z"/><path d="M236.82,57.56V50.12h-1.34v-1h.16c1.17,0,1.33-.3,1.5-.91l.5-1.78h1V49.1h2.71v1h-2.71v8.26h2.71v.7a6.35,6.35,0,0,1-2.51.46C237.31,59.56,236.82,59,236.82,57.56Z"/><path d="M242.8,54.29c0-3.21,2-5.41,4.73-5.41s4.47,2,4.47,4.89v.48h-7.22v.5c0,2.21,1.25,3.59,3.13,3.59a3.25,3.25,0,0,0,3.17-1.82l.7.44a4.23,4.23,0,0,1-4.17,2.74C244.56,59.68,242.8,57.5,242.8,54.29Zm2-1h5.33v-.22c0-1.8-.76-3.19-2.58-3.19s-2.75,1.33-2.75,3.13Z"/><path d="M657.67,58.47h1.06l4.61-13h2.06l4.61,13h1.06v1h-4.88v-1H668l-1.25-3.58h-5.5l-1.18,3.58h1.8v1h-4.18Zm3.86-4.59h4.9L664.08,47h-.14Z"/><path d="M675.21,57.92h-.12l-1,1.52h-.65V45.63l-1.5-.28v-.72l3.29-.63v6.68h.07a3.17,3.17,0,0,1,3.09-1.78c2.61,0,4.33,1.9,4.33,5.41s-1.72,5.41-4.33,5.41A3.23,3.23,0,0,1,675.21,57.92Zm5.53-2.79V53.41c0-2-1.08-3.34-2.91-3.34-1.3,0-2.64.74-2.64,2v4.37c0,1.28,1.34,2,2.64,2C679.66,58.47,680.74,57.16,680.74,55.13Z"/><path d="M684.69,58.47h1.5v-8l-1.5-.28v-.72l3.29-.63v9.62h1.5v1h-4.79ZM686,45.67v-.12a1.15,1.15,0,0,1,2.29,0v.12a1.15,1.15,0,0,1-2.29,0Z"/><path d="M690.88,58.47h1.51V45.63l-1.51-.28v-.72l3.3-.63V58.47h1.5v1h-4.8Z"/><path d="M697.38,58.47h1.51v-8l-1.51-.28v-.72l3.29-.63v9.62h1.5v1h-4.79Zm1.24-12.81v-.12a1.15,1.15,0,0,1,2.29,0v.12a1.15,1.15,0,0,1-2.29,0Z"/><path d="M705.08,57.56V50.12h-1.34v-1h.16c1.16,0,1.32-.3,1.5-.91l.5-1.78h.93V49.1h2.71v1h-2.71v8.26h2.71v.7a6.18,6.18,0,0,1-2.51.46C705.56,59.56,705.08,59,705.08,57.56Z"/><path d="M711.16,56.87c0-2,1.23-3.06,4.72-3.06h1.47V52.32A2.21,2.21,0,0,0,715,49.81a4,4,0,0,0-1.68.33h0a1.16,1.16,0,0,1,.68,1.08,1.07,1.07,0,0,1-1,1.16h-.2a1.09,1.09,0,0,1-1.16-1,.67.67,0,0,1,0-.2c0-1.19,1.42-2.35,3.94-2.35,2.21,0,3.54,1.19,3.54,3.21v6.46h1.5v.82a2.5,2.5,0,0,1-1.46.4,1.56,1.56,0,0,1-1.72-1.4,1.22,1.22,0,0,1,0-.27V58h-.1a3,3,0,0,1-3.06,1.74A2.79,2.79,0,0,1,711.16,56.87Zm1.6-12.14.58-.29.42.79c.28.54.74.83,1.84.83s1.57-.3,1.85-.83l.42-.79.58.29c-.4,1.18-.84,2.72-2.85,2.72S713.16,45.94,712.76,44.73Zm4.59,11.84v-1.9h-1.28c-2.31,0-3,.66-3,1.93V57c0,1,.74,1.52,2,1.52s2.31-.62,2.31-2Z"/><path d="M723.34,57.56V50.12H722v-1h.16c1.17,0,1.32-.3,1.5-.91l.5-1.78h1V49.1h2.71v1h-2.71v8.26h2.71v.7a6.35,6.35,0,0,1-2.51.46C723.83,59.56,723.34,59,723.34,57.56Zm2.27,5.15a1,1,0,0,1-1.18-1v-.1a1.14,1.14,0,0,1,2.28,0v.19a4,4,0,0,1-1.35,2.69h-.83a4.7,4.7,0,0,0,1.08-1.79Z"/><path d="M729.38,58.47h1.5v-8l-1.5-.28v-.72l3.29-.63v9.62h1.51v1h-4.8Zm1.25-12.81v-.12a1.14,1.14,0,1,1,2.28,0v.12a1.13,1.13,0,0,1-1.14,1.14A1.14,1.14,0,0,1,730.63,45.66Z"/><path d="M740.47,58.47H742V50.12h-1.5v-1H742V47.33A3.22,3.22,0,0,1,745.05,44h.26c1.52,0,2.46.59,2.46,1.67a1.1,1.1,0,0,1-1,1.19h-.09a1,1,0,0,1-1-1v0a.91.91,0,0,1,.57-1h0a2.6,2.6,0,0,0-.73-.08c-1.12,0-1.75.83-1.75,2.29v2h2.37v1h-2.34v8.35h1.9v1h-5.18Z"/><path d="M747.48,54.29c0-3.26,2-5.41,4.89-5.41s4.89,2.15,4.89,5.41-2,5.41-4.89,5.41S747.48,57.53,747.48,54.29Zm7.79,1.12V53.12c0-1.82-.83-3.22-2.87-3.22s-2.86,1.4-2.86,3.22v2.29c0,1.82.83,3.23,2.86,3.23S755.27,57.23,755.27,55.41Z"/><path d="M759.37,56.87c0-2,1.24-3.06,4.73-3.06h1.46V52.32a2.21,2.21,0,0,0-2.38-2.51,4,4,0,0,0-1.67.33h0a1.15,1.15,0,0,1,.68,1.08,1.07,1.07,0,0,1-1,1.16H761a1.1,1.1,0,0,1-1.16-1v-.18c0-1.19,1.43-2.35,3.95-2.35,2.21,0,3.53,1.19,3.53,3.21v6.46h1.51v.82a2.55,2.55,0,0,1-1.47.4,1.56,1.56,0,0,1-1.72-1.39,1.31,1.31,0,0,1,0-.28V58h-.1a3,3,0,0,1-3.07,1.74A2.8,2.8,0,0,1,759.37,56.87Zm6.19-.3v-1.9h-1.28c-2.31,0-3,.66-3,1.93V57c0,1,.74,1.52,2,1.52S765.56,57.9,765.56,56.57Z"/><path d="M770.56,58.47h1.5v-8l-1.5-.28v-.72l3.22-.63v1.79h.1a2.77,2.77,0,0,1,2.59-1.79c1.22,0,2.07.61,2.07,1.73a1.19,1.19,0,0,1-1,1.33h-.15a1.14,1.14,0,0,1-1.27-1v-.1c0-.58.28-.94.6-1h0a2.26,2.26,0,0,0-.52,0,2.58,2.58,0,0,0-2.35,2.28v6.33h1.91v1h-5.19Z"/><path d="M781.17,57.56V50.12h-1.35v-1H780c1.16,0,1.33-.3,1.5-.91l.51-1.78h1V49.1h2.71v1h-2.74v8.26h2.72v.7a6.35,6.35,0,0,1-2.51.46C781.62,59.56,781.17,59,781.17,57.56Z"/><path d="M787.11,54.29c0-3.21,2-5.41,4.74-5.41s4.47,2,4.47,4.89v.48H789.1v.5c0,2.21,1.25,3.59,3.13,3.59a3.28,3.28,0,0,0,3.14-1.84l.7.43a4.22,4.22,0,0,1-4.18,2.75C788.88,59.68,787.11,57.5,787.11,54.29Zm2-1h5.33v-.22c0-1.8-.76-3.19-2.58-3.19S789.1,51.21,789.1,53Z"/><path d="M802.88,58.47h1.51v-8l-1.51-.28v-.72l3.23-.63v1.79h.11a2.8,2.8,0,0,1,2.59-1.79c1.22,0,2.07.61,2.07,1.73a1.19,1.19,0,0,1-1,1.33h-.15a1.14,1.14,0,0,1-1.26-1,.28.28,0,0,0,0-.09c0-.58.28-.94.61-1h0a2.35,2.35,0,0,0-.53,0,2.59,2.59,0,0,0-2.35,2.28v6.33h1.91v1h-5.21Z"/><path d="M812.07,58.47h1.51v-8l-1.51-.28v-.72l3.29-.63v9.62h1.51v1h-4.8Zm1.25-12.81v-.12a1.14,1.14,0,0,1,2.28,0v.12a1.16,1.16,0,0,1-1.24,1.05A1.14,1.14,0,0,1,813.32,45.66Z"/><path d="M818.55,54.29c0-3.51,1.72-5.41,4.33-5.41A3.16,3.16,0,0,1,826,50.67h.08v-5l-1.51-.28v-.72l3.29-.62v14l1.51.27v.73l-3.29.62V57.92H826a3.15,3.15,0,0,1-3.09,1.76C820.27,59.68,818.55,57.77,818.55,54.29Zm7.52,2.19V52.09c0-1.29-1.34-2-2.64-2-1.83,0-2.91,1.32-2.91,3.34v1.73c0,2,1.08,3.34,2.91,3.34,1.28,0,2.62-.74,2.62-2Z"/><path d="M831,58.47h1.5v-8L831,50.2v-.72l3.29-.63v9.62h1.5v1H831Zm1.24-12.81v-.12a1.14,1.14,0,0,1,1.24-1,1.12,1.12,0,0,1,1,1v.12a1.14,1.14,0,0,1-2.28,0Z"/><path d="M837.44,54.29c0-3.28,2-5.41,5-5.41,2.25,0,3.67,1.06,3.67,2.5A1.3,1.3,0,0,1,845,52.82h-.18a1.22,1.22,0,0,1-1.3-1.15.38.38,0,0,1,0-.15,1.39,1.39,0,0,1,.9-1.3v-.06a3.56,3.56,0,0,0-1.73-.32,3.21,3.21,0,0,0-3.21,3.2v1.67c0,2.15,1.21,3.57,3.14,3.57a3.15,3.15,0,0,0,3.08-1.83l.7.44a4.12,4.12,0,0,1-4.07,2.75C839.2,59.68,837.44,57.5,837.44,54.29Z"/><path d="M848.08,56.87c0-2,1.24-3.06,4.74-3.06h1.46V52.32a2.22,2.22,0,0,0-2.39-2.51,4,4,0,0,0-1.67.33h0a1.16,1.16,0,0,1,.67,1.08,1.07,1.07,0,0,1-1,1.16h-.19a1.11,1.11,0,0,1-1.18-1,1.21,1.21,0,0,1,0-.19c0-1.19,1.43-2.35,4-2.35C854.7,48.81,856,50,856,52v6.46h1.5v.82a2.39,2.39,0,0,1-1.47.4,1.56,1.56,0,0,1-1.71-1.39,2.53,2.53,0,0,1,0-.28V58h-.1a3,3,0,0,1-3.06,1.74A2.8,2.8,0,0,1,848.08,56.87Zm6.2-.3v-1.9H853c-2.31,0-3,.66-3,1.93V57c0,1,.75,1.52,2,1.52s2.3-.62,2.3-2Z"/><path d="M860.27,57.56V50.12h-1.34v-1h.16c1.16,0,1.32-.3,1.5-.91l.5-1.78h1V49.1h2.71v1h-2.71v8.26h2.71v.7a6.15,6.15,0,0,1-2.51.46C860.75,59.56,860.27,59,860.27,57.56Z"/><path d="M866.25,54.29c0-3.21,2-5.41,4.72-5.41s4.48,2,4.48,4.89v.48h-7.22v.5c0,2.21,1.24,3.59,3.13,3.59a3.23,3.23,0,0,0,3.16-1.82l.71.44a4.22,4.22,0,0,1-4.18,2.74C868,59.68,866.25,57.5,866.25,54.29Zm2-1h5.33v-.22c0-1.8-.76-3.19-2.59-3.19s-2.74,1.33-2.74,3.13Z"/><rect class="cls-1" x="0.21" y="465.51" width="114.13" height="39.86"/><rect class="cls-2" x="114.24" y="465.51" width="113.34" height="39.86"/><rect class="cls-3" x="227.57" y="465.51" width="113.34" height="39.86"/><rect class="cls-4" x="340.91" y="465.51" width="226.72" height="39.86"/><rect class="cls-7" x="794.29" y="465.51" width="114.11" height="39.86"/><rect class="cls-5" x="567.63" y="465.51" width="113.34" height="39.86"/><rect class="cls-6" x="680.96" y="465.51" width="113.34" height="39.86"/><path class="cls-9" d="M39.23,483.61v-1.67l9.33-4.28v1.28l-7.91,3.73v.17l7.91,3.74v1.28Zm0,5.73h9.33v1.25H39.23Z"/><path d="M141.94,493.8q1.06-2.37,2-4.77c.65-1.59,1.6-3.94,2.82-7l1.53-3.87-7,.07-.78,2.77-1.18-.2.44-4.06h9.82l.38.48q-.08.19-3.05,8.56t-3,8.57Z"/><path d="M174.1,484.15h-8.95v-1.37h8.95Z"/><path d="M180.33,493.8c.71-1.58,1.4-3.17,2-4.77s1.59-3.94,2.81-7l1.54-3.87-7,.07-.78,2.77-1.17-.2.44-4.06H188l.37.48q-.09.19-3,8.56t-3.06,8.57Z"/><path d="M200,477.41a5.12,5.12,0,0,1,1.85,2.31,8.33,8.33,0,0,1,.61,3.27,11.84,11.84,0,0,1-1.2,5.33,11.49,11.49,0,0,1-3.17,4,9.71,9.71,0,0,1-4.18,2l-.42-.83a9.79,9.79,0,0,0,4.41-2.91,10.38,10.38,0,0,0,2.27-4.6,4.71,4.71,0,0,1-1.56,1.24,4.64,4.64,0,0,1-2.16.51,4.91,4.91,0,0,1-3.77-1.45,5.45,5.45,0,0,1-1.36-3.89,6.25,6.25,0,0,1,.67-2.88,5.34,5.34,0,0,1,2-2.12,5.51,5.51,0,0,1,3-.84A5.4,5.4,0,0,1,200,477.41Zm-1.67,8.8a4.41,4.41,0,0,0,1.33-.84,2.9,2.9,0,0,0,.74-.93c0-.35,0-.61,0-.78a10.69,10.69,0,0,0-.78-4.43,2.9,2.9,0,0,0-2.89-1.67,3.06,3.06,0,0,0-1.93.65,4,4,0,0,0-1.2,1.67,5.79,5.79,0,0,0-.39,2.1,5.47,5.47,0,0,0,.91,3.49,3,3,0,0,0,2.44,1.11A4.52,4.52,0,0,0,198.33,486.21Z"/><path d="M251.53,485.4a6.66,6.66,0,0,1,2.59-2,7.36,7.36,0,0,1-2.07-1.74,4,4,0,0,1,0-4.56,4.23,4.23,0,0,1,1.8-1.41,5.92,5.92,0,0,1,2.35-.48,5.29,5.29,0,0,1,3.34,1,3.22,3.22,0,0,1,1.29,2.67,4.15,4.15,0,0,1-.79,2.4,6.8,6.8,0,0,1-2.23,2,11.6,11.6,0,0,1,2.74,2,3.32,3.32,0,0,1,1,2.44,3.72,3.72,0,0,1-.77,2.34,4.92,4.92,0,0,1-2,1.55,6.52,6.52,0,0,1-2.67.55,7.24,7.24,0,0,1-2.57-.44,4.61,4.61,0,0,1-2-1.4,3.67,3.67,0,0,1-.79-2.42A4.07,4.07,0,0,1,251.53,485.4Zm7.66,1.25a4.58,4.58,0,0,0-1.2-1.08c-.47-.3-1.13-.67-2-1.11l-1-.51a5.22,5.22,0,0,0-1.91,1.51,3.25,3.25,0,0,0-.73,2.05,3.56,3.56,0,0,0,1,2.68,4.21,4.21,0,0,0,4.45.6,3.33,3.33,0,0,0,1.29-1.09,2.67,2.67,0,0,0,.51-1.59A2.35,2.35,0,0,0,259.19,486.65Zm-5.75-6.18a5,5,0,0,0,1.24,1.1c.49.3,1.2.7,2.13,1.19a5,5,0,0,0,1.77-1.42,3.09,3.09,0,0,0,.65-1.91,3.25,3.25,0,0,0-.83-2.4,3.1,3.1,0,0,0-2.28-.84,3.5,3.5,0,0,0-2.26.77,2.56,2.56,0,0,0-.92,2A2.38,2.38,0,0,0,253.44,480.47Z"/><path d="M265.77,490.11a9.05,9.05,0,0,1-1.34-5.09,8.32,8.32,0,0,1,.78-3.7,6.14,6.14,0,0,1,2.1-2.5,5.08,5.08,0,0,1,2.92-.89,4.65,4.65,0,0,1,4.17,1.89,9,9,0,0,1,1.26,5,9.18,9.18,0,0,1-.75,3.73,6.31,6.31,0,0,1-2,2.61,4.74,4.74,0,0,1-2.92.94A4.59,4.59,0,0,1,265.77,490.11Zm7-.58a9.41,9.41,0,0,0,.88-4.46c0-4.08-1.2-6.11-3.6-6.11a3,3,0,0,0-2.81,1.54,8.27,8.27,0,0,0-.91,4.26,10.56,10.56,0,0,0,.83,4.54,2.9,2.9,0,0,0,2.79,1.83A3,3,0,0,0,272.81,489.53Z"/><path d="M288.5,485.49h-8.94v-1.34h8.94Z"/><path d="M293.45,485.4a6.72,6.72,0,0,1,2.63-2A7.43,7.43,0,0,1,294,481.7a3.71,3.71,0,0,1-.72-2.34,3.65,3.65,0,0,1,.68-2.22,4.43,4.43,0,0,1,1.8-1.41,6,6,0,0,1,2.36-.48,5.33,5.33,0,0,1,3.34,1,3.18,3.18,0,0,1,1.28,2.67,4.07,4.07,0,0,1-.78,2.4,7.13,7.13,0,0,1-2.23,2,11.6,11.6,0,0,1,2.74,2,3.37,3.37,0,0,1,1,2.44,3.73,3.73,0,0,1-.78,2.34,5,5,0,0,1-2,1.55,6.45,6.45,0,0,1-2.67.55,7.28,7.28,0,0,1-2.57-.44,4.58,4.58,0,0,1-2-1.42,3.64,3.64,0,0,1-.79-2.42A4.09,4.09,0,0,1,293.45,485.4Zm7.66,1.25a4.72,4.72,0,0,0-1.19-1.08q-.71-.45-2-1.11L297,484a5.25,5.25,0,0,0-1.92,1.51,3.37,3.37,0,0,0-.73,2.05,3.53,3.53,0,0,0,1,2.68,3.8,3.8,0,0,0,2.77,1,3.85,3.85,0,0,0,1.67-.38,3.36,3.36,0,0,0,1.3-1.09,2.59,2.59,0,0,0,.5-1.59A2.29,2.29,0,0,0,301.11,486.65Zm-5.74-6.18a4.61,4.61,0,0,0,1.23,1.1c.5.3,1.21.7,2.14,1.19a5,5,0,0,0,1.76-1.42,3.1,3.1,0,0,0,.66-1.91,3.25,3.25,0,0,0-.83-2.4,3.08,3.08,0,0,0-2.27-.84,3.45,3.45,0,0,0-2.26.77,2.54,2.54,0,0,0-.93,2A2.38,2.38,0,0,0,295.37,480.47Z"/><path d="M315.35,478.75a5.06,5.06,0,0,1,1.85,2.31,8.33,8.33,0,0,1,.61,3.27,11.88,11.88,0,0,1-1.19,5.34,11.59,11.59,0,0,1-3.19,4,10,10,0,0,1-4.18,2l-.42-.84a9.63,9.63,0,0,0,4.4-2.91,10.41,10.41,0,0,0,2.28-4.59,4.5,4.5,0,0,1-1.57,1.23,4.78,4.78,0,0,1-2.16.52A4.94,4.94,0,0,1,308,487.6a5.5,5.5,0,0,1-1.37-3.9,6.26,6.26,0,0,1,.68-2.88,5.38,5.38,0,0,1,1.95-2.12,5.47,5.47,0,0,1,3-.83A5.34,5.34,0,0,1,315.35,478.75Zm-1.67,8.8a4.45,4.45,0,0,0,1.32-.83,2.94,2.94,0,0,0,.74-.94c0-.36,0-.61,0-.77a10.64,10.64,0,0,0-.78-4.43,2.87,2.87,0,0,0-2.88-1.67,3,3,0,0,0-1.93.64,4,4,0,0,0-1.2,1.67,5.65,5.65,0,0,0-.4,2.11,5.43,5.43,0,0,0,.91,3.48,3,3,0,0,0,2.45,1.11,4.3,4.3,0,0,0,1.73-.37Z"/><path d="M424.28,477.43a5.12,5.12,0,0,1,1.85,2.31,8.33,8.33,0,0,1,.61,3.27,11.71,11.71,0,0,1-1.2,5.33,11.31,11.31,0,0,1-3.16,4,9.85,9.85,0,0,1-4.18,2l-.43-.84a9.66,9.66,0,0,0,4.41-2.91,10.52,10.52,0,0,0,2.28-4.59,4.69,4.69,0,0,1-1.57,1.22,4.63,4.63,0,0,1-2.16.53,4.91,4.91,0,0,1-3.77-1.45,5.48,5.48,0,0,1-1.37-3.9,6.15,6.15,0,0,1,.69-2.88,5.38,5.38,0,0,1,2-2.12,5.44,5.44,0,0,1,3-.83A5.31,5.31,0,0,1,424.28,477.43Zm-1.67,8.8a4.77,4.77,0,0,0,1.34-.83,3,3,0,0,0,.73-.93c0-.36,0-.62,0-.77a10.87,10.87,0,0,0-.77-4.44,2.9,2.9,0,0,0-2.89-1.67,3,3,0,0,0-1.93.64,3.94,3.94,0,0,0-1.21,1.67,5.8,5.8,0,0,0-.4,2.1,5.6,5.6,0,0,0,.91,3.49,3.05,3.05,0,0,0,2.45,1.11,4.48,4.48,0,0,0,1.73-.37Z"/><path d="M431.25,488.79a9.21,9.21,0,0,1-1.33-5.09,8.45,8.45,0,0,1,.77-3.7,6.29,6.29,0,0,1,2.1-2.5,5.08,5.08,0,0,1,2.92-.89,4.67,4.67,0,0,1,4.18,1.89,10.29,10.29,0,0,1,.51,8.77,6.23,6.23,0,0,1-2,2.61,4.85,4.85,0,0,1-2.92.94A4.62,4.62,0,0,1,431.25,488.79Zm7-.58a9.3,9.3,0,0,0,.89-4.46c0-4.07-1.2-6.1-3.6-6.11a3,3,0,0,0-2.82,1.53,8.43,8.43,0,0,0-.91,4.27,10.56,10.56,0,0,0,.87,4.54,2.91,2.91,0,0,0,2.77,1.83A3,3,0,0,0,438.29,488.21Z"/><path d="M454,484.17H445v-1.34H454Z"/><path d="M460.78,478.79a12.41,12.41,0,0,1-1.49.5,11.54,11.54,0,0,1-1.67.37l-.21-1a9.94,9.94,0,0,0,2.22-.84,9.13,9.13,0,0,0,1.9-1.24h0l1.07.22v12.71l2.91.17v.95h-7.69v-.95l3-.17Z"/><path d="M468.78,488.79a9,9,0,0,1-1.33-5.09,8.45,8.45,0,0,1,.77-3.7,6.21,6.21,0,0,1,2.1-2.5,5.08,5.08,0,0,1,2.92-.89,4.67,4.67,0,0,1,4.18,1.89,10.27,10.27,0,0,1,.51,8.74,6.33,6.33,0,0,1-2.05,2.61,4.75,4.75,0,0,1-2.91.94A4.61,4.61,0,0,1,468.78,488.79Zm7-.58a9.3,9.3,0,0,0,.89-4.46c0-4.07-1.2-6.1-3.6-6.11a3.07,3.07,0,0,0-2.82,1.53,8.33,8.33,0,0,0-.91,4.27,10.56,10.56,0,0,0,.87,4.54,2.91,2.91,0,0,0,2.78,1.83,3,3,0,0,0,2.76-1.6Z"/><path d="M490.5,477.43a5.06,5.06,0,0,1,1.85,2.31A8.13,8.13,0,0,1,493,483a11.84,11.84,0,0,1-1.2,5.33,11.34,11.34,0,0,1-3.17,4,9.88,9.88,0,0,1-4.17,2l-.42-.84a9.66,9.66,0,0,0,4.41-2.91,10.61,10.61,0,0,0,2.27-4.59,4.65,4.65,0,0,1-1.56,1.22,4.7,4.7,0,0,1-2.17.53,4.89,4.89,0,0,1-3.76-1.45,5.48,5.48,0,0,1-1.37-3.9,6.14,6.14,0,0,1,.68-2.88,5.38,5.38,0,0,1,1.95-2.12,5.45,5.45,0,0,1,3-.83A5.25,5.25,0,0,1,490.5,477.43Zm-1.67,8.8a4.58,4.58,0,0,0,1.33-.83,3.14,3.14,0,0,0,.73-.93c0-.35.05-.61.05-.77a10.71,10.71,0,0,0-.78-4.44,2.9,2.9,0,0,0-2.89-1.67,3,3,0,0,0-1.92.64,3.94,3.94,0,0,0-1.21,1.67,5.8,5.8,0,0,0-.4,2.1,5.6,5.6,0,0,0,.91,3.49,3,3,0,0,0,2.45,1.11,4.52,4.52,0,0,0,1.73-.37Z"/><path d="M588.7,478.79a15.53,15.53,0,0,1-3.16.87l-.22-1a9.76,9.76,0,0,0,2.22-.84,8.94,8.94,0,0,0,1.91-1.24h0l1.06.22v12.71l2.91.17v.95h-7.7v-.95l3-.17Z"/><path d="M598.25,478.79a13.19,13.19,0,0,1-1.5.5,11.85,11.85,0,0,1-1.67.37l-.22-1a9.94,9.94,0,0,0,2.22-.84,9.2,9.2,0,0,0,1.91-1.24h0l1.07.22v12.71l2.91.17v.95h-7.69v-.95l3-.17Z"/><path d="M606.17,488.79a9.11,9.11,0,0,1-1.32-5.09,8.31,8.31,0,0,1,.77-3.7,6.14,6.14,0,0,1,2.1-2.5,5,5,0,0,1,2.91-.89,4.65,4.65,0,0,1,4.18,1.89,10.27,10.27,0,0,1,.51,8.74,6.25,6.25,0,0,1-2.05,2.61,4.69,4.69,0,0,1-2.91.94A4.61,4.61,0,0,1,606.17,488.79Zm7-.58a9.18,9.18,0,0,0,.89-4.46c0-4.07-1.19-6.11-3.6-6.11a3,3,0,0,0-2.81,1.53,8.31,8.31,0,0,0-.92,4.27,10.57,10.57,0,0,0,.84,4.54,2.9,2.9,0,0,0,2.76,1.83A3,3,0,0,0,613.21,488.21Z"/><path d="M628.91,484.17H620v-1.34h8.95Z"/><path d="M635.71,478.79a13,13,0,0,1-1.49.5,12.4,12.4,0,0,1-1.71.37l-.23-1a9.59,9.59,0,0,0,2.22-.84,9.27,9.27,0,0,0,1.92-1.24h0l1.06.22v12.71l2.91.17v.95h-7.68v-.95l3-.17Z"/><path d="M645.21,478.79a12.87,12.87,0,0,1-1.48.5,12.53,12.53,0,0,1-1.72.37l-.22-1a9.76,9.76,0,0,0,2.22-.84,8.94,8.94,0,0,0,1.91-1.24h0l1.06.22v12.71l2.91.17v.95h-7.68v-.95l3-.17Z"/><path d="M660.84,477.43a5.06,5.06,0,0,1,1.85,2.31,8.16,8.16,0,0,1,.61,3.27,11.71,11.71,0,0,1-1.19,5.33,11.34,11.34,0,0,1-3.17,4,9.88,9.88,0,0,1-4.17,2l-.42-.84a9.63,9.63,0,0,0,4.4-2.91A10.41,10.41,0,0,0,661,486a4.56,4.56,0,0,1-1.56,1.22,4.7,4.7,0,0,1-2.17.53,4.9,4.9,0,0,1-3.76-1.45,5.48,5.48,0,0,1-1.37-3.9,6.14,6.14,0,0,1,.68-2.88,5.38,5.38,0,0,1,1.95-2.12,5.47,5.47,0,0,1,3-.83A5.23,5.23,0,0,1,660.84,477.43Zm-1.67,8.8a4.38,4.38,0,0,0,1.33-.83,3,3,0,0,0,.73-.93,6.94,6.94,0,0,0,0-.77,10.71,10.71,0,0,0-.78-4.44,2.89,2.89,0,0,0-2.88-1.67,3,3,0,0,0-1.93.64,3.94,3.94,0,0,0-1.21,1.67,5.8,5.8,0,0,0-.4,2.1,5.47,5.47,0,0,0,.91,3.49,3,3,0,0,0,2.45,1.11,4.37,4.37,0,0,0,1.78-.37Z"/><path d="M699.67,478.79a12.41,12.41,0,0,1-1.49.5,11.54,11.54,0,0,1-1.67.37l-.22-1a9.76,9.76,0,0,0,2.22-.84,8.94,8.94,0,0,0,1.91-1.24h0l1.07.22v12.71l2.91.17v.95h-7.69v-.95l3-.17Z"/><path d="M709.44,487.15a15.31,15.31,0,0,0,2.86-3.25,5.89,5.89,0,0,0,1.08-3.11,2.86,2.86,0,0,0-.78-2.08,3,3,0,0,0-2.22-.78,4.77,4.77,0,0,0-2.32.54,7.79,7.79,0,0,0-1.76,1.3l-.63-.84a7.6,7.6,0,0,1,2.2-1.62,6.24,6.24,0,0,1,3-.73,5.22,5.22,0,0,1,2.51.57,3.76,3.76,0,0,1,1.53,1.48,4.2,4.2,0,0,1,.5,2,7.26,7.26,0,0,1-2.16,4.7,21.68,21.68,0,0,1-5.32,4.27l7.17-.47.74-1.93,1,.21-.53,3.24H705.85l-.26-.76A22.39,22.39,0,0,0,709.44,487.15Z"/><path d="M720,488.79a9,9,0,0,1-1.33-5.09,8.45,8.45,0,0,1,.77-3.7,6.09,6.09,0,0,1,2.11-2.5,5,5,0,0,1,2.91-.89,4.67,4.67,0,0,1,4.18,1.89,10.27,10.27,0,0,1,.51,8.74,6.33,6.33,0,0,1-2.05,2.61,4.77,4.77,0,0,1-2.91.94A4.61,4.61,0,0,1,720,488.79Zm7-.58a9.32,9.32,0,0,0,.89-4.46c0-4.07-1.2-6.1-3.6-6.11a3.06,3.06,0,0,0-2.82,1.53,8.41,8.41,0,0,0-.91,4.27,10.43,10.43,0,0,0,.88,4.54,2.9,2.9,0,0,0,2.76,1.83A3,3,0,0,0,727,488.21Z"/><path d="M742.24,484.17H733.3v-1.34h8.94Z"/><path d="M748.59,478.79a14.59,14.59,0,0,1-3.2.87l-.21-1a9.94,9.94,0,0,0,2.22-.84,9.13,9.13,0,0,0,1.9-1.24h0l1.07.22v12.71l2.91.17v.95h-7.69v-.95l3-.17Z"/><path d="M758.36,487.15a15.56,15.56,0,0,0,2.86-3.25,5.89,5.89,0,0,0,1.08-3.11,2.82,2.82,0,0,0-.78-2.08,3,3,0,0,0-2.22-.78,4.77,4.77,0,0,0-2.32.54,7.79,7.79,0,0,0-1.76,1.3l-.63-.84a7.47,7.47,0,0,1,2.2-1.62,6.24,6.24,0,0,1,3-.73,5.24,5.24,0,0,1,2.55.57,3.7,3.7,0,0,1,1.53,1.48,4.08,4.08,0,0,1,.5,2,7.16,7.16,0,0,1-2.16,4.7,21.5,21.5,0,0,1-5.32,4.27l7.17-.47.73-1.93,1,.21-.53,3.24H754.76l-.25-.76A23,23,0,0,0,758.36,487.15Z"/><path d="M776.53,477.43a5.14,5.14,0,0,1,1.86,2.31A8.71,8.71,0,0,1,779,483a11.72,11.72,0,0,1-1.21,5.33,11.49,11.49,0,0,1-3.15,4,10,10,0,0,1-4.18,2l-.43-.84a9.66,9.66,0,0,0,4.41-2.91,10.52,10.52,0,0,0,2.28-4.59,4.45,4.45,0,0,1-1.57,1.22,4.63,4.63,0,0,1-2.16.53,4.91,4.91,0,0,1-3.77-1.45,5.54,5.54,0,0,1-1.36-3.9,6.14,6.14,0,0,1,.68-2.88,5.38,5.38,0,0,1,2-2.12,5.44,5.44,0,0,1,3-.83A5.26,5.26,0,0,1,776.53,477.43Zm-1.67,8.8a4.77,4.77,0,0,0,1.34-.83,3,3,0,0,0,.73-.93c0-.36,0-.62,0-.77a10.7,10.7,0,0,0-.77-4.44,2.9,2.9,0,0,0-2.89-1.67,3,3,0,0,0-1.93.64,3.84,3.84,0,0,0-1.2,1.67,5.8,5.8,0,0,0-.4,2.1,5.47,5.47,0,0,0,.91,3.49,3,3,0,0,0,2.44,1.11,4.48,4.48,0,0,0,1.73-.37Z"/><path class="cls-9" d="M828.43,486.71l7.91-3.72v-.21l-7.91-3.73v-1.29l9.33,4.29v1.67L828.43,488Zm0,2.73h9.33v1.25h-9.33Z"/><path class="cls-9" d="M844.06,478.85a14.43,14.43,0,0,1-1.49.49,13,13,0,0,1-1.67.37l-.21-1a9.68,9.68,0,0,0,2.21-.84,8.94,8.94,0,0,0,1.91-1.24h0l1.06.22v12.7l2.92.18v.95H841.1v-.95l3-.18Z"/><path class="cls-9" d="M850.73,494.06v-1a5.91,5.91,0,0,0,1.57.17,8.21,8.21,0,0,0,3.25-.58,4.9,4.9,0,0,0,2.09-1.59,3.65,3.65,0,0,0,.72-2.18,3.11,3.11,0,0,0-1-2.43,4.51,4.51,0,0,0-3-.9,4.72,4.72,0,0,1-1,.26l-.47.14-.33-1.06a8.8,8.8,0,0,0,1.73-.51,6.32,6.32,0,0,0,2.38-1.67,3.35,3.35,0,0,0,.93-2.24,2.33,2.33,0,0,0-.79-1.95,3.27,3.27,0,0,0-2-.61,5.73,5.73,0,0,0-2,.37,6.34,6.34,0,0,0-1.67.92l-.49-.84a7.15,7.15,0,0,1,4.6-1.77,5.29,5.29,0,0,1,3.14.83,3.08,3.08,0,0,1,1.21,2.67,3.71,3.71,0,0,1-.6,2,6.33,6.33,0,0,1-1.55,1.67,7.23,7.23,0,0,1-2,1.1h.59a5.15,5.15,0,0,1,2.32.49,3.69,3.69,0,0,1,1.51,1.34,3.48,3.48,0,0,1,.53,1.85,4.7,4.7,0,0,1-1,2.93,6.39,6.39,0,0,1-2.75,2,10.9,10.9,0,0,1-4.11.72A7.78,7.78,0,0,1,850.73,494.06Z"/><path class="cls-9" d="M864.38,488.84a9.12,9.12,0,0,1-1.33-5.09,8.41,8.41,0,0,1,.77-3.69,6.14,6.14,0,0,1,2.1-2.5,5.16,5.16,0,0,1,2.92-.9,4.68,4.68,0,0,1,4.18,1.89,10.23,10.23,0,0,1,.52,8.74,6.4,6.4,0,0,1-2,2.61,4.87,4.87,0,0,1-2.92.94A4.61,4.61,0,0,1,864.38,488.84Zm7-.58a9.27,9.27,0,0,0,.89-4.46q0-6.1-3.6-6.1a3,3,0,0,0-2.82,1.53,8.27,8.27,0,0,0-.91,4.26,10.56,10.56,0,0,0,.87,4.54,2.92,2.92,0,0,0,2.77,1.84A3,3,0,0,0,871.42,488.26Z"/><path d="M151.9,490.11a9.21,9.21,0,0,1-1.34-5.09,8.13,8.13,0,0,1,.79-3.69,6.07,6.07,0,0,1,2.09-2.51,5.15,5.15,0,0,1,2.92-.89,4.63,4.63,0,0,1,4.17,1.89,10.29,10.29,0,0,1,.51,8.77,6.23,6.23,0,0,1-2,2.61,5,5,0,0,1-2.92.95A4.63,4.63,0,0,1,151.9,490.11Zm7-.58a9.27,9.27,0,0,0,.88-4.46c0-4.07-1.19-6.1-3.6-6.1a3,3,0,0,0-2.81,1.52,8.31,8.31,0,0,0-.91,4.26,10.47,10.47,0,0,0,.88,4.55,2.9,2.9,0,0,0,2.76,1.84A3,3,0,0,0,158.94,489.53Z"/><path class="cls-9" d="M73.72,478.41a5.08,5.08,0,0,1,1.86,2.31,8.33,8.33,0,0,1,.61,3.27A11.69,11.69,0,0,1,75,489.32a11.35,11.35,0,0,1-3.16,4,9.76,9.76,0,0,1-4.18,2l-.42-.83a9.79,9.79,0,0,0,4.41-2.91A10.48,10.48,0,0,0,73.9,487a4.71,4.71,0,0,1-1.56,1.24,4.65,4.65,0,0,1-2.17.51,4.9,4.9,0,0,1-3.76-1.45,5.41,5.41,0,0,1-1.36-3.89,6.25,6.25,0,0,1,.67-2.88,5.33,5.33,0,0,1,2-2.12,5.51,5.51,0,0,1,3-.84A5.34,5.34,0,0,1,73.72,478.41Zm-1.67,8.8a4.45,4.45,0,0,0,1.34-.84,3,3,0,0,0,.73-.93c0-.35,0-.61,0-.78a10.78,10.78,0,0,0-.78-4.42,2.89,2.89,0,0,0-2.89-1.68,3.06,3.06,0,0,0-1.93.65,4,4,0,0,0-1.2,1.67A5.8,5.8,0,0,0,67,483a5.42,5.42,0,0,0,.92,3.49,3,3,0,0,0,2.43,1.11A4.44,4.44,0,0,0,72.05,487.21Z"/><path class="cls-9" d="M53.69,491.74a5.08,5.08,0,0,1-1.86-2.31,8.33,8.33,0,0,1-.61-3.27,11.84,11.84,0,0,1,1.2-5.33,11.49,11.49,0,0,1,3.17-4,9.76,9.76,0,0,1,4.18-2l.42.83a9.79,9.79,0,0,0-4.41,2.91,10.48,10.48,0,0,0-2.27,4.6A4.71,4.71,0,0,1,55.07,482a4.65,4.65,0,0,1,2.17-.51A4.9,4.9,0,0,1,61,482.9a5.41,5.41,0,0,1,1.36,3.89,6.25,6.25,0,0,1-.67,2.88,5.27,5.27,0,0,1-2,2.12,5.51,5.51,0,0,1-3,.84A5.27,5.27,0,0,1,53.69,491.74Zm1.67-8.8a4.45,4.45,0,0,0-1.34.84,3,3,0,0,0-.73.93c0,.35,0,.61,0,.78a10.86,10.86,0,0,0,.78,4.43,2.9,2.9,0,0,0,2.89,1.67,3.06,3.06,0,0,0,1.93-.65,4,4,0,0,0,1.2-1.67,5.79,5.79,0,0,0,.39-2.1,5.35,5.35,0,0,0-.91-3.49,3,3,0,0,0-2.43-1.11A4.44,4.44,0,0,0,55.36,482.94Z"/></g></g></svg>