<svg xmlns="http://www.w3.org/2000/svg" viewBox="0 0 1087.5 605.05"><title>Asset 7</title><g id="Layer_2" data-name="Layer 2"><g id="Layer_1-2" data-name="Layer 1"><polygon points="330.9 338.71 329.35 340.94 327.8 343.15 329.35 340.94 330.9 338.71"/><polygon points="357.31 298.89 358.87 296.46 357.31 298.89 355.76 301.32 354.2 303.75 355.76 301.32 357.31 298.89"/><polygon points="366.63 284.14 365.08 286.62 363.52 289.09 365.08 286.62 366.63 284.14"/><polygon points="400.81 228.78 399.25 231.3 397.7 233.81 399.25 231.3 400.81 228.78"/><polygon points="408.02 217.18 407.77 217.58 408.02 217.58 408.02 217.18"/><polygon points="641.6 159.98 643.15 162.15 644.71 164.33 646.26 166.53 647.81 168.75 648.59 169.88 647.81 168.75 646.26 166.53 644.71 164.33 643.15 162.15 641.6 159.98 640.05 157.84 639.27 156.78 640.05 157.84 641.6 159.98"/><polygon points="621.4 133.93 622.96 135.78 624.51 137.66 626.06 139.57 627.62 141.5 628.39 142.48 627.62 141.5 626.06 139.57 624.51 137.66 622.96 135.78 621.4 133.93 619.85 132.11 619.07 131.21 619.85 132.11 621.4 133.93"/><polygon points="661.79 189.51 663.35 191.89 664.9 194.28 666.46 196.69 668.01 199.1 668.78 200.32 668.01 199.1 666.46 196.69 664.9 194.28 663.35 191.89 661.79 189.51 660.24 187.14 659.46 185.97 660.24 187.14 661.79 189.51"/><polygon points="417.9 201.53 416.34 203.97 414.79 206.41 416.34 203.97 417.9 201.53"/><polygon points="472.27 126.8 470.72 128.54 469.16 130.31 470.72 128.54 472.27 126.8"/><polygon points="585.67 99.87 587.23 100.97 585.67 99.87 584.12 98.8 582.57 97.78 584.12 98.8 585.67 99.87"/><polygon points="411.68 211.34 413.24 208.87 414.79 206.41 413.24 208.87 411.68 211.34 410.13 213.81 408.58 216.29 410.13 213.81 411.68 211.34"/><polygon points="483.14 115.48 481.59 117 480.04 118.55 481.59 117 483.14 115.48"/><polygon points="490.91 108.36 489.36 109.72 487.8 111.11 489.36 109.72 490.91 108.36"/><polygon points="424.11 191.89 422.56 194.28 421 196.69 422.56 194.28 424.11 191.89"/><polygon points="599.65 111.11 601.21 112.53 602.76 113.99 604.32 115.48 605.87 117 607.42 118.55 608.2 119.35 607.42 118.55 605.87 117 604.32 115.48 602.76 113.99 601.21 112.53 599.65 111.11 598.1 109.72 597.9 109.54 598.1 109.72 599.65 111.11"/><polygon points="610.53 121.76 612.08 123.41 613.64 125.09 615.19 126.8 616.74 128.54 618.3 130.31 619.07 131.21 618.3 130.31 616.74 128.54 615.19 126.8 613.64 125.09 612.08 123.41 610.53 121.76 608.98 120.14 608.2 119.35 608.98 120.14 610.53 121.76"/><polygon points="593.44 105.76 595 107.04 596.55 108.36 597.9 109.54 596.55 108.36 595 107.04 593.44 105.76 591.89 104.51 590.33 103.29 591.89 104.51 593.44 105.76"/><polygon points="650.92 173.25 652.47 175.53 654.03 177.82 655.58 180.13 657.13 182.45 658.69 184.79 659.46 185.97 658.69 184.79 657.13 182.45 655.58 180.13 654.03 177.82 652.47 175.53 650.92 173.25 649.37 171 648.59 169.88 649.37 171 650.92 173.25"/><polygon points="671.12 203.97 672.67 206.41 674.22 208.87 675.78 211.34 677.33 213.81 678.88 216.29 679.46 217.21 679.46 217.21 678.88 216.29 677.33 213.81 675.78 211.34 674.22 208.87 672.67 206.41 671.12 203.97 669.56 201.53 668.78 200.32 669.56 201.53 671.12 203.97"/><polygon points="630.73 145.44 632.28 147.45 633.83 149.48 635.38 151.54 636.94 153.62 638.49 155.72 639.27 156.78 638.49 155.72 636.94 153.62 635.38 151.54 633.83 149.48 632.28 147.45 630.73 145.44 629.17 143.46 628.39 142.48 629.17 143.46 630.73 145.44"/><polygon points="679.69 217.58 679.66 217.53 679.69 217.58 679.69 217.58"/><polygon points="681.99 221.27 683.54 223.77 685.1 226.27 686.65 228.78 688.2 231.3 689.16 232.85 688.2 231.3 686.65 228.78 685.1 226.27 683.54 223.77 681.99 221.27 680.46 218.81 680.46 218.81 681.99 221.27"/><polygon points="722.38 286.62 723.93 289.09 725.49 291.55 727.04 294.01 728.59 296.46 729.73 298.25 728.59 296.46 727.04 294.01 725.49 291.55 723.93 289.09 722.38 286.62 720.83 284.14 720.05 282.9 720.83 284.14 722.38 286.62"/><polygon points="742.58 318.06 744.13 320.4 745.68 322.74 747.24 325.06 748.79 327.37 750.34 329.66 751.12 330.8 750.34 329.66 748.79 327.37 747.24 325.06 745.68 322.74 744.13 320.4 742.58 318.06 741.02 315.7 740.25 314.51 741.02 315.7 742.58 318.06"/><polygon points="702.18 254.02 703.74 256.55 705.29 259.07 706.85 261.6 708.4 264.12 709.18 265.38 708.4 264.12 706.85 261.6 705.29 259.07 703.74 256.55 702.18 254.02 700.63 251.49 699.86 250.23 700.63 251.49 702.18 254.02"/><polygon points="731.7 301.32 733.25 303.75 734.81 306.16 736.36 308.56 737.91 310.95 739.47 313.33 740.25 314.51 739.47 313.33 737.91 310.95 736.36 308.56 734.81 306.16 733.25 303.75 731.7 301.32 730.15 298.89 729.73 298.25 730.15 298.89 731.7 301.32"/><polygon points="691.31 236.34 692.86 238.86 694.42 241.38 695.97 243.91 697.52 246.44 699.08 248.97 699.86 250.23 699.08 248.97 697.52 246.44 695.97 243.91 694.42 241.38 692.86 238.86 691.31 236.34 689.76 233.81 689.16 232.85 689.76 233.81 691.31 236.34"/><polygon points="711.51 269.15 713.06 271.66 714.61 274.17 716.17 276.67 717.72 279.16 719.27 281.65 720.05 282.9 719.27 281.65 717.72 279.16 716.17 276.67 714.61 274.17 713.06 271.66 711.51 269.15 709.95 266.64 709.18 265.38 709.95 266.64 711.51 269.15"/><polygon points="679.46 217.58 679.69 217.58 679.66 217.53 679.46 217.21 679.46 217.58"/><polygon points="753.45 334.21 755 336.47 756.56 338.71 758.11 340.94 759.66 343.15 760.44 344.25 759.66 343.15 758.11 340.94 756.56 338.71 755 336.47 753.45 334.21 751.9 331.95 751.12 330.8 751.9 331.95 753.45 334.21"/><polygon points="679.66 217.53 679.46 217.21 679.46 217.21 679.66 217.53"/><polygon points="680.44 218.78 680.46 218.81 680.46 218.81 680.44 218.78 679.69 217.58 679.69 217.58 680.44 218.78"/><polygon points="762.77 347.53 764.32 349.7 765.88 351.85 767.43 353.99 768.99 356.11 770.54 358.21 771.32 359.26 770.54 358.21 768.99 356.11 767.43 353.99 765.88 351.85 764.33 349.7 762.77 347.53 761.22 345.35 760.44 344.25 761.22 345.35 762.77 347.53"/><polygon points="773.64 362.37 775.2 364.43 776.75 366.47 778.31 368.49 779.86 370.49 780.64 371.49 779.86 370.49 778.31 368.49 776.75 366.47 775.2 364.43 773.65 362.37 772.09 360.3 771.32 359.26 772.09 360.3 773.64 362.37"/><rect x="0.01" y="557.33" width="136.64" height="47.72" style="fill:#e15a5a"/><rect x="136.53" y="557.33" width="135.69" height="47.72" style="fill:#f5cacb"/><rect x="272.21" y="557.33" width="135.69" height="47.72" style="fill:#fbe4cb"/><rect x="407.9" y="557.33" width="271.44" height="47.72" style="fill:#d8eecf"/><rect x="950.71" y="557.33" width="136.62" height="47.72" style="fill:#6aae46"/><rect x="679.34" y="557.33" width="135.69" height="47.72" style="fill:#bce4a7"/><rect x="815.03" y="557.33" width="135.69" height="47.72" style="fill:#a0d57f"/><path d="M46.72,579v-2l11.17-5.13v1.54l-9.47,4.46v.21l9.47,4.47v1.54Zm0,6.86H57.89v1.49H46.72Z" style="fill:#fff"/><path d="M64.77,591.18q1.28-2.85,2.45-5.72c.78-1.91,1.9-4.71,3.38-8.4l1.83-4.63-8.4.08-.93,3.33-1.41-.24.53-4.87H74l.45.59q-.11.21-3.64,10.23t-3.67,10.27Z" style="fill:#fff"/><path d="M79.13,585.14a11,11,0,0,1-1.6-6.09,9.91,9.91,0,0,1,.94-4.42,7.28,7.28,0,0,1,2.51-3,6.11,6.11,0,0,1,3.49-1.07c2.33,0,4,.76,5,2.26a12.34,12.34,0,0,1,.61,10.5,7.59,7.59,0,0,1-2.45,3.13,5.8,5.8,0,0,1-3.49,1.13A5.54,5.54,0,0,1,79.13,585.14Zm8.43-.69a11.11,11.11,0,0,0,1.06-5.34c0-4.88-1.43-7.31-4.31-7.31a3.64,3.64,0,0,0-3.37,1.83,10,10,0,0,0-1.09,5.1,12.53,12.53,0,0,0,1.05,5.44,3.47,3.47,0,0,0,3.31,2.2A3.57,3.57,0,0,0,87.56,584.45Z" style="fill:#fff"/><path d="M170.89,591.2c.85-1.89,1.66-3.8,2.44-5.71s1.91-4.72,3.38-8.4l1.83-4.63-8.4.08-.93,3.32-1.41-.24.53-4.86h11.75l.46.58q-.1.23-3.65,10.24t-3.66,10.26Z"/><path d="M187.08,573.21c-.38.15-1,.35-1.78.58a14.77,14.77,0,0,1-2.05.45L183,573a11.91,11.91,0,0,0,5-2.44h0l1.28.26V586l3.48.21v1.15h-9.2v-1.15l3.57-.21Z"/><path d="M207,579.64H196.28V578H207Z"/><path d="M214.46,591.2c.85-1.89,1.67-3.8,2.45-5.71s1.9-4.72,3.37-8.4l1.84-4.63-8.41.08-.93,3.32-1.4-.24.53-4.86h11.75l.45.58q-.11.23-3.64,10.24t-3.67,10.26Z"/><path d="M238,571.57a6.16,6.16,0,0,1,2.22,2.77,10,10,0,0,1,.73,3.92,14.13,14.13,0,0,1-1.44,6.38,13.75,13.75,0,0,1-3.79,4.76,11.73,11.73,0,0,1-5,2.39l-.51-1a11.72,11.72,0,0,0,5.28-3.48,12.54,12.54,0,0,0,2.72-5.51,5.5,5.5,0,0,1-1.87,1.48,5.65,5.65,0,0,1-2.59.62,5.88,5.88,0,0,1-4.51-1.74,6.54,6.54,0,0,1-1.63-4.66,7.49,7.49,0,0,1,.81-3.45,6.42,6.42,0,0,1,2.34-2.54,6.66,6.66,0,0,1,3.57-1A6.4,6.4,0,0,1,238,571.57Zm-2,10.54a5.35,5.35,0,0,0,1.6-1,3.64,3.64,0,0,0,.88-1.12c0-.42.05-.73.05-.93a12.82,12.82,0,0,0-.93-5.3,3.45,3.45,0,0,0-3.46-2,3.6,3.6,0,0,0-2.31.77,4.8,4.8,0,0,0-1.44,2,7,7,0,0,0-.47,2.52,6.5,6.5,0,0,0,1.09,4.17,3.56,3.56,0,0,0,2.92,1.33A5.23,5.23,0,0,0,236,582.11Z"/><path d="M300.9,581.14A7.92,7.92,0,0,1,304,578.8a8.84,8.84,0,0,1-2.48-2.09,4.81,4.81,0,0,1,0-5.46,5.15,5.15,0,0,1,2.15-1.69,7.11,7.11,0,0,1,2.82-.57,6.32,6.32,0,0,1,4,1.2,3.84,3.84,0,0,1,1.54,3.19,5,5,0,0,1-.94,2.88,8.32,8.32,0,0,1-2.68,2.36,13.78,13.78,0,0,1,3.29,2.36,4.05,4.05,0,0,1,1.15,2.93,4.47,4.47,0,0,1-.93,2.8,6,6,0,0,1-2.43,1.86,7.86,7.86,0,0,1-3.2.65,8.69,8.69,0,0,1-3.07-.53,5.47,5.47,0,0,1-2.4-1.67,4.41,4.41,0,0,1-.94-2.9A4.83,4.83,0,0,1,300.9,581.14Zm9.17,1.5a5.63,5.63,0,0,0-1.44-1.3c-.56-.36-1.35-.8-2.36-1.32l-1.15-.61a6.12,6.12,0,0,0-2.28,1.8,3.89,3.89,0,0,0-.88,2.46,4.27,4.27,0,0,0,1.22,3.2,4.59,4.59,0,0,0,3.33,1.18,4.5,4.5,0,0,0,2-.46,4,4,0,0,0,1.55-1.3,3.21,3.21,0,0,0,.6-1.91A2.78,2.78,0,0,0,310.07,582.64Zm-6.89-7.4a6.11,6.11,0,0,0,1.49,1.32c.59.36,1.44.83,2.55,1.42a6,6,0,0,0,2.12-1.7,3.75,3.75,0,0,0,.78-2.29,3.92,3.92,0,0,0-1-2.87,3.66,3.66,0,0,0-2.73-1,4.11,4.11,0,0,0-2.7.92,3,3,0,0,0-1.1,2.43A2.81,2.81,0,0,0,303.18,575.24Z"/><path d="M317.94,586.78a10.87,10.87,0,0,1-1.6-6.09,10.09,10.09,0,0,1,.93-4.43,7.37,7.37,0,0,1,2.52-3,6.11,6.11,0,0,1,3.49-1.06q3.48,0,5,2.26a10.77,10.77,0,0,1,1.5,6,10.91,10.91,0,0,1-.89,4.47,7.57,7.57,0,0,1-2.45,3.12,5.74,5.74,0,0,1-3.49,1.13A5.53,5.53,0,0,1,317.94,586.78Zm8.43-.69a11.24,11.24,0,0,0,1.06-5.35q0-7.31-4.31-7.31a3.63,3.63,0,0,0-3.37,1.84,10,10,0,0,0-1.09,5.1,12.59,12.59,0,0,0,1,5.44A3.46,3.46,0,0,0,323,588,3.58,3.58,0,0,0,326.37,586.09Z"/><path d="M345.16,581.25H334.45v-1.6h10.71Z"/><path d="M351.09,581.14a8,8,0,0,1,3.14-2.34,9,9,0,0,1-2.49-2.09,4.43,4.43,0,0,1-.86-2.8,4.36,4.36,0,0,1,.82-2.66,5.21,5.21,0,0,1,2.15-1.69,7.11,7.11,0,0,1,2.82-.57,6.32,6.32,0,0,1,4,1.2,3.82,3.82,0,0,1,1.54,3.19,4.88,4.88,0,0,1-.94,2.88,8.39,8.39,0,0,1-2.67,2.36,13.7,13.7,0,0,1,3.28,2.36,4.06,4.06,0,0,1,1.16,2.93,4.47,4.47,0,0,1-.93,2.8,6,6,0,0,1-2.44,1.86,7.86,7.86,0,0,1-3.2.65,8.73,8.73,0,0,1-3.07-.53A5.44,5.44,0,0,1,351,587a4.42,4.42,0,0,1-.95-2.9A4.89,4.89,0,0,1,351.09,581.14Zm9.17,1.5a5.75,5.75,0,0,0-1.43-1.3q-.85-.54-2.37-1.32l-1.14-.61a6.23,6.23,0,0,0-2.29,1.8,4,4,0,0,0-.88,2.46,4.24,4.24,0,0,0,1.23,3.2,4.55,4.55,0,0,0,3.32,1.18,4.47,4.47,0,0,0,2-.46,4.13,4.13,0,0,0,1.56-1.3,3.21,3.21,0,0,0,.6-1.91A2.79,2.79,0,0,0,360.26,582.64Zm-6.88-7.4a5.89,5.89,0,0,0,1.48,1.32c.59.36,1.44.83,2.56,1.42a6,6,0,0,0,2.11-1.7,3.76,3.76,0,0,0,.79-2.29,3.92,3.92,0,0,0-1-2.87,3.65,3.65,0,0,0-2.72-1,4.07,4.07,0,0,0-2.7.92,3,3,0,0,0-1.11,2.43A2.82,2.82,0,0,0,353.38,575.24Z"/><path d="M377.3,573.18a6.06,6.06,0,0,1,2.22,2.76,10,10,0,0,1,.73,3.92,14.17,14.17,0,0,1-1.43,6.39A13.73,13.73,0,0,1,375,591a11.84,11.84,0,0,1-5,2.4l-.5-1a11.57,11.57,0,0,0,5.27-3.49,12.52,12.52,0,0,0,2.73-5.5,5.55,5.55,0,0,1-1.88,1.48,5.62,5.62,0,0,1-2.59.62,5.88,5.88,0,0,1-4.5-1.74,6.55,6.55,0,0,1-1.64-4.67,7.45,7.45,0,0,1,.81-3.44,6.42,6.42,0,0,1,2.34-2.54,6.59,6.59,0,0,1,3.58-1A6.37,6.37,0,0,1,377.3,573.18Zm-2,10.54a5.37,5.37,0,0,0,1.59-1,3.6,3.6,0,0,0,.88-1.12c0-.43.05-.74.05-.93a12.82,12.82,0,0,0-.93-5.3,3.45,3.45,0,0,0-3.45-2,3.56,3.56,0,0,0-2.31.77,4.8,4.8,0,0,0-1.44,2,6.8,6.8,0,0,0-.48,2.52,6.52,6.52,0,0,0,1.09,4.17,3.58,3.58,0,0,0,2.93,1.33A5.27,5.27,0,0,0,375.31,583.72Z"/><path d="M507.72,571.6a6.19,6.19,0,0,1,2.22,2.76,10.18,10.18,0,0,1,.73,3.92,14.1,14.1,0,0,1-1.44,6.38,13.68,13.68,0,0,1-3.79,4.76,11.81,11.81,0,0,1-5,2.4l-.51-1a11.66,11.66,0,0,0,5.28-3.49,12.61,12.61,0,0,0,2.72-5.5,5.46,5.46,0,0,1-1.87,1.47,5.54,5.54,0,0,1-2.59.63,5.88,5.88,0,0,1-4.51-1.74,6.55,6.55,0,0,1-1.64-4.67,7.31,7.31,0,0,1,.82-3.44,6.42,6.42,0,0,1,2.34-2.54,6.55,6.55,0,0,1,3.57-1A6.35,6.35,0,0,1,507.72,571.6Zm-2,10.54a5.58,5.58,0,0,0,1.6-1,3.73,3.73,0,0,0,.88-1.11c0-.43.05-.74.05-.93a12.9,12.9,0,0,0-.93-5.31,3.46,3.46,0,0,0-3.46-2,3.6,3.6,0,0,0-2.31.77,4.67,4.67,0,0,0-1.44,2,6.79,6.79,0,0,0-.48,2.51,6.6,6.6,0,0,0,1.09,4.18,3.63,3.63,0,0,0,2.93,1.33A5.45,5.45,0,0,0,505.72,582.14Z"/><path d="M516.06,585.2a11,11,0,0,1-1.59-6.09,10.09,10.09,0,0,1,.93-4.43,7.42,7.42,0,0,1,2.51-3,6.14,6.14,0,0,1,3.5-1.06q3.48,0,5,2.26a12.34,12.34,0,0,1,.61,10.5,7.47,7.47,0,0,1-2.44,3.12,5.76,5.76,0,0,1-3.5,1.13A5.54,5.54,0,0,1,516.06,585.2Zm8.43-.7a11,11,0,0,0,1.07-5.34q0-7.3-4.31-7.31a3.66,3.66,0,0,0-3.38,1.83,10.13,10.13,0,0,0-1.09,5.11,12.59,12.59,0,0,0,1.05,5.44,3.47,3.47,0,0,0,3.31,2.19A3.56,3.56,0,0,0,524.49,584.5Z"/><path d="M543.29,579.67H532.57v-1.6h10.72Z"/><path d="M551.42,573.23a15.11,15.11,0,0,1-1.78.59,14.47,14.47,0,0,1-2,.45l-.26-1.25a11.54,11.54,0,0,0,2.66-1,10.83,10.83,0,0,0,2.28-1.49h0l1.28.27v15.21l3.48.21v1.14h-9.2v-1.14l3.56-.21Z"/><path d="M561,585.2a10.87,10.87,0,0,1-1.6-6.09,10.09,10.09,0,0,1,.93-4.43,7.42,7.42,0,0,1,2.51-3,6.14,6.14,0,0,1,3.5-1.06q3.48,0,5,2.26a10.75,10.75,0,0,1,1.5,6,10.91,10.91,0,0,1-.89,4.47,7.57,7.57,0,0,1-2.45,3.12,5.76,5.76,0,0,1-3.49,1.13A5.53,5.53,0,0,1,561,585.2Zm8.42-.7a11,11,0,0,0,1.07-5.34q0-7.3-4.31-7.31a3.67,3.67,0,0,0-3.38,1.83,10.13,10.13,0,0,0-1.09,5.11,12.59,12.59,0,0,0,1.05,5.44,3.48,3.48,0,0,0,3.32,2.19A3.54,3.54,0,0,0,569.39,584.5Z"/><path d="M587,571.6a6.06,6.06,0,0,1,2.22,2.76,10,10,0,0,1,.74,3.92,14.1,14.1,0,0,1-1.44,6.38,13.68,13.68,0,0,1-3.79,4.76,11.84,11.84,0,0,1-5,2.4l-.5-1a11.66,11.66,0,0,0,5.28-3.49,12.61,12.61,0,0,0,2.72-5.5,5.46,5.46,0,0,1-1.87,1.47,5.55,5.55,0,0,1-2.6.63,5.88,5.88,0,0,1-4.5-1.74,6.55,6.55,0,0,1-1.64-4.67,7.42,7.42,0,0,1,.81-3.44,6.42,6.42,0,0,1,2.34-2.54,6.59,6.59,0,0,1,3.58-1A6.3,6.3,0,0,1,587,571.6Zm-2,10.54a5.58,5.58,0,0,0,1.6-1,3.68,3.68,0,0,0,.87-1.11q.06-.64.06-.93a12.9,12.9,0,0,0-.93-5.31,3.47,3.47,0,0,0-3.46-2,3.6,3.6,0,0,0-2.31.77,4.67,4.67,0,0,0-1.44,2,6.79,6.79,0,0,0-.48,2.51,6.6,6.6,0,0,0,1.09,4.18,3.61,3.61,0,0,0,2.93,1.33A5.45,5.45,0,0,0,585,582.14Z"/><path d="M704.57,573.23a15.79,15.79,0,0,1-1.78.59,14.77,14.77,0,0,1-2,.45l-.27-1.25a11.22,11.22,0,0,0,2.66-1,10.91,10.91,0,0,0,2.29-1.49h0l1.27.27v15.21l3.48.21v1.14H701v-1.14l3.57-.21Z"/><path d="M716,573.23a16.12,16.12,0,0,1-1.79.59,14.38,14.38,0,0,1-2,.45l-.27-1.25a11.37,11.37,0,0,0,2.66-1,10.91,10.91,0,0,0,2.29-1.49h0l1.28.27v15.21l3.48.21v1.14h-9.2v-1.14l3.57-.21Z"/><path d="M725.49,585.2a11,11,0,0,1-1.59-6.09,10,10,0,0,1,.93-4.43,7.35,7.35,0,0,1,2.51-3,6.11,6.11,0,0,1,3.49-1.06q3.49,0,5,2.26a10.75,10.75,0,0,1,1.5,6,10.91,10.91,0,0,1-.89,4.47,7.49,7.49,0,0,1-2.45,3.12,5.74,5.74,0,0,1-3.49,1.13A5.53,5.53,0,0,1,725.49,585.2Zm8.43-.7a11.06,11.06,0,0,0,1.06-5.34c0-4.87-1.43-7.31-4.31-7.31a3.64,3.64,0,0,0-3.37,1.83,10,10,0,0,0-1.09,5.11,12.59,12.59,0,0,0,1,5.44,3.46,3.46,0,0,0,3.31,2.19A3.57,3.57,0,0,0,733.92,584.5Z"/><path d="M752.71,579.67H742v-1.6h10.71Z"/><path d="M760.85,573.23a15.79,15.79,0,0,1-1.78.59,14.77,14.77,0,0,1-2.05.45l-.27-1.25a11.22,11.22,0,0,0,2.66-1,10.91,10.91,0,0,0,2.29-1.49h0l1.27.27v15.21l3.49.21v1.14h-9.2v-1.14l3.56-.21Z"/><path d="M772.23,573.23a15.79,15.79,0,0,1-1.78.59,14.77,14.77,0,0,1-2.05.45l-.27-1.25a11.22,11.22,0,0,0,2.66-1,10.91,10.91,0,0,0,2.29-1.49h0l1.27.27v15.21l3.48.21v1.14h-9.2v-1.14l3.57-.21Z"/><path d="M790.94,571.6a6.06,6.06,0,0,1,2.22,2.76,10,10,0,0,1,.73,3.92,14.1,14.1,0,0,1-1.43,6.38,13.68,13.68,0,0,1-3.79,4.76,11.84,11.84,0,0,1-5,2.4l-.5-1a11.57,11.57,0,0,0,5.27-3.49,12.52,12.52,0,0,0,2.73-5.5,5.46,5.46,0,0,1-1.87,1.47,5.58,5.58,0,0,1-2.6.63,5.88,5.88,0,0,1-4.5-1.74,6.55,6.55,0,0,1-1.64-4.67,7.42,7.42,0,0,1,.81-3.44,6.42,6.42,0,0,1,2.34-2.54,6.59,6.59,0,0,1,3.58-1A6.3,6.3,0,0,1,790.94,571.6Zm-2,10.54a5.39,5.39,0,0,0,1.59-1,3.58,3.58,0,0,0,.88-1.11q.06-.64.06-.93a12.89,12.89,0,0,0-.94-5.31,3.45,3.45,0,0,0-3.45-2,3.56,3.56,0,0,0-2.31.77,4.67,4.67,0,0,0-1.44,2,6.79,6.79,0,0,0-.48,2.51,6.54,6.54,0,0,0,1.09,4.18,3.61,3.61,0,0,0,2.93,1.33A5.45,5.45,0,0,0,789,582.14Z"/><path d="M837.43,573.23a15.11,15.11,0,0,1-1.78.59,14.38,14.38,0,0,1-2,.45l-.27-1.25a11.37,11.37,0,0,0,2.66-1,10.91,10.91,0,0,0,2.29-1.49h0l1.28.27v15.21l3.48.21v1.14h-9.2v-1.14l3.56-.21Z"/><path d="M849.12,583.24a18.46,18.46,0,0,0,3.43-3.89,7.06,7.06,0,0,0,1.29-3.73,3.37,3.37,0,0,0-.93-2.49,3.6,3.6,0,0,0-2.66-.93,5.63,5.63,0,0,0-2.78.65,9.66,9.66,0,0,0-2.11,1.55l-.75-1a9.25,9.25,0,0,1,2.64-1.95,7.52,7.52,0,0,1,3.58-.87,6.31,6.31,0,0,1,3,.68,4.49,4.49,0,0,1,1.83,1.78,4.92,4.92,0,0,1,.6,2.38,8.66,8.66,0,0,1-2.59,5.63,26,26,0,0,1-6.37,5.11l8.59-.56.88-2.31,1.17.24-.64,3.88H844.83l-.32-.9A26.88,26.88,0,0,0,849.12,583.24Z"/><path d="M861.71,585.2a10.87,10.87,0,0,1-1.6-6.09,10.09,10.09,0,0,1,.93-4.43,7.37,7.37,0,0,1,2.52-3,6.08,6.08,0,0,1,3.49-1.06q3.48,0,5,2.26a10.75,10.75,0,0,1,1.5,6,10.91,10.91,0,0,1-.89,4.47,7.57,7.57,0,0,1-2.45,3.12,5.76,5.76,0,0,1-3.49,1.13A5.53,5.53,0,0,1,861.71,585.2Zm8.43-.7a11.17,11.17,0,0,0,1.06-5.34q0-7.3-4.31-7.31a3.64,3.64,0,0,0-3.37,1.83,10,10,0,0,0-1.09,5.11,12.45,12.45,0,0,0,1.05,5.44,3.46,3.46,0,0,0,3.31,2.19A3.57,3.57,0,0,0,870.14,584.5Z"/><path d="M888.4,579.67H877.69v-1.6H888.4Z"/><path d="M896,573.23a15.11,15.11,0,0,1-1.78.59,14.47,14.47,0,0,1-2.05.45l-.26-1.25a11.54,11.54,0,0,0,2.66-1,10.83,10.83,0,0,0,2.28-1.49h0l1.28.27v15.21l3.48.21v1.14h-9.2v-1.14l3.56-.21Z"/><path d="M907.69,583.24a18.75,18.75,0,0,0,3.43-3.89,7.06,7.06,0,0,0,1.29-3.73,3.37,3.37,0,0,0-.93-2.49,3.6,3.6,0,0,0-2.66-.93,5.6,5.6,0,0,0-2.78.65,9.66,9.66,0,0,0-2.11,1.55l-.75-1a9.19,9.19,0,0,1,2.63-1.95,7.59,7.59,0,0,1,3.59-.87,6.31,6.31,0,0,1,3.05.68,4.49,4.49,0,0,1,1.83,1.78,4.92,4.92,0,0,1,.6,2.38,8.66,8.66,0,0,1-2.59,5.63,26,26,0,0,1-6.37,5.11l8.59-.56.87-2.31,1.17.24-.63,3.88H903.39l-.31-.9A27.27,27.27,0,0,0,907.69,583.24Z"/><path d="M929.45,571.6a6.19,6.19,0,0,1,2.22,2.76,10.18,10.18,0,0,1,.73,3.92,14.1,14.1,0,0,1-1.44,6.38,13.65,13.65,0,0,1-3.78,4.76,11.84,11.84,0,0,1-5,2.4l-.51-1a11.66,11.66,0,0,0,5.28-3.49,12.5,12.5,0,0,0,2.72-5.5,5.37,5.37,0,0,1-1.87,1.47,5.54,5.54,0,0,1-2.59.63,5.88,5.88,0,0,1-4.51-1.74,6.55,6.55,0,0,1-1.63-4.67,7.42,7.42,0,0,1,.81-3.44,6.42,6.42,0,0,1,2.34-2.54,6.58,6.58,0,0,1,3.57-1A6.33,6.33,0,0,1,929.45,571.6Zm-2,10.54a5.58,5.58,0,0,0,1.6-1,3.73,3.73,0,0,0,.88-1.11c0-.43.05-.74.05-.93a12.9,12.9,0,0,0-.93-5.31,3.46,3.46,0,0,0-3.46-2,3.6,3.6,0,0,0-2.31.77,4.67,4.67,0,0,0-1.44,2,7,7,0,0,0-.47,2.51,6.54,6.54,0,0,0,1.09,4.18,3.59,3.59,0,0,0,2.92,1.33A5.41,5.41,0,0,0,927.45,582.14Z"/><path d="M991.58,582.71l9.47-4.46V578l-9.47-4.46V572l11.17,5.13v2l-11.17,5.13Zm0,3.27h11.17v1.49H991.58Z" style="fill:#fff"/><path d="M1010.3,573.3a16.24,16.24,0,0,1-1.78.58,14.77,14.77,0,0,1-2,.45l-.26-1.24a11.77,11.77,0,0,0,2.65-1,10.91,10.91,0,0,0,2.29-1.49h0l1.27.27v15.2l3.49.22v1.14h-9.2v-1.14l3.56-.22Z" style="fill:#fff"/><path d="M1018.28,591.51v-1.25a7,7,0,0,0,1.88.21,9.81,9.81,0,0,0,3.9-.7,5.93,5.93,0,0,0,2.5-1.9,4.41,4.41,0,0,0,.86-2.61,3.71,3.71,0,0,0-1.17-2.91,5.38,5.38,0,0,0-3.61-1.08,6.26,6.26,0,0,1-1.17.32l-.56.16-.4-1.27a10.5,10.5,0,0,0,2.07-.61,7.5,7.5,0,0,0,2.85-2,4,4,0,0,0,1.11-2.68,2.77,2.77,0,0,0-.94-2.33,3.9,3.9,0,0,0-2.43-.73,6.61,6.61,0,0,0-2.35.44,7.56,7.56,0,0,0-2,1.1l-.59-1a7.67,7.67,0,0,1,2.29-1.44,7.8,7.8,0,0,1,3.22-.69,6.33,6.33,0,0,1,3.76,1,3.67,3.67,0,0,1,1.45,3.19,4.42,4.42,0,0,1-.72,2.39,7.65,7.65,0,0,1-1.85,2,8.8,8.8,0,0,1-2.4,1.31l.71,0a6.19,6.19,0,0,1,2.78.59,4.45,4.45,0,0,1,1.81,1.61,4.11,4.11,0,0,1,.63,2.21,5.72,5.72,0,0,1-1.17,3.51,7.6,7.6,0,0,1-3.3,2.4,12.94,12.94,0,0,1-4.92.87A9.59,9.59,0,0,1,1018.28,591.51Z" style="fill:#fff"/><path d="M1034.63,585.26a10.87,10.87,0,0,1-1.6-6.09,10,10,0,0,1,.93-4.42,7.36,7.36,0,0,1,2.51-3,6.15,6.15,0,0,1,3.5-1.07c2.32,0,4,.76,5,2.26a10.7,10.7,0,0,1,1.51,6,10.86,10.86,0,0,1-.89,4.46,7.6,7.6,0,0,1-2.45,3.13,5.83,5.83,0,0,1-3.5,1.13A5.53,5.53,0,0,1,1034.63,585.26Zm8.42-.69a11.1,11.1,0,0,0,1.07-5.34c0-4.88-1.44-7.31-4.31-7.31a3.67,3.67,0,0,0-3.38,1.83,10.07,10.07,0,0,0-1.09,5.1,12.53,12.53,0,0,0,1.05,5.44,3.48,3.48,0,0,0,3.31,2.2A3.55,3.55,0,0,0,1043.05,584.57Z" style="fill:#fff"/><polygon points="251.67 430.6 250.12 431.92 248.57 433.24 250.12 431.92 251.67 430.6"/><polygon points="270.32 413.21 268.76 414.76 267.21 416.3 268.76 414.76 270.32 413.21"/><polygon points="287.4 394.94 285.85 396.69 284.3 398.43 285.85 396.69 287.4 394.94"/><polygon points="782.97 374.45 784.52 376.4 786.07 378.33 787.63 380.25 789.18 382.15 790.73 384.03 791.51 384.96 790.73 384.03 789.18 382.15 787.63 380.25 786.07 378.33 784.52 376.4 782.97 374.45 781.41 372.48 780.64 371.49 781.41 372.48 782.97 374.45"/><polygon points="803.16 398.43 804.72 400.15 806.27 401.85 807.82 403.52 809.38 405.19 810.93 406.83 811.71 407.64 810.93 406.83 809.38 405.19 807.82 403.52 806.27 401.85 804.72 400.15 803.16 398.43 801.61 396.69 800.59 395.55 801.61 396.69 803.16 398.43"/><polygon points="814.04 410.06 815.15 411.19 815.15 411.19 814.04 410.06 812.48 408.45 811.71 407.64 812.48 408.45 814.04 410.06"/><polygon points="793.84 387.74 795.39 389.57 796.95 391.38 798.5 393.17 800.05 394.94 800.59 395.55 800.05 394.94 798.5 393.17 796.95 391.38 795.39 389.57 793.84 387.74 792.29 385.9 791.51 384.96 792.29 385.9 793.84 387.74"/><polygon points="837.58 432.13 837.34 431.92 837.12 431.73 837.34 431.92 837.58 432.13"/><polygon points="818.72 414.79 818.7 414.76 818.7 414.76 818.7 414.76 818.72 414.79"/><polygon points="823.36 419.3 824.91 420.78 826.46 422.24 828.02 423.67 829.57 425.09 831.12 426.5 831.9 427.19 831.12 426.5 829.57 425.09 828.02 423.67 826.46 422.24 824.91 420.78 823.36 419.3 821.8 417.81 821.03 417.05 821.8 417.81 823.36 419.3"/><polygon points="840.45 434.53 841.22 435.17 840.45 434.53 838.89 433.24 837.58 432.13 838.89 433.24 840.45 434.53"/><polygon points="834.23 429.25 835.78 430.6 837.12 431.73 835.78 430.6 834.23 429.25 832.68 427.88 831.9 427.19 832.68 427.88 834.23 429.25"/><polygon points="817.14 413.21 818.7 414.76 817.14 413.21 816.15 412.21 816.15 412.21 817.14 413.21"/><polygon points="821.03 417.05 820.25 416.3 818.72 414.79 820.25 416.3 821.03 417.05"/><polygon points="815.59 411.65 815.85 411.9 815.85 411.9 815.59 411.65 815.15 411.19 815.15 411.19 815.59 411.65"/><polygon points="815.15 411.19 815.15 411.9 815.85 411.9 815.59 411.65 815.15 411.19"/><polygon points="816.15 411.9 815.85 411.9 816.15 412.21 816.15 411.9"/><polygon points="816.15 412.21 816.15 412.21 815.85 411.9 815.85 411.9 816.15 412.21"/><polygon points="1087.45 500.88 1087.45 500.88 1087.45 500.88 1087.45 500.88"/><polygon points="132.83 489.18 133.61 489.01 135.16 488.67 133.61 489.01 132.83 489.18"/><polygon points="126.62 490.46 127.39 490.3 128.95 489.99 127.39 490.3 126.62 490.46"/><polygon points="111.86 493.05 113.41 492.8 114.97 492.55 113.41 492.8 111.86 493.05"/><polygon points="99.43 494.81 97.88 495.01 99.43 494.81 100.99 494.61 101.76 494.51 100.99 494.61 99.43 494.81"/><polygon points="119.63 491.76 121.18 491.48 122.73 491.2 121.18 491.48 119.63 491.76"/><polygon points="128.95 489.99 130.5 489.68 131.28 489.51 130.5 489.68 128.95 489.99"/><polygon points="94.77 495.39 96.33 495.2 97.88 495.01 96.33 495.2 94.77 495.39"/><polygon points="107.2 493.75 105.65 493.98 107.2 493.75 108.75 493.52 110.31 493.29 108.75 493.52 107.2 493.75"/><polygon points="101.76 494.51 102.54 494.41 104.09 494.19 102.54 494.41 101.76 494.51"/><polygon points="131.28 489.51 132.06 489.35 132.83 489.18 132.06 489.35 131.28 489.51"/><polygon points="124.29 490.91 125.84 490.61 126.62 490.46 125.84 490.61 124.29 490.91"/><polygon points="136.65 488.34 136.07 488.47 136.65 488.47 136.65 488.34"/><polygon points="135.65 488.47 135.65 488.56 136.07 488.47 135.65 488.47"/><polygon points="136.07 488.47 135.65 488.56 135.16 488.67 133.61 489.01 132.83 489.18 132.06 489.35 131.28 489.51 130.5 489.68 128.95 489.99 127.39 490.3 126.62 490.46 125.84 490.61 124.29 490.91 122.73 491.2 121.18 491.48 119.63 491.76 118.08 492.03 116.52 492.3 114.97 492.55 113.41 492.8 111.86 493.05 110.31 493.29 108.75 493.52 107.2 493.75 105.65 493.98 104.09 494.19 102.54 494.41 101.76 494.51 100.99 494.61 99.43 494.81 97.88 495.01 96.33 495.2 94.77 495.39 93.22 495.58 91.67 495.75 90.11 495.93 88.56 496.1 87 496.26 85.45 496.42 83.9 496.58 82.86 496.68 82.34 496.73 80.79 496.88 79.24 497.02 77.68 497.16 76.13 497.3 74.7 497.43 74.58 497.44 73.02 497.57 71.47 497.69 69.92 497.81 68.36 497.93 66.81 498.05 65.26 498.16 63.81 498.27 63.7 498.27 63.6 498.28 62.15 498.38 60.6 498.49 59.84 498.54 59.04 498.59 58.24 498.64 57.49 498.69 55.94 498.78 54.38 498.88 52.83 498.97 51.27 499.06 49.72 499.14 48.17 499.22 48.09 499.23 46.61 499.3 45.06 499.38 43.51 499.46 42.75 499.5 41.95 499.53 40.4 499.61 38.85 499.67 37.29 499.74 35.74 499.81 34.19 499.87 32.63 499.94 31.08 500 29.53 500.05 27.97 500.11 26.42 500.17 24.86 500.22 23.31 500.27 21.76 500.32 20.2 500.37 18.65 500.42 17.1 500.46 15.54 500.51 13.99 500.55 12.44 500.59 11.65 500.61 10.88 500.63 10.12 500.65 9.33 500.67 8.53 500.69 7.78 500.71 6.22 500.75 4.67 500.78 3.12 500.82 1.56 500.85 0.03 500.88 0.01 500.88 0.03 500.88 0.03 501.99 0.03 550.58 2.03 550.58 135.65 550.58 136.65 550.58 136.65 500.88 136.65 488.47 136.07 488.47" style="fill:#e15a5a"/><polygon points="144.48 486.46 142.93 486.85 141.38 487.23 142.93 486.85 144.48 486.46"/><polygon points="164.68 480.56 166.23 480.03 164.68 480.56 163.13 481.07 162.35 481.32 163.13 481.07 164.68 480.56"/><polygon points="199.63 465.94 198.86 466.33 198.08 466.72 198.86 466.33 199.63 465.94"/><polygon points="160.02 482.06 158.47 482.55 156.91 483.02 158.47 482.55 160.02 482.06"/><polygon points="184.87 472.87 186.43 472.2 184.87 472.87 183.32 473.53 181.77 474.18 183.32 473.53 184.87 472.87"/><polygon points="147.59 485.65 146.04 486.06 144.48 486.46 146.04 486.06 147.59 485.65"/><polygon points="181.77 474.18 180.21 474.82 178.66 475.45 180.21 474.82 181.77 474.18"/><polygon points="150.7 484.81 152.25 484.38 153.81 483.93 155.36 483.48 156.91 483.02 155.36 483.48 153.81 483.93 152.25 484.38 150.7 484.81 149.14 485.24 147.59 485.65 149.14 485.24 150.7 484.81"/><polygon points="162.35 481.32 161.57 481.57 160.02 482.06 161.57 481.57 162.35 481.32"/><polygon points="201.96 464.73 200.41 465.54 199.63 465.94 200.41 465.54 201.96 464.73"/><polygon points="141.38 487.23 139.82 487.6 138.27 487.97 139.82 487.6 141.38 487.23"/><polygon points="178.66 475.45 177.11 476.06 175.55 476.66 177.11 476.06 178.66 475.45"/><polygon points="198.08 466.72 197.3 467.11 195.75 467.88 197.3 467.11 198.08 466.72"/><polygon points="170.89 478.39 172.45 477.83 174 477.25 172.45 477.83 170.89 478.39 169.34 478.95 167.79 479.5 169.34 478.95 170.89 478.39"/><polygon points="271.87 411.65 271.61 411.9 271.33 412.19 270.32 413.21 268.76 414.76 267.21 416.3 265.66 417.81 264.1 419.3 262.55 420.78 261 422.24 259.44 423.67 257.89 425.09 256.33 426.5 254.78 427.88 253.23 429.25 251.67 430.6 250.12 431.92 248.57 433.24 247.01 434.53 245.46 435.8 243.91 437.06 242.35 438.3 240.8 439.53 239.25 440.73 237.69 441.92 236.14 443.09 234.59 444.24 233.03 445.38 231.48 446.5 229.93 447.61 228.37 448.69 226.82 449.76 225.26 450.81 223.71 451.85 222.16 452.87 220.6 453.88 219.05 454.87 217.5 455.84 215.94 456.8 214.39 457.74 212.84 458.66 211.28 459.57 209.73 460.47 208.18 461.35 206.62 462.22 205.07 463.07 203.52 463.9 201.96 464.73 200.41 465.54 199.63 465.94 198.86 466.33 198.08 466.72 197.3 467.11 195.75 467.88 194.19 468.63 192.64 469.37 191.09 470.1 189.53 470.81 187.98 471.51 186.43 472.2 184.87 472.87 183.32 473.53 181.77 474.18 180.21 474.82 178.66 475.45 177.11 476.06 175.55 476.66 174 477.25 172.45 477.83 170.89 478.39 169.34 478.95 167.79 479.5 166.23 480.03 164.68 480.56 163.13 481.07 162.35 481.32 161.57 481.57 160.02 482.06 158.47 482.55 156.91 483.02 155.36 483.48 153.81 483.93 152.25 484.38 150.7 484.81 149.14 485.24 147.59 485.65 146.04 486.06 144.48 486.46 142.93 486.85 141.38 487.23 139.82 487.6 138.27 487.97 136.72 488.32 136.65 488.34 136.65 488.47 136.65 500.88 136.65 550.58 137.65 550.58 271.33 550.58 272.33 550.58 272.33 500.88 272.33 411.9 272.33 411.17 271.87 411.65" style="fill:#f5cacb"/><polygon points="407.77 217.58 407.02 218.78 407.02 218.78 405.47 221.27 403.92 223.77 402.36 226.27 400.81 228.78 399.25 231.3 397.7 233.81 396.15 236.34 394.6 238.86 393.04 241.38 391.49 243.91 389.94 246.44 388.38 248.97 386.83 251.49 385.27 254.02 383.72 256.55 382.17 259.07 380.61 261.6 379.06 264.12 377.51 266.64 375.95 269.15 374.4 271.66 372.85 274.17 371.29 276.67 369.74 279.16 368.19 281.65 366.63 284.14 365.08 286.62 363.52 289.09 361.97 291.55 360.42 294.01 358.87 296.46 357.31 298.89 355.76 301.32 354.2 303.75 352.65 306.16 351.1 308.56 349.54 310.95 347.99 313.33 346.44 315.7 344.88 318.06 343.33 320.4 341.78 322.74 340.22 325.06 338.67 327.37 337.12 329.66 335.56 331.95 334.01 334.21 332.46 336.47 330.9 338.71 329.35 340.94 327.8 343.15 326.24 345.35 324.69 347.53 323.13 349.7 321.58 351.85 320.03 353.99 318.47 356.11 316.92 358.21 315.37 360.3 313.81 362.37 312.26 364.43 310.71 366.47 309.15 368.49 307.6 370.49 306.05 372.48 304.49 374.45 302.94 376.4 301.39 378.33 299.83 380.25 298.28 382.15 296.73 384.03 295.17 385.9 293.62 387.74 292.06 389.57 290.51 391.38 288.96 393.17 287.4 394.94 285.85 396.69 284.3 398.43 282.74 400.15 281.19 401.85 279.64 403.52 278.08 405.19 276.53 406.83 274.98 408.45 273.42 410.06 272.33 411.17 272.33 411.9 272.33 500.88 272.33 550.58 273.33 550.58 407.02 550.58 408.02 550.58 408.02 500.88 408.02 217.58 407.77 217.58" style="fill:#fbe4cb"/><polygon points="678.88 216.29 677.33 213.81 675.78 211.34 674.22 208.87 672.67 206.41 671.12 203.97 669.56 201.53 668.78 200.32 668.01 199.1 666.46 196.69 664.9 194.28 663.35 191.89 661.79 189.51 660.24 187.14 659.46 185.97 658.69 184.79 657.13 182.45 655.58 180.13 654.03 177.82 652.47 175.53 650.92 173.25 649.37 171 648.59 169.88 647.81 168.75 646.26 166.53 644.71 164.33 643.15 162.15 641.6 159.98 640.05 157.84 639.27 156.78 638.49 155.72 636.94 153.62 635.38 151.54 633.83 149.48 632.28 147.45 630.73 145.44 629.17 143.46 628.39 142.48 627.62 141.5 626.06 139.57 624.51 137.66 622.96 135.78 621.4 133.93 619.85 132.11 619.07 131.21 618.3 130.31 616.74 128.54 615.19 126.8 613.64 125.09 612.08 123.41 610.53 121.76 608.98 120.14 608.2 119.35 607.42 118.55 605.87 117 604.32 115.48 602.76 113.99 601.21 112.53 599.65 111.11 598.1 109.72 597.9 109.54 596.55 108.36 595 107.04 593.44 105.76 591.89 104.51 590.33 103.29 588.78 102.11 587.23 100.97 585.67 99.87 584.12 98.8 582.57 97.78 581.01 96.78 579.46 95.83 577.91 94.92 576.35 94.04 574.8 93.2 573.25 92.41 571.69 91.65 570.14 90.93 568.59 90.25 567.03 89.61 565.48 89.02 563.92 88.46 562.37 87.94 560.82 87.47 559.26 87.03 557.71 86.64 556.16 86.28 554.6 85.97 553.05 85.7 551.5 85.47 549.94 85.28 548.39 85.14 546.84 85.03 545.28 84.97 543.73 84.95 542.18 84.97 540.62 85.03 539.07 85.14 537.52 85.28 535.96 85.47 534.41 85.7 532.86 85.97 531.3 86.28 529.75 86.64 528.2 87.03 526.64 87.47 525.09 87.94 523.53 88.46 521.98 89.02 520.43 89.61 518.87 90.25 517.32 90.93 515.77 91.65 514.21 92.41 512.66 93.2 511.11 94.04 509.55 94.92 508 95.83 506.45 96.78 504.89 97.78 503.34 98.8 501.79 99.87 500.23 100.97 498.68 102.11 497.13 103.29 495.57 104.51 494.02 105.76 492.46 107.04 490.91 108.36 489.36 109.72 487.8 111.11 486.25 112.53 484.7 113.99 483.14 115.48 481.59 117 480.04 118.55 478.48 120.14 476.93 121.76 475.38 123.41 473.82 125.09 472.27 126.8 470.72 128.54 469.16 130.31 467.61 132.11 466.06 133.93 464.5 135.78 462.95 137.66 461.39 139.57 459.84 141.5 458.29 143.46 456.73 145.44 455.18 147.45 453.63 149.48 452.07 151.54 450.52 153.62 448.97 155.72 447.41 157.84 445.86 159.98 444.31 162.15 442.75 164.33 441.2 166.53 439.65 168.75 438.09 171 436.54 173.25 434.99 175.53 433.43 177.82 431.88 180.13 430.32 182.45 428.77 184.79 427.22 187.14 425.67 189.51 424.11 191.89 422.56 194.28 421 196.69 419.45 199.1 417.9 201.53 416.34 203.97 414.79 206.41 413.24 208.87 411.68 211.34 410.13 213.81 408.58 216.29 408.02 217.18 408.02 217.58 408.02 500.88 408.02 550.58 409.02 550.58 678.46 550.58 679.46 550.58 679.46 500.88 679.46 217.58 679.46 217.21 678.88 216.29" style="fill:#d8eecf"/><polygon points="814.04 410.06 812.48 408.45 811.71 407.64 810.93 406.83 809.38 405.19 807.82 403.52 806.27 401.85 804.72 400.15 803.16 398.43 801.61 396.69 800.59 395.55 800.05 394.94 798.5 393.17 796.95 391.38 795.39 389.57 793.84 387.74 792.29 385.9 791.51 384.96 790.73 384.03 789.18 382.15 787.63 380.25 786.07 378.33 784.52 376.4 782.97 374.45 781.41 372.48 780.64 371.49 779.86 370.49 778.31 368.49 776.75 366.47 775.2 364.43 773.64 362.37 772.09 360.3 771.32 359.26 770.54 358.21 768.99 356.11 767.43 353.99 765.88 351.85 764.32 349.7 762.77 347.53 761.22 345.35 760.44 344.25 759.66 343.15 758.11 340.94 756.56 338.71 755 336.47 753.45 334.21 751.9 331.95 751.12 330.8 750.34 329.66 748.79 327.37 747.24 325.06 745.68 322.74 744.13 320.4 742.58 318.06 741.02 315.7 740.25 314.51 739.47 313.33 737.91 310.95 736.36 308.56 734.81 306.16 733.25 303.75 731.7 301.32 730.15 298.89 729.73 298.25 728.59 296.46 727.04 294.01 725.49 291.55 723.93 289.09 722.38 286.62 720.83 284.14 720.05 282.9 719.27 281.65 717.72 279.16 716.17 276.67 714.61 274.17 713.06 271.66 711.51 269.15 709.95 266.64 709.18 265.38 708.4 264.12 706.85 261.6 705.29 259.07 703.74 256.55 702.18 254.02 700.63 251.49 699.86 250.23 699.08 248.97 697.52 246.44 695.97 243.91 694.42 241.38 692.86 238.86 691.31 236.34 689.76 233.81 689.16 232.85 688.2 231.3 686.65 228.78 685.1 226.27 683.54 223.77 681.99 221.27 680.46 218.81 680.44 218.78 679.69 217.58 679.46 217.58 679.46 500.88 679.46 550.58 680.46 550.58 814.15 550.58 815.15 550.58 815.15 500.88 815.15 411.9 815.15 411.19 814.04 410.06" style="fill:#bce4a7"/><polygon points="942.98 486.46 944.53 486.85 946.08 487.23 946.46 487.32 946.08 487.23 944.53 486.85 942.98 486.46 941.42 486.06 940.28 485.76 941.42 486.06 942.98 486.46"/><polygon points="950.74 488.32 950.83 488.34 950.83 488.34 950.74 488.32 949.19 487.97 948.82 487.88 949.19 487.97 950.74 488.32"/><polygon points="843.55 437.06 845.11 438.3 846.66 439.53 848.21 440.73 849.77 441.92 851.32 443.09 852.1 443.67 851.32 443.09 849.77 441.92 848.21 440.73 846.66 439.53 845.11 438.3 843.55 437.06 842 435.8 841.22 435.17 842 435.8 843.55 437.06"/><polygon points="904.14 473.53 905.69 474.18 907.25 474.82 908.8 475.45 909.41 475.69 908.8 475.45 907.25 474.82 905.69 474.18 904.14 473.53 902.59 472.87 901.39 472.35 902.59 472.87 904.14 473.53"/><polygon points="863.75 451.85 865.3 452.87 866.86 453.88 868.41 454.87 869.96 455.84 871.51 456.8 872.29 457.27 871.51 456.8 869.96 455.84 868.41 454.87 866.86 453.88 865.3 452.87 863.75 451.85 862.19 450.81 861.42 450.29 862.19 450.81 863.75 451.85"/><polygon points="912.68 476.96 911.91 476.66 911.3 476.43 911.91 476.66 912.68 476.96"/><polygon points="892.49 468.25 891.71 467.88 890.94 467.5 891.71 467.88 892.49 468.25"/><polygon points="889.77 466.92 888.6 466.33 887.43 465.73 888.6 466.33 889.77 466.92"/><polygon points="883.94 463.9 885.5 464.73 886.31 465.15 885.5 464.73 883.94 463.9 882.39 463.07 881.61 462.64 882.39 463.07 883.94 463.9"/><polygon points="924.33 481.07 925.36 481.4 924.33 481.07 922.78 480.56 921.54 480.14 922.78 480.56 924.33 481.07"/><polygon points="928.99 482.55 930.55 483.02 931.01 483.16 930.55 483.02 928.99 482.55 927.44 482.06 926.95 481.91 927.44 482.06 928.99 482.55"/><polygon points="933.65 483.93 935.21 484.38 936.76 484.81 938.32 485.24 939.87 485.65 940.28 485.76 939.87 485.65 938.32 485.24 936.76 484.81 935.21 484.38 933.65 483.93 932.1 483.48 931.01 483.16 932.1 483.48 933.65 483.93"/><polygon points="894.82 469.37 896.37 470.1 897.92 470.81 899.48 471.51 901.03 472.2 901.39 472.35 901.03 472.2 899.48 471.51 897.92 470.81 896.37 470.1 894.82 469.37 893.26 468.63 892.49 468.25 893.26 468.63 894.82 469.37"/><polygon points="890.94 467.5 890.16 467.11 889.77 466.92 890.16 467.11 890.94 467.5"/><polygon points="887.43 465.73 887.05 465.54 886.31 465.15 887.05 465.54 887.43 465.73"/><polygon points="874.62 458.66 876.17 459.57 877.73 460.47 879.28 461.35 880.84 462.22 881.61 462.64 880.84 462.22 879.28 461.35 877.73 460.47 876.18 459.57 874.62 458.66 873.07 457.74 872.29 457.27 873.07 457.74 874.62 458.66"/><polygon points="948.82 487.88 947.64 487.6 946.46 487.32 947.64 487.6 948.82 487.88"/><polygon points="854.43 445.38 855.98 446.5 857.53 447.61 859.09 448.69 860.64 449.76 861.42 450.29 860.64 449.76 859.09 448.69 857.53 447.61 855.98 446.5 854.43 445.38 852.87 444.24 852.1 443.67 852.87 444.24 854.43 445.38"/><polygon points="911.3 476.43 910.35 476.06 909.41 475.69 910.35 476.06 911.3 476.43"/><polygon points="915.01 477.83 916.57 478.39 918.12 478.95 919.67 479.5 921.23 480.03 921.54 480.14 921.23 480.03 919.67 479.5 918.12 478.95 916.57 478.39 915.01 477.83 913.46 477.25 912.68 476.96 913.46 477.25 915.01 477.83"/><polygon points="926.95 481.91 925.89 481.57 925.36 481.4 925.89 481.57 926.95 481.91"/><polygon points="950.74 488.32 949.19 487.97 948.82 487.88 947.64 487.6 946.46 487.32 946.08 487.23 944.53 486.85 942.98 486.46 941.42 486.06 940.28 485.76 939.87 485.65 938.32 485.24 936.76 484.81 935.21 484.38 933.65 483.93 932.1 483.48 931.01 483.16 930.55 483.02 928.99 482.55 927.44 482.06 926.95 481.91 925.89 481.57 925.36 481.4 924.33 481.07 922.78 480.56 921.54 480.14 921.23 480.03 919.67 479.5 918.12 478.95 916.57 478.39 915.01 477.83 913.46 477.25 912.68 476.96 911.91 476.66 911.3 476.43 910.35 476.06 909.41 475.69 908.8 475.45 907.25 474.82 905.69 474.18 904.14 473.53 902.59 472.87 901.39 472.35 901.03 472.2 899.48 471.51 897.92 470.81 896.37 470.1 894.82 469.37 893.26 468.63 892.49 468.25 891.71 467.88 890.94 467.5 890.16 467.11 889.77 466.92 888.6 466.33 887.43 465.73 887.05 465.54 886.31 465.15 885.5 464.73 883.94 463.9 882.39 463.07 881.61 462.64 880.84 462.22 879.28 461.35 877.73 460.47 876.17 459.57 874.62 458.66 873.07 457.74 872.29 457.27 871.51 456.8 869.96 455.84 868.41 454.87 866.86 453.88 865.3 452.87 863.75 451.85 862.19 450.81 861.42 450.29 860.64 449.76 859.09 448.69 857.53 447.61 855.98 446.5 854.43 445.38 852.87 444.24 852.1 443.67 851.32 443.09 849.77 441.92 848.21 440.73 846.66 439.53 845.11 438.3 843.55 437.06 842 435.8 841.22 435.17 840.45 434.53 838.89 433.24 837.58 432.13 837.34 431.92 837.12 431.73 835.78 430.6 834.23 429.25 832.68 427.88 831.9 427.19 831.12 426.5 829.57 425.09 828.02 423.67 826.46 422.24 824.91 420.78 823.36 419.3 821.8 417.81 821.03 417.05 820.25 416.3 818.72 414.79 818.7 414.76 818.7 414.76 817.14 413.21 816.15 412.21 815.85 411.9 815.15 411.9 815.15 500.88 815.15 550.58 816.15 550.58 949.83 550.58 950.83 550.58 950.83 549.53 950.83 500.88 950.83 488.47 950.83 488.34 950.74 488.32" style="fill:#a0d57f"/><polygon points="1077.37 500.65 1078.13 500.67 1078.89 500.69 1078.13 500.67 1077.37 500.65"/><polygon points="1057.99 500.06 1059.49 500.11 1060.98 500.16 1059.49 500.11 1057.99 500.06"/><polygon points="1017.66 497.82 1019.1 497.93 1020.53 498.04 1019.1 497.93 1017.66 497.82"/><polygon points="1027.59 498.53 1028.42 498.59 1029.24 498.64 1028.42 498.59 1027.59 498.53"/><polygon points="1085.12 500.83 1085.9 500.85 1087.45 500.88 1087.45 500.88 1085.9 500.85 1085.12 500.83"/><polygon points="1031.52 498.78 1031.43 498.78 1031.52 498.78 1033.08 498.88 1033.85 498.92 1033.08 498.88 1031.52 498.78"/><polygon points="1036.18 499.06 1034.72 498.97 1036.18 499.06 1037.74 499.14 1039.21 499.22 1037.74 499.14 1036.18 499.06"/><polygon points="1051.72 499.81 1050.17 499.74 1048.61 499.67 1047.06 499.61 1045.51 499.53 1044.73 499.5 1045.51 499.53 1047.06 499.61 1048.61 499.67 1050.17 499.74 1051.72 499.81 1053.27 499.87 1054.77 499.93 1053.27 499.87 1051.72 499.81"/><polygon points="952.3 488.67 951.83 488.57 951.83 488.57 952.3 488.67 953.85 489.01 954.46 489.14 953.85 489.01 952.3 488.67"/><polygon points="1012.75 497.42 1012.88 497.44 1013.66 497.5 1012.88 497.44 1012.75 497.42"/><polygon points="956.34 489.55 956.96 489.68 958.19 489.93 956.96 489.68 956.34 489.55"/><polygon points="951.38 488.47 951.38 488.47 950.83 488.34 950.83 488.34 951.38 488.47"/><polygon points="1073.47 500.55 1071.91 500.51 1070.36 500.46 1068.81 500.42 1067.25 500.37 1065.7 500.32 1064.15 500.27 1062.59 500.22 1061.1 500.17 1062.59 500.22 1064.15 500.27 1065.7 500.32 1067.25 500.37 1068.81 500.42 1070.36 500.46 1071.91 500.51 1073.47 500.55 1075.02 500.59 1075.78 500.61 1075.02 500.59 1073.47 500.55"/><polygon points="958.82 490.06 960.06 490.3 960.69 490.43 960.06 490.3 958.82 490.06"/><polygon points="1002.09 496.43 1003.56 496.58 1004.62 496.68 1003.56 496.58 1002.09 496.43"/><polygon points="1008.22 497.02 1006.67 496.88 1006.52 496.87 1006.67 496.88 1008.22 497.02 1009.77 497.16 1009.91 497.18 1009.77 497.16 1008.22 497.02"/><polygon points="991.13 495.2 989.58 495.01 988.03 494.81 986.47 494.61 985.59 494.5 986.47 494.61 988.03 494.81 989.58 495.01 991.13 495.2 992.69 495.39 993.46 495.48 992.69 495.39 991.13 495.2"/><polygon points="972.49 492.55 970.94 492.3 969.38 492.03 967.83 491.76 966.28 491.48 964.72 491.2 963.17 490.91 962.96 490.87 963.17 490.91 964.72 491.2 966.28 491.48 967.83 491.76 969.38 492.03 970.94 492.3 972.49 492.55 974.04 492.8 975.35 493.01 974.04 492.8 972.49 492.55"/><polygon points="978.71 493.52 977.39 493.32 978.71 493.52 980.26 493.75 981.59 493.94 980.26 493.75 978.71 493.52"/><polygon points="1075.78 500.61 1076.58 500.63 1077.37 500.65 1076.58 500.63 1075.78 500.61"/><polygon points="1082.79 500.78 1081.24 500.75 1079.68 500.71 1078.89 500.69 1079.68 500.71 1081.23 500.75 1082.79 500.78 1084.34 500.82 1085.12 500.83 1084.34 500.82 1082.79 500.78"/><polygon points="983.37 494.19 981.81 493.98 981.59 493.94 981.81 493.98 983.37 494.19 984.92 494.41 985.59 494.5 984.92 494.41 983.37 494.19"/><polygon points="1004.62 496.68 1005.12 496.73 1006.52 496.87 1005.12 496.73 1004.62 496.68"/><polygon points="960.69 490.43 961.62 490.61 962.96 490.87 961.62 490.61 960.69 490.43"/><polygon points="958.19 489.93 958.51 489.99 958.82 490.06 958.51 489.99 958.19 489.93"/><polygon points="1000.45 496.26 998.9 496.1 997.35 495.93 995.79 495.75 994.24 495.58 993.46 495.48 994.24 495.58 995.79 495.75 997.35 495.93 998.9 496.1 1000.45 496.26 1002.01 496.42 1002.09 496.43 1002.01 496.42 1000.45 496.26"/><polygon points="1060.98 500.16 1061.04 500.17 1061.1 500.17 1061.04 500.17 1060.98 500.16"/><polygon points="954.46 489.14 955.4 489.35 956.34 489.55 955.4 489.35 954.46 489.14"/><polygon points="950.83 488.47 951.38 488.47 950.83 488.34 950.83 488.47"/><polygon points="975.6 493.05 975.35 493.01 975.6 493.05 977.15 493.29 977.39 493.32 977.15 493.29 975.6 493.05"/><polygon points="1033.85 498.92 1034.63 498.97 1034.72 498.97 1034.63 498.97 1033.85 498.92"/><polygon points="1029.24 498.64 1029.97 498.69 1031.43 498.78 1029.97 498.69 1029.24 498.64"/><polygon points="1056.38 500 1054.83 499.94 1054.77 499.93 1054.83 499.94 1056.38 500 1057.93 500.05 1057.99 500.06 1057.93 500.05 1056.38 500"/><polygon points="1042.4 499.38 1040.85 499.3 1039.29 499.22 1039.21 499.22 1039.29 499.22 1040.85 499.3 1042.4 499.38 1043.95 499.46 1044.73 499.5 1043.95 499.46 1042.4 499.38"/><polygon points="1025.31 498.38 1023.76 498.27 1022.2 498.16 1020.65 498.05 1020.53 498.04 1020.65 498.05 1022.2 498.16 1023.76 498.27 1025.31 498.38 1026.86 498.49 1027.59 498.53 1026.86 498.49 1025.31 498.38"/><polygon points="1009.91 497.18 1011.33 497.3 1012.75 497.42 1011.33 497.3 1009.91 497.18"/><polygon points="1015.99 497.69 1014.44 497.57 1013.66 497.5 1014.44 497.57 1015.99 497.69 1017.54 497.81 1017.66 497.82 1017.54 497.81 1015.99 497.69"/><polygon points="951.38 488.47 951.38 488.47 951.83 488.57 951.83 488.57 951.38 488.47"/><polygon points="1085.9 500.85 1085.12 500.83 1084.34 500.82 1082.79 500.78 1081.23 500.75 1079.68 500.71 1078.89 500.69 1078.13 500.67 1077.37 500.65 1076.58 500.63 1075.78 500.61 1075.02 500.59 1073.47 500.55 1071.91 500.51 1070.36 500.46 1068.81 500.42 1067.25 500.37 1065.7 500.32 1064.15 500.27 1062.59 500.22 1061.1 500.17 1061.04 500.17 1060.98 500.16 1059.49 500.11 1057.99 500.06 1057.93 500.05 1056.38 500 1054.83 499.94 1054.77 499.93 1053.27 499.87 1051.72 499.81 1050.17 499.74 1048.61 499.67 1047.06 499.61 1045.51 499.53 1044.73 499.5 1043.95 499.46 1042.4 499.38 1040.85 499.3 1039.29 499.22 1039.21 499.22 1037.74 499.14 1036.18 499.06 1034.72 498.97 1034.63 498.97 1033.85 498.92 1033.08 498.88 1031.52 498.78 1031.43 498.78 1029.97 498.69 1029.24 498.64 1028.42 498.59 1027.59 498.53 1026.86 498.49 1025.31 498.38 1023.76 498.27 1022.2 498.16 1020.65 498.05 1020.53 498.04 1019.1 497.93 1017.66 497.82 1017.54 497.81 1015.99 497.69 1014.44 497.57 1013.66 497.5 1012.88 497.44 1012.75 497.42 1011.33 497.3 1009.91 497.18 1009.77 497.16 1008.22 497.02 1006.67 496.88 1006.52 496.87 1005.12 496.73 1004.62 496.68 1003.56 496.58 1002.09 496.43 1002.01 496.42 1000.45 496.26 998.9 496.1 997.35 495.93 995.79 495.75 994.24 495.58 993.46 495.48 992.69 495.39 991.13 495.2 989.58 495.01 988.03 494.81 986.47 494.61 985.59 494.5 984.92 494.41 983.37 494.19 981.81 493.98 981.59 493.94 980.26 493.75 978.71 493.52 977.39 493.32 977.15 493.29 975.6 493.05 975.35 493.01 974.04 492.8 972.49 492.55 970.94 492.3 969.38 492.03 967.83 491.76 966.28 491.48 964.72 491.2 963.17 490.91 962.96 490.87 961.62 490.61 960.69 490.43 960.06 490.3 958.82 490.06 958.51 489.99 958.19 489.93 956.96 489.68 956.34 489.55 955.4 489.35 954.46 489.14 953.85 489.01 952.3 488.67 951.83 488.57 951.38 488.47 950.83 488.47 950.83 500.88 950.83 530.44 950.83 547.88 950.83 550.58 1087.45 550.58 1087.45 547.88 1087.45 530.44 1087.45 500.88 1085.9 500.85" style="fill:#6aae46"/><path d="M0,499.42l1.55,0,1.56,0,1.55,0,1.55,0,1.56,0,1.55,0,1.55,0,1.56,0,1.55,0,1.56,0,1.55-.05,1.55,0,1.56,0,1.55-.05,1.55-.05,1.56-.05,1.55-.06,1.55-.05,1.56-.06,1.55-.06,1.55-.06,1.56-.06,1.55-.06,1.55-.07,1.56-.07,1.55-.06,1.55-.08,1.56-.07,1.55-.08,1.55-.08,1.56-.08,1.55-.08,1.56-.09,1.55-.08,1.55-.1,1.56-.09,1.55-.09,1.55-.1,1.56-.11,1.55-.1,1.55-.11,1.56-.11,1.55-.11,1.55-.12,1.56-.12,1.55-.12L73,496.1,74.6,496l1.55-.13,1.55-.14,1.56-.14,1.55-.14,1.55-.15,1.56-.15,1.55-.16L87,494.8l1.55-.17,1.55-.16,1.56-.18,1.55-.18,1.55-.18,1.56-.19,1.55-.19,1.55-.2,1.56-.2,1.55-.2,1.55-.22,1.56-.21,1.55-.23,1.55-.23,1.56-.23,1.55-.24,1.55-.25,1.56-.25,1.55-.26,1.56-.26,1.55-.27,1.55-.28,1.56-.28,1.55-.29,1.55-.3,1.56-.31,1.55-.31,1.55-.32,1.56-.32,1.55-.34,1.55-.34,1.56-.35,1.55-.35,1.55-.37,1.56-.37,1.55-.38,1.55-.39,1.56-.4,1.55-.41,1.55-.41,1.56-.43,1.55-.43,1.56-.45,1.55-.45,1.55-.46,1.56-.48,1.55-.48,1.55-.49,1.56-.5,1.55-.52,1.55-.52,1.56-.53,1.55-.55,1.55-.56,1.56-.56,1.55-.58,1.55-.59,1.56-.6,1.55-.62,1.55-.62,1.56-.64,1.55-.65,1.56-.66,1.55-.67,1.55-.69,1.56-.7,1.55-.71,1.55-.73,1.56-.74,1.55-.75,1.55-.77,1.56-.78,1.55-.79,1.55-.81,1.56-.83,1.55-.83,1.55-.85,1.56-.87,1.55-.88,1.55-.9,1.56-.91,1.55-.92,1.55-.95,1.56-.95,1.55-1,1.56-1,1.55-1,1.55-1,1.56-1,1.55-1.05,1.55-1.07,1.56-1.09,1.55-1.1,1.55-1.12,1.56-1.14,1.55-1.15,1.55-1.17,1.56-1.19,1.55-1.21,1.55-1.22,1.56-1.24,1.55-1.26,1.55-1.27,1.56-1.3,1.55-1.31,1.55-1.33,1.56-1.34,1.55-1.37,1.56-1.38,1.55-1.41,1.55-1.42,1.56-1.44,1.55-1.45,1.55-1.48,1.56-1.49,1.55-1.52,1.55-1.53,1.56-1.55,1.55-1.57,1.55-1.58L275,407l1.55-1.62,1.55-1.65,1.56-1.66,1.55-1.68,1.55-1.69,1.56-1.72,1.55-1.74,1.56-1.75,1.55-1.77,1.55-1.79,1.56-1.81,1.55-1.83,1.55-1.84,1.56-1.87,1.55-1.88,1.55-1.9,1.56-1.92,1.55-1.93,1.55-1.95,1.56-2,1.55-2,1.55-2,1.56-2,1.55-2,1.55-2.06,1.56-2.07,1.55-2.09,1.55-2.1,1.56-2.12,1.55-2.14,1.56-2.15,1.55-2.17,1.55-2.18,1.56-2.2,1.55-2.21,1.55-2.23,1.56-2.24,1.55-2.26,1.55-2.27,1.56-2.28,1.55-2.29,1.55-2.31,1.56-2.32,1.55-2.34,1.55-2.34,1.56-2.36,1.55-2.37,1.55-2.38,1.56-2.39,1.55-2.4,1.55-2.41,1.56-2.43,1.55-2.43,1.56-2.44,1.55-2.44,1.55-2.46,1.56-2.46,1.55-2.47,1.55-2.48,1.56-2.49,1.55-2.49,1.55-2.49,1.56-2.5,1.55-2.51,1.55-2.51,1.56-2.52,1.55-2.51,1.55-2.52,1.56-2.53,1.55-2.52,1.55-2.53,1.56-2.53,1.55-2.53L390,245l1.55-2.53,1.55-2.53,1.56-2.52,1.55-2.53,1.55-2.52,1.56-2.51,1.55-2.52,1.55-2.51,1.56-2.5,1.55-2.5,1.55-2.49,1.56-2.49,1.55-2.48,1.55-2.48,1.56-2.46,1.55-2.46,1.55-2.44,1.56-2.44,1.55-2.43,1.55-2.41,1.56-2.41,1.55-2.39,1.56-2.38,1.55-2.37,1.55-2.35,1.56-2.34,1.55-2.32,1.55-2.31,1.56-2.29,1.55-2.28,1.55-2.26,1.56-2.24,1.55-2.22,1.55-2.2,1.56-2.19,1.55-2.16,1.55-2.14,1.56-2.12,1.55-2.1,1.55-2.08,1.56-2.06,1.55-2,1.55-2,1.56-2,1.55-2,1.56-1.93L463,136.2l1.55-1.88,1.56-1.85,1.55-1.83,1.55-1.79,1.56-1.77,1.55-1.74,1.55-1.71L475.4,122,477,120.3l1.55-1.62,1.56-1.59,1.55-1.55,1.55-1.53,1.56-1.49,1.55-1.45,1.55-1.43,1.56-1.39,1.55-1.35,1.56-1.32,1.55-1.29,1.55-1.24,1.56-1.22,1.55-1.18,1.55-1.14,1.56-1.1,1.55-1.07,1.55-1,1.56-1,1.55-.95,1.55-.91,1.56-.88,1.55-.84,1.55-.79,1.56-.76,1.55-.72,1.55-.68,1.56-.64,1.55-.6,1.55-.55,1.56-.52,1.55-.48,1.56-.43,1.55-.4,1.55-.35,1.56-.31,1.55-.27L536,84l1.56-.19,1.55-.14,1.55-.11,1.56-.06,1.55,0,1.55,0,1.56.06,1.55.11,1.55.14,1.56.19,1.55.23,1.55.27,1.56.31,1.55.35,1.56.4,1.55.43,1.55.48L564,87l1.55.55,1.55.6,1.56.64,1.55.68,1.55.72,1.56.76,1.55.79,1.55.84,1.56.88,1.55.91,1.55.95,1.56,1,1.55,1,1.55,1.07,1.56,1.1,1.55,1.14,1.55,1.18,1.56,1.22,1.55,1.24,1.56,1.29,1.55,1.32,1.55,1.35,1.56,1.39,1.55,1.43,1.55,1.45,1.56,1.49,1.55,1.53,1.55,1.55,1.56,1.59,1.55,1.62L612.1,122l1.56,1.68,1.55,1.71,1.55,1.74,1.56,1.77,1.55,1.79,1.55,1.83,1.56,1.85,1.55,1.88,1.55,1.91,1.56,1.93,1.55,2,1.56,2,1.55,2,1.55,2,1.56,2.06,1.55,2.08,1.55,2.1,1.56,2.12,1.55,2.14,1.55,2.16,1.56,2.19,1.55,2.2,1.55,2.22,1.56,2.24,1.55,2.26,1.55,2.28,1.56,2.29,1.55,2.31,1.55,2.32,1.56,2.34,1.55,2.35,1.56,2.37,1.55,2.38,1.55,2.39,1.56,2.41,1.55,2.41,1.55,2.43,1.56,2.44,1.55,2.44,1.55,2.46,1.56,2.46,1.55,2.48,1.55,2.48,1.56,2.49,1.55,2.49,1.55,2.5,1.56,2.5,1.55,2.51,1.55,2.52,1.56,2.51,1.55,2.52,1.55,2.53,1.56,2.52,1.55,2.53,1.56,2.53,1.55,2.52,1.55,2.53,1.56,2.53,1.55,2.53,1.55,2.52,1.56,2.53,1.55,2.52,1.55,2.51,1.56,2.52,1.55,2.51,1.55,2.51,1.56,2.5,1.55,2.49,1.55,2.49,1.56,2.49,1.55,2.48,1.55,2.47,1.56,2.46,1.55,2.46,1.55,2.44,1.56,2.44,1.55,2.43,1.56,2.43,1.55,2.41,1.55,2.4,1.56,2.39,1.55,2.38,1.55,2.37,1.56,2.36,1.55,2.34,1.55,2.34,1.56,2.32,1.55,2.31,1.55,2.29,1.56,2.28,1.55,2.27L755,335l1.56,2.24,1.55,2.23,1.55,2.21,1.56,2.2,1.55,2.18,1.56,2.17,1.55,2.15,1.55,2.14,1.56,2.12,1.55,2.1,1.55,2.09,1.56,2.07,1.55,2.06,1.55,2,1.56,2,1.55,2,1.55,2,1.56,2,1.55,1.95,1.55,1.93,1.56,1.92,1.55,1.9,1.55,1.88,1.56,1.87,1.55,1.84,1.55,1.83,1.56,1.81,1.55,1.79,1.56,1.77,1.55,1.75,1.55,1.74,1.56,1.72,1.55,1.69,1.55,1.68,1.56,1.66,1.55,1.65L812.5,407l1.56,1.61,1.55,1.58,1.55,1.57,1.56,1.55,1.55,1.53,1.55,1.52,1.56,1.49,1.55,1.48,1.55,1.45,1.56,1.44,1.55,1.42,1.55,1.41,1.56,1.38,1.55,1.37,1.56,1.34,1.55,1.33,1.55,1.31,1.56,1.3,1.55,1.27,1.55,1.26,1.56,1.24,1.55,1.22,1.55,1.21,1.56,1.19,1.55,1.17,1.55,1.15,1.56,1.14L856,445l1.55,1.1,1.56,1.09,1.55,1.07,1.55,1.05,1.56,1,1.55,1,1.56,1,1.55,1,1.55,1,1.56.95,1.55.95,1.55.92,1.56.91,1.55.9,1.55.88,1.56.87,1.55.85,1.55.83,1.56.83,1.55.81,1.55.79,1.56.78,1.55.77,1.55.75,1.56.74,1.55.73,1.55.71,1.56.7,1.55.69,1.56.67,1.55.66,1.55.65,1.56.64,1.55.62,1.55.62,1.56.6,1.55.59,1.55.58,1.56.56,1.55.56,1.55.55,1.56.53,1.55.52,1.55.52,1.56.5,1.55.49,1.55.48,1.56.48,1.55.46,1.56.45,1.55.45,1.55.43,1.56.43,1.55.41,1.55.41,1.56.4,1.55.39,1.55.38,1.56.37,1.55.37,1.55.35,1.56.35,1.55.34,1.55.34,1.56.32,1.55.32,1.55.31,1.56.31,1.55.3,1.55.29,1.56.28,1.55.28,1.56.27,1.55.26,1.55.26,1.56.25,1.55.25,1.55.24,1.56.23,1.55.23,1.55.23,1.56.21,1.55.22,1.55.2,1.56.2,1.55.2,1.55.19,1.56.19,1.55.18,1.55.18,1.56.18,1.55.16,1.55.17,1.56.16,1.55.16,1.56.15,1.55.15,1.55.14,1.56.14,1.55.14,1.55.13,1.56.13,1.55.13,1.55.12,1.56.12,1.55.12,1.55.11,1.56.11,1.55.11,1.55.1,1.56.11,1.55.1,1.55.09,1.56.09,1.55.1,1.56.08,1.55.09,1.55.08,1.56.08,1.55.08,1.55.08,1.56.07,1.55.08,1.55.06,1.56.07,1.55.07,1.55.06,1.56.06,1.55.06,1.55.06,1.56.06,1.55.05,1.55.06,1.56.05,1.55.05,1.55.05,1.56,0,1.55,0,1.56.05,1.55,0,1.55,0,1.56,0,1.55,0,1.55,0,1.56,0,1.55,0,1.55,0,1.56,0,1.55,0" style="fill:none;stroke:#000;stroke-width:3px"/><rect x="662.61" y="503.54" width="33.69" height="33.69" rx="5.42" style="fill:#fff"/><path d="M669.62,515.41a13.18,13.18,0,0,1-1.5.49,11.87,11.87,0,0,1-1.74.39l-.22-1.06a10.16,10.16,0,0,0,2.25-.81,9.76,9.76,0,0,0,1.93-1.26h0l1.08.22v12.87l2.94.18v1h-7.78v-1l3-.18Z"/><path d="M677.45,515.41a14.26,14.26,0,0,1-1.51.49,11.78,11.78,0,0,1-1.73.39l-.22-1.06a10.11,10.11,0,0,0,4.18-2.07h0l1.08.22v12.87l3,.18v1h-7.78v-1l3-.18Z"/><path d="M683.73,525.53a9.25,9.25,0,0,1-1.35-5.15,8.61,8.61,0,0,1,.78-3.75,6.34,6.34,0,0,1,2.13-2.53,5.19,5.19,0,0,1,3-.9,4.66,4.66,0,0,1,4.21,1.92,9,9,0,0,1,1.27,5.1A9.24,9.24,0,0,1,693,524a6.41,6.41,0,0,1-2.07,2.64,4.9,4.9,0,0,1-3,1A4.66,4.66,0,0,1,683.73,525.53Zm7.12-.59a9.38,9.38,0,0,0,.9-4.52q0-6.18-3.64-6.18a3.11,3.11,0,0,0-2.86,1.55,8.51,8.51,0,0,0-.92,4.32,10.66,10.66,0,0,0,.89,4.6,2.94,2.94,0,0,0,2.8,1.85A3,3,0,0,0,690.85,524.94Z"/><rect x="525.96" y="503.54" width="36.74" height="33.69" rx="5.42" style="fill:#fff"/><path d="M531.78,515.41a14.26,14.26,0,0,1-1.51.49,12.07,12.07,0,0,1-1.73.39l-.22-1.06a10.27,10.27,0,0,0,2.24-.81,9.85,9.85,0,0,0,1.94-1.26h0l1.08.22v12.87l2.95.18v1h-7.79v-1l3-.18Z"/><path d="M538.05,525.53a9.25,9.25,0,0,1-1.35-5.15,8.61,8.61,0,0,1,.79-3.75,6.26,6.26,0,0,1,2.13-2.53,5.16,5.16,0,0,1,3-.9,4.68,4.68,0,0,1,4.22,1.92,9,9,0,0,1,1.27,5.1,9.24,9.24,0,0,1-.75,3.78,6.41,6.41,0,0,1-2.07,2.64,4.9,4.9,0,0,1-3,1A4.69,4.69,0,0,1,538.05,525.53Zm7.13-.59a9.38,9.38,0,0,0,.9-4.52q0-6.18-3.64-6.18a3.11,3.11,0,0,0-2.86,1.55,8.51,8.51,0,0,0-.92,4.32,10.66,10.66,0,0,0,.89,4.6,2.93,2.93,0,0,0,2.8,1.85A3,3,0,0,0,545.18,524.94Z"/><path d="M550.51,525.53a9.25,9.25,0,0,1-1.35-5.15,8.61,8.61,0,0,1,.79-3.75,6.26,6.26,0,0,1,2.13-2.53,5.16,5.16,0,0,1,2.95-.9,4.68,4.68,0,0,1,4.22,1.92,9,9,0,0,1,1.27,5.1,9.24,9.24,0,0,1-.75,3.78,6.41,6.41,0,0,1-2.07,2.64,4.9,4.9,0,0,1-3,1A4.69,4.69,0,0,1,550.51,525.53Zm7.13-.59a9.38,9.38,0,0,0,.9-4.52q0-6.18-3.64-6.18a3.11,3.11,0,0,0-2.86,1.55,8.51,8.51,0,0,0-.92,4.32,10.66,10.66,0,0,0,.89,4.6,2.93,2.93,0,0,0,2.8,1.85A3,3,0,0,0,557.64,524.94Z"/><rect x="796.78" y="503.54" width="36.74" height="33.69" rx="5.42" style="fill:#fff"/><path d="M802.59,515.41a13.51,13.51,0,0,1-1.51.49,11.78,11.78,0,0,1-1.73.39l-.22-1.06a10.16,10.16,0,0,0,2.25-.81,9.76,9.76,0,0,0,1.93-1.26h0l1.08.22v12.87l3,.18v1h-7.78v-1l3-.18Z"/><path d="M811.13,523.88a15.9,15.9,0,0,0,2.9-3.3,6,6,0,0,0,1.09-3.15,2.87,2.87,0,0,0-.79-2.11,3,3,0,0,0-2.25-.79,4.77,4.77,0,0,0-2.35.55,8.46,8.46,0,0,0-1.79,1.32l-.63-.86a8.13,8.13,0,0,1,2.23-1.65,6.41,6.41,0,0,1,3-.73,5.31,5.31,0,0,1,2.57.57,3.71,3.71,0,0,1,1.55,1.51,4.11,4.11,0,0,1,.51,2A7.32,7.32,0,0,1,815,522a22.33,22.33,0,0,1-5.39,4.33l7.26-.47.75-2,1,.2-.54,3.29h-10.6l-.27-.77A23.13,23.13,0,0,0,811.13,523.88Z"/><path d="M820.43,525.53a9.25,9.25,0,0,1-1.35-5.15,8.61,8.61,0,0,1,.78-3.75A6.34,6.34,0,0,1,822,514.1a5.19,5.19,0,0,1,3-.9,4.66,4.66,0,0,1,4.21,1.92,9,9,0,0,1,1.27,5.1,9.24,9.24,0,0,1-.75,3.78,6.41,6.41,0,0,1-2.07,2.64,4.9,4.9,0,0,1-3,1A4.66,4.66,0,0,1,820.43,525.53Zm7.13-.59a9.5,9.5,0,0,0,.89-4.52q0-6.18-3.64-6.18a3.08,3.08,0,0,0-2.85,1.55,8.4,8.4,0,0,0-.93,4.32,10.66,10.66,0,0,0,.89,4.6,2.94,2.94,0,0,0,2.8,1.85A3,3,0,0,0,827.56,524.94Z"/><rect x="931.93" y="502.8" width="38.35" height="35.17" rx="5.42" style="fill:#fff"/><path d="M938.86,515.19a15.73,15.73,0,0,1-1.57.52,14.68,14.68,0,0,1-1.81.4l-.23-1.11a10,10,0,0,0,2.34-.84,9.29,9.29,0,0,0,2-1.32h0l1.12.24V526.5l3.08.19v1h-8.12v-1l3.14-.19Z"/><path d="M944,531.27v-1.1a6.31,6.31,0,0,0,1.66.19,8.56,8.56,0,0,0,3.44-.63,5.11,5.11,0,0,0,2.21-1.68,3.82,3.82,0,0,0,.76-2.3,3.28,3.28,0,0,0-1-2.57,4.82,4.82,0,0,0-3.19-.95,6.22,6.22,0,0,1-1,.28l-.49.14-.35-1.12a8.71,8.71,0,0,0,1.83-.54,6.57,6.57,0,0,0,2.51-1.72,3.47,3.47,0,0,0,1-2.37,2.42,2.42,0,0,0-.84-2,3.39,3.39,0,0,0-2.14-.65,5.77,5.77,0,0,0-2.08.39,6.54,6.54,0,0,0-1.77,1l-.52-.85a6.84,6.84,0,0,1,2-1.27,7,7,0,0,1,2.84-.61,5.57,5.57,0,0,1,3.32.92,3.23,3.23,0,0,1,1.28,2.81,4,4,0,0,1-.63,2.12,6.87,6.87,0,0,1-1.64,1.77,7.46,7.46,0,0,1-2.12,1.16l.63,0a5.31,5.31,0,0,1,2.46.53,3.8,3.8,0,0,1,1.59,1.42,3.58,3.58,0,0,1,.55,1.94,5,5,0,0,1-1,3.1,6.74,6.74,0,0,1-2.91,2.13,11.44,11.44,0,0,1-4.34.76A8.56,8.56,0,0,1,944,531.27Z"/><path d="M956.59,525.75a9.63,9.63,0,0,1-1.41-5.37,8.85,8.85,0,0,1,.82-3.91,6.45,6.45,0,0,1,2.22-2.64,5.38,5.38,0,0,1,3.08-.94,4.91,4.91,0,0,1,4.41,2,10.91,10.91,0,0,1,.53,9.28,6.74,6.74,0,0,1-2.15,2.76,5.18,5.18,0,0,1-3.09,1A4.88,4.88,0,0,1,956.59,525.75Zm7.44-.61a9.86,9.86,0,0,0,.94-4.72q0-6.45-3.81-6.45a3.23,3.23,0,0,0-3,1.62,8.87,8.87,0,0,0-1,4.51,11,11,0,0,0,.93,4.8,3,3,0,0,0,2.92,1.93A3.15,3.15,0,0,0,964,525.14Z"/><rect x="389.73" y="503.54" width="36.74" height="33.69" rx="5.42" style="fill:#fff"/><path d="M403.91,512.72a5.24,5.24,0,0,1,1.88,2.34,8.54,8.54,0,0,1,.62,3.32,12,12,0,0,1-1.22,5.4,11.71,11.71,0,0,1-3.2,4,10,10,0,0,1-4.27,2l-.42-.86a9.8,9.8,0,0,0,4.46-2.94,10.66,10.66,0,0,0,2.31-4.66,4.78,4.78,0,0,1-1.59,1.25,4.72,4.72,0,0,1-2.19.53,4.94,4.94,0,0,1-3.81-1.48,5.48,5.48,0,0,1-1.39-3.94,6.31,6.31,0,0,1,.69-2.92,5.43,5.43,0,0,1,2-2.14,5.57,5.57,0,0,1,3-.81A5.37,5.37,0,0,1,403.91,512.72Zm-1.69,8.92a4.69,4.69,0,0,0,1.35-.83,3,3,0,0,0,.74-.95c0-.36.05-.62.05-.78a10.79,10.79,0,0,0-.79-4.49,2.91,2.91,0,0,0-2.92-1.72,3,3,0,0,0-2,.65,4,4,0,0,0-1.21,1.68,5.71,5.71,0,0,0-.41,2.12,5.48,5.48,0,0,0,.93,3.53,3,3,0,0,0,2.47,1.13A4.4,4.4,0,0,0,402.22,521.64Z"/><path d="M411,524.23a9.25,9.25,0,0,1-1.35-5.15,8.61,8.61,0,0,1,.79-3.75,6.12,6.12,0,0,1,2.13-2.53,5.16,5.16,0,0,1,2.95-.9,4.7,4.7,0,0,1,4.22,1.91,9.1,9.1,0,0,1,1.27,5.11,9.24,9.24,0,0,1-.75,3.78,6.49,6.49,0,0,1-2.07,2.64,4.92,4.92,0,0,1-3,1A4.69,4.69,0,0,1,411,524.23Zm7.13-.59a9.4,9.4,0,0,0,.9-4.52q0-6.18-3.64-6.18a3.09,3.09,0,0,0-2.86,1.55,8.51,8.51,0,0,0-.92,4.32,10.58,10.58,0,0,0,.89,4.59,2.93,2.93,0,0,0,2.8,1.86A3,3,0,0,0,418.1,523.64Z"/><rect x="253.75" y="503.5" width="36.74" height="33.69" rx="5.42" style="fill:#fff"/><path d="M260.48,522.06a6.68,6.68,0,0,1,2.65-2,7.6,7.6,0,0,1-2.1-1.76,4.11,4.11,0,0,1,0-4.62,4.39,4.39,0,0,1,1.83-1.43,6,6,0,0,1,2.38-.49,5.31,5.31,0,0,1,3.37,1,3.24,3.24,0,0,1,1.31,2.7,4.19,4.19,0,0,1-.8,2.44,7.16,7.16,0,0,1-2.26,2,11.75,11.75,0,0,1,2.78,2,3.43,3.43,0,0,1,1,2.47,3.8,3.8,0,0,1-.79,2.37,5.09,5.09,0,0,1-2.06,1.58,6.7,6.7,0,0,1-2.71.55,7.48,7.48,0,0,1-2.6-.45,4.57,4.57,0,0,1-2-1.42,3.72,3.72,0,0,1-.8-2.45A4.09,4.09,0,0,1,260.48,522.06Zm7.76,1.27a5,5,0,0,0-1.22-1.1c-.48-.31-1.15-.68-2-1.11l-1-.52a5.13,5.13,0,0,0-1.93,1.52,3.29,3.29,0,0,0-.74,2.08,3.59,3.59,0,0,0,1,2.71,4.22,4.22,0,0,0,4.5.61,3.38,3.38,0,0,0,1.31-1.11,2.65,2.65,0,0,0,.51-1.6A2.35,2.35,0,0,0,268.24,523.33Zm-5.83-6.26a5,5,0,0,0,1.26,1.11c.49.31,1.21.71,2.16,1.21a5.17,5.17,0,0,0,1.79-1.44,3.16,3.16,0,0,0,.66-1.94,3.35,3.35,0,0,0-.86-2.43,3.12,3.12,0,0,0-2.31-.87,3.47,3.47,0,0,0-2.28.77,2.54,2.54,0,0,0-.94,2.06A2.42,2.42,0,0,0,262.41,517.07Z"/><path d="M274.89,526.83a9.25,9.25,0,0,1-1.35-5.15,8.54,8.54,0,0,1,.79-3.74,6.2,6.2,0,0,1,2.13-2.53,5.17,5.17,0,0,1,3-.91,4.68,4.68,0,0,1,4.22,1.92,9,9,0,0,1,1.27,5.1,9.18,9.18,0,0,1-.75,3.78,6.28,6.28,0,0,1-2.07,2.64,4.9,4.9,0,0,1-3,1A4.69,4.69,0,0,1,274.89,526.83Zm7.13-.58a9.4,9.4,0,0,0,.9-4.52q0-6.19-3.64-6.19a3.11,3.11,0,0,0-2.86,1.55,8.56,8.56,0,0,0-.92,4.32,10.66,10.66,0,0,0,.89,4.6,2.93,2.93,0,0,0,2.8,1.86A3,3,0,0,0,282,526.25Z"/><rect x="118.28" y="503.54" width="36.74" height="33.69" rx="5.42" style="fill:#fff"/><path d="M126.77,529.31q1.08-2.4,2.07-4.82t2.85-7.09l1.55-3.91-7.1.07-.78,2.8-1.19-.2.45-4.11h9.92l.38.5q-.09.18-3.08,8.64t-3.09,8.66Z"/><path d="M138.89,524.22a9.21,9.21,0,0,1-1.35-5.14,8.57,8.57,0,0,1,.79-3.74,6.21,6.21,0,0,1,2.12-2.52,5.16,5.16,0,0,1,3-.9,4.69,4.69,0,0,1,4.21,1.91,10.4,10.4,0,0,1,.52,8.86,6.49,6.49,0,0,1-2.07,2.64,4.86,4.86,0,0,1-2.95.95A4.68,4.68,0,0,1,138.89,524.22Zm7.11-.59a9.33,9.33,0,0,0,.9-4.51q0-6.17-3.63-6.17a3.08,3.08,0,0,0-2.85,1.55,8.39,8.39,0,0,0-.92,4.31,10.58,10.58,0,0,0,.88,4.59,2.94,2.94,0,0,0,2.8,1.85A3,3,0,0,0,146,523.63Z"/><polygon points="0.02 64.92 26.14 49.84 26.14 80.01 0.02 64.92" style="fill:#e15a5a"/><polygon points="1087.46 64.92 1061.34 80.01 1061.34 49.84 1087.46 64.92" style="fill:#68a74e"/><rect x="0.02" width="135.85" height="20.13" style="fill:#e15a5a"/><rect x="135.87" width="136.47" height="20.13" style="fill:#f5cacb"/><rect x="272.34" width="135.69" height="20.13" style="fill:#fbe4cb"/><rect x="408.03" width="271.44" height="20.13" style="fill:#d8eecf"/><rect x="950.84" width="136.62" height="20.13" style="fill:#6aae46"/><rect x="679.47" width="135.69" height="20.13" style="fill:#bce4a7"/><rect x="815.16" width="135.69" height="20.13" style="fill:#a0d57f"/><path d="M42.26,70h1.27l5.52-15.6h2.47L57,70h1.27v1.15H52.46V70h2.16L53.1,65.72H46.53L45.06,70h2.16v1.15h-5Zm4.63-5.49h5.85l-2.8-8.26h-.17Z"/><path d="M63.26,69.34h-.1l-1.22,1.82H61.1V54.63l-1.8-.34v-.86l3.93-.75v8h.1A3.8,3.8,0,0,1,67,58.49c3.12,0,5.18,2.28,5.18,6.48S70.15,71.45,67,71.45A3.87,3.87,0,0,1,63.26,69.34ZM69.88,66V63.94c0-2.42-1.29-4-3.48-4-1.56,0-3.17.89-3.17,2.43v5.23c0,1.53,1.61,2.42,3.17,2.42C68.59,70,69.88,68.43,69.88,66Z"/><path d="M74.61,70h1.8V60.44l-1.8-.34v-.86l3.94-.75V70h1.8v1.15H74.61ZM76.1,54.68v-.15a1.37,1.37,0,0,1,2.74,0v.15a1.37,1.37,0,0,1-2.74,0Z"/><path d="M82,70h1.8V54.63L82,54.29v-.86L86,52.68V70h1.8v1.15H82Z"/><path d="M89.8,70h1.8V60.44l-1.8-.34v-.86l3.94-.75V70h1.8v1.15H89.8Zm1.49-15.33v-.15a1.37,1.37,0,0,1,2.74,0v.15a1.37,1.37,0,0,1-2.74,0Z"/><path d="M99,68.91V60H97.41V58.78h.2c1.39,0,1.58-.36,1.8-1.08l.6-2.14h1.15v3.22h3.24V60h-3.24v9.89h3.24v.84a7.35,7.35,0,0,1-3,.55C99.6,71.31,99,70.66,99,68.91Z"/><path d="M106.29,68.09c0-2.4,1.49-3.67,5.67-3.67h1.75V62.64c0-1.92-1-3-2.86-3a4.58,4.58,0,0,0-2,.39v0a1.4,1.4,0,0,1,.81,1.29,1.29,1.29,0,0,1-1.41,1.39,1.32,1.32,0,0,1-1.4-1.46c0-1.42,1.71-2.81,4.73-2.81,2.64,0,4.23,1.42,4.23,3.84v7.73h1.8V71a3,3,0,0,1-1.76.48,1.88,1.88,0,0,1-2.06-2v-.08h-.12c-.48,1.08-1.44,2.09-3.67,2.09S106.29,70.16,106.29,68.09Zm1.92-14.54.7-.34.5.94c.34.65.89,1,2.21,1s1.88-.36,2.21-1l.5-.94.7.34c-.48,1.41-1,3.26-3.41,3.26S108.69,55,108.21,53.55Zm5.5,14.18V65.45h-1.54c-2.76,0-3.6.79-3.6,2.31v.48c0,1.2.89,1.82,2.38,1.82S113.71,69.32,113.71,67.73Z"/><path d="M120.89,68.91V60h-1.61V58.78h.19c1.39,0,1.59-.36,1.8-1.08l.6-2.14H123v3.22h3.24V60H123v9.89h3.24v.84a7.3,7.3,0,0,1-3,.55C121.46,71.31,120.89,70.66,120.89,68.91Zm2.71,6.17c-.91,0-1.42-.53-1.42-1.25v-.12a1.29,1.29,0,0,1,1.42-1.25,1.27,1.27,0,0,1,1.32,1.32V74a4.8,4.8,0,0,1-1.61,3.22h-1A5.67,5.67,0,0,0,123.6,75.08Z"/><path d="M128.16,70H130V60.44l-1.8-.34v-.86l3.94-.75V70h1.8v1.15h-5.74Zm1.49-15.33v-.15a1.37,1.37,0,0,1,2.73,0v.15a1.37,1.37,0,0,1-2.73,0Z"/><path d="M141.39,70h1.8V60h-1.8V58.78h1.8V56.67a3.85,3.85,0,0,1,4-4c1.82,0,2.95.7,2.95,2a1.32,1.32,0,0,1-1.32,1.42,1.21,1.21,0,0,1-1.25-1.2,1.1,1.1,0,0,1,.67-1.13v0a2.94,2.94,0,0,0-.86-.1c-1.34,0-2.09,1-2.09,2.74v2.4h2.76V60h-2.76V70h2.28v1.15h-6.21Z"/><path d="M149.79,65c0-3.91,2.35-6.48,5.85-6.48s5.86,2.57,5.86,6.48-2.35,6.48-5.86,6.48S149.79,68.88,149.79,65Zm9.29,1.37V63.6c0-2.18-1-3.86-3.44-3.86s-3.43,1.68-3.43,3.86v2.74c0,2.18,1,3.87,3.43,3.87S159.08,68.52,159.08,66.34Z"/><path d="M164,68.09c0-2.4,1.49-3.67,5.66-3.67h1.76V62.64c0-1.92-1-3-2.86-3a4.66,4.66,0,0,0-2,.39v0a1.39,1.39,0,0,1,.82,1.29A1.29,1.29,0,0,1,166,62.76a1.32,1.32,0,0,1-1.39-1.46c0-1.42,1.7-2.81,4.73-2.81,2.64,0,4.22,1.42,4.22,3.84v7.73h1.8V71a3,3,0,0,1-1.75.48,1.87,1.87,0,0,1-2.06-2v-.08h-.12c-.48,1.08-1.44,2.09-3.68,2.09S164,70.16,164,68.09Zm7.42-.36V65.45H169.9c-2.76,0-3.6.79-3.6,2.31v.48c0,1.2.89,1.82,2.38,1.82S171.44,69.32,171.44,67.73Z"/><path d="M177.41,70h1.8V60.44l-1.8-.34v-.86l3.87-.75v2.14h.12a3.3,3.3,0,0,1,3.09-2.14c1.47,0,2.48.72,2.48,2.07a1.42,1.42,0,0,1-1.4,1.6,1.35,1.35,0,0,1-1.51-1.29c0-.7.34-1.13.72-1.18v0a4,4,0,0,0-.62,0,3.09,3.09,0,0,0-2.81,2.73V70h2.28v1.15h-6.22Z"/><path d="M190.09,68.91V60h-1.61V58.78h.19c1.39,0,1.58-.36,1.8-1.08l.6-2.14h1.15v3.22h3.24V60h-3.24v9.89h3.24v.84a7.3,7.3,0,0,1-3,.55C190.66,71.31,190.09,70.66,190.09,68.91Z"/><path d="M197.24,65c0-3.84,2.42-6.48,5.66-6.48s5.36,2.45,5.36,5.86v.57h-8.64v.6c0,2.64,1.48,4.3,3.74,4.3a3.9,3.9,0,0,0,3.79-2.18l.84.52a5.06,5.06,0,0,1-5,3.29C199.35,71.45,197.24,68.84,197.24,65Zm2.38-1.2H206v-.26c0-2.16-.91-3.82-3.1-3.82s-3.28,1.59-3.28,3.75Z"/><path d="M218,70h-.09v1.2h-1.56V67.42h1.56v.48c0,1.35.76,2.28,2.78,2.28,1.82,0,2.88-.55,2.88-2,0-1-.72-1.8-2-2.06l-1.48-.31c-2.43-.51-3.68-1.73-3.68-3.82s1.66-3.53,4.28-3.53c1.51,0,2.56.51,2.88,1.27h.09v-1h1.56v3.74h-1.56v-.93c0-1.23-.84-1.85-2.69-1.85-1.63,0-2.59.6-2.59,1.87a2.22,2.22,0,0,0,2,2.11l1.39.29c2.52.53,3.8,1.68,3.8,3.79s-1.68,3.65-4.49,3.65A3.51,3.51,0,0,1,218,70Z"/><path d="M228,65c0-3.93,2.45-6.48,6-6.48,2.69,0,4.39,1.27,4.39,3a1.55,1.55,0,0,1-1.61,1.72,1.47,1.47,0,0,1-1.56-1.56,1.66,1.66,0,0,1,1.08-1.56v-.07a4.37,4.37,0,0,0-2.06-.38,3.84,3.84,0,0,0-3.84,4v1.83c0,2.57,1.44,4.27,3.74,4.27a3.76,3.76,0,0,0,3.7-2.18l.84.52a4.92,4.92,0,0,1-4.87,3.29C230.08,71.45,228,68.84,228,65Z"/><path d="M240.71,68.09c0-2.4,1.49-3.67,5.66-3.67h1.76V62.64c0-1.92-1-3-2.86-3a4.66,4.66,0,0,0-2,.39v0a1.41,1.41,0,0,1,.82,1.29,1.3,1.3,0,0,1-1.42,1.39,1.31,1.31,0,0,1-1.39-1.46c0-1.42,1.7-2.81,4.73-2.81,2.64,0,4.22,1.42,4.22,3.84v7.73h1.8V71a3,3,0,0,1-1.75.48,1.87,1.87,0,0,1-2.06-2v-.08h-.12c-.48,1.08-1.44,2.09-3.68,2.09S240.71,70.16,240.71,68.09Zm1.92-14.54.7-.34.5.94c.33.65.89,1,2.21,1s1.87-.36,2.21-1l.5-.94.7.34c-.48,1.41-1,3.26-3.41,3.26S243.11,55,242.63,53.55Zm5.5,14.18V65.45h-1.54c-2.76,0-3.6.79-3.6,2.31v.48c0,1.2.89,1.82,2.38,1.82S248.13,69.32,248.13,67.73Z"/><path d="M254.1,70.3,261.25,60h-5.4v2.54h-1.56V58.78H264v.86L256.86,70h5.79V67.42h1.56v3.74H254.1Z"/><path d="M267.93,66.77V60.44l-1.8-.34v-.86l3.93-.75V66.6c0,2.28.92,3.41,2.91,3.41,1.39,0,2.9-.76,2.9-2.37v-7.2l-1.8-.34v-.86l3.94-.75v11l1.8.33v.87l-3.87.74V69.29h-.09a3.84,3.84,0,0,1-3.65,2.16C269.13,71.45,267.93,69.89,267.93,66.77Z"/><path d="M283.29,68.91V60h-1.61V58.78h.19c1.4,0,1.59-.36,1.8-1.08l.6-2.14h1.16v3.22h3.24V60h-3.24v9.89h3.24v.84a7.39,7.39,0,0,1-3,.55C283.87,71.31,283.29,70.66,283.29,68.91Z"/><path d="M290.44,65c0-3.84,2.43-6.48,5.67-6.48s5.35,2.45,5.35,5.86v.57h-8.64v.6c0,2.64,1.49,4.3,3.74,4.3a3.91,3.91,0,0,0,3.8-2.18l.84.52a5.07,5.07,0,0,1-5,3.29C292.55,71.45,290.44,68.84,290.44,65Zm2.38-1.2h6.38v-.26c0-2.16-.91-3.82-3.09-3.82s-3.29,1.59-3.29,3.75Z"/><path d="M787.14,70h1.27l5.52-15.6h2.47L801.92,70h1.27v1.15h-5.85V70h2.16L798,65.72h-6.58L790,70h2.16v1.15h-5Zm4.63-5.49h5.86l-2.81-8.26h-.17Z"/><path d="M808.14,69.34H808l-1.22,1.82H806V54.63l-1.8-.34v-.86l3.94-.75v8h.09a3.8,3.8,0,0,1,3.7-2.14c3.12,0,5.18,2.28,5.18,6.48s-2.06,6.48-5.18,6.48A3.87,3.87,0,0,1,808.14,69.34ZM814.76,66V63.94c0-2.42-1.29-4-3.48-4-1.56,0-3.16.89-3.16,2.43v5.23c0,1.53,1.6,2.42,3.16,2.42C813.47,70,814.76,68.43,814.76,66Z"/><path d="M819.49,70h1.8V60.44l-1.8-.34v-.86l3.94-.75V70h1.8v1.15h-5.74ZM821,54.68v-.15a1.37,1.37,0,0,1,2.74,0v.15a1.37,1.37,0,0,1-2.74,0Z"/><path d="M826.91,70h1.8V54.63l-1.8-.34v-.86l3.94-.75V70h1.8v1.15h-5.74Z"/><path d="M834.69,70h1.8V60.44l-1.8-.34v-.86l3.93-.75V70h1.8v1.15h-5.73Zm1.48-15.33v-.15a1.37,1.37,0,0,1,2.74,0v.15a1.37,1.37,0,0,1-2.74,0Z"/><path d="M843.9,68.91V60h-1.6V58.78h.19c1.39,0,1.58-.36,1.8-1.08l.6-2.14H846v3.22h3.24V60H846v9.89h3.24v.84a7.31,7.31,0,0,1-3,.55C844.48,71.31,843.9,70.66,843.9,68.91Z"/><path d="M851.18,68.09c0-2.4,1.48-3.67,5.66-3.67h1.75V62.64c0-1.92-1-3-2.85-3a4.59,4.59,0,0,0-2,.39v0a1.4,1.4,0,0,1,.81,1.29,1.29,1.29,0,0,1-1.41,1.39,1.31,1.31,0,0,1-1.39-1.46c0-1.42,1.7-2.81,4.72-2.81,2.64,0,4.23,1.42,4.23,3.84v7.73h1.8V71a3,3,0,0,1-1.75.48,1.88,1.88,0,0,1-2.07-2v-.08h-.12c-.48,1.08-1.44,2.09-3.67,2.09S851.18,70.16,851.18,68.09Zm1.92-14.54.69-.34.51.94c.33.65.88,1,2.2,1s1.88-.36,2.21-1l.51-.94.69.34c-.48,1.41-1,3.26-3.41,3.26S853.58,55,853.1,53.55Zm5.49,14.18V65.45h-1.53c-2.76,0-3.6.79-3.6,2.31v.48c0,1.2.88,1.82,2.37,1.82S858.59,69.32,858.59,67.73Z"/><path d="M865.77,68.91V60h-1.61V58.78h.19c1.4,0,1.59-.36,1.8-1.08l.6-2.14h1.16v3.22h3.24V60h-3.24v9.89h3.24v.84a7.39,7.39,0,0,1-3,.55C866.35,71.31,865.77,70.66,865.77,68.91Zm2.71,6.17c-.91,0-1.41-.53-1.41-1.25v-.12a1.37,1.37,0,0,1,2.73.07V74a4.8,4.8,0,0,1-1.61,3.22h-1A5.42,5.42,0,0,0,868.48,75.08Z"/><path d="M873,70h1.8V60.44L873,60.1v-.86l3.94-.75V70h1.8v1.15H873Zm1.49-15.33v-.15a1.37,1.37,0,0,1,2.74,0v.15a1.37,1.37,0,0,1-2.74,0Z"/><path d="M886.27,70h1.8V60h-1.8V58.78h1.8V56.67a3.85,3.85,0,0,1,4-4c1.82,0,2.95.7,2.95,2a1.32,1.32,0,0,1-1.32,1.42,1.21,1.21,0,0,1-1.25-1.2,1.09,1.09,0,0,1,.68-1.13v0a3.06,3.06,0,0,0-.87-.1c-1.34,0-2.09,1-2.09,2.74v2.4H893V60H890.2V70h2.28v1.15h-6.21Z"/><path d="M894.67,65c0-3.91,2.35-6.48,5.85-6.48s5.86,2.57,5.86,6.48-2.35,6.48-5.86,6.48S894.67,68.88,894.67,65ZM904,66.34V63.6c0-2.18-1-3.86-3.44-3.86s-3.43,1.68-3.43,3.86v2.74c0,2.18,1,3.87,3.43,3.87S904,68.52,904,66.34Z"/><path d="M908.9,68.09c0-2.4,1.49-3.67,5.67-3.67h1.75V62.64c0-1.92-1-3-2.86-3a4.66,4.66,0,0,0-2,.39v0a1.39,1.39,0,0,1,.82,1.29,1.29,1.29,0,0,1-1.42,1.39,1.32,1.32,0,0,1-1.39-1.46c0-1.42,1.71-2.81,4.73-2.81,2.64,0,4.22,1.42,4.22,3.84v7.73h1.81V71a3.05,3.05,0,0,1-1.76.48,1.87,1.87,0,0,1-2.06-2v-.08h-.12c-.48,1.08-1.44,2.09-3.67,2.09S908.9,70.16,908.9,68.09Zm7.42-.36V65.45h-1.54c-2.76,0-3.6.79-3.6,2.31v.48c0,1.2.89,1.82,2.38,1.82S916.32,69.32,916.32,67.73Z"/><path d="M922.3,70h1.8V60.44l-1.8-.34v-.86l3.86-.75v2.14h.12a3.3,3.3,0,0,1,3.1-2.14c1.46,0,2.47.72,2.47,2.07a1.41,1.41,0,0,1-1.39,1.6,1.35,1.35,0,0,1-1.52-1.29c0-.7.34-1.13.72-1.18v0a4,4,0,0,0-.62,0,3.1,3.1,0,0,0-2.81,2.73V70h2.28v1.15H922.3Z"/><path d="M935,68.91V60h-1.61V58.78h.19c1.39,0,1.59-.36,1.8-1.08l.6-2.14h1.15v3.22h3.25V60H937.1v9.89h3.25v.84a7.39,7.39,0,0,1-3,.55C935.54,71.31,935,70.66,935,68.91Z"/><path d="M942.12,65c0-3.84,2.43-6.48,5.67-6.48s5.35,2.45,5.35,5.86v.57H944.5v.6c0,2.64,1.49,4.3,3.74,4.3A3.9,3.9,0,0,0,952,67.64l.84.52a5.05,5.05,0,0,1-5,3.29C944.23,71.45,942.12,68.84,942.12,65Zm2.38-1.2h6.38v-.26c0-2.16-.91-3.82-3.09-3.82s-3.29,1.59-3.29,3.75Z"/><path d="M961,70h1.8V60.44L961,60.1v-.86l3.86-.75v2.14H965a3.32,3.32,0,0,1,3.1-2.14c1.46,0,2.47.72,2.47,2.07a1.41,1.41,0,0,1-1.39,1.6,1.35,1.35,0,0,1-1.51-1.29c0-.7.33-1.13.72-1.18v0a4.26,4.26,0,0,0-.63,0,3.1,3.1,0,0,0-2.81,2.73V70h2.28v1.15H961Z"/><path d="M972,70h1.8V60.44L972,60.1v-.86l3.94-.75V70h1.8v1.15H972Zm1.49-15.33v-.15a1.37,1.37,0,0,1,2.73,0v.15a1.37,1.37,0,0,1-2.73,0Z"/><path d="M979.76,65c0-4.2,2.06-6.48,5.18-6.48a3.8,3.8,0,0,1,3.7,2.14h.09v-6l-1.8-.34v-.86l3.94-.75V69.51l1.8.33v.87l-3.94.74V69.34h-.09a3.77,3.77,0,0,1-3.7,2.11C981.82,71.45,979.76,69.17,979.76,65Zm9,2.62V62.36c0-1.54-1.6-2.43-3.16-2.43-2.19,0-3.48,1.59-3.48,4V66c0,2.43,1.29,4,3.48,4C987.13,70,988.73,69.12,988.73,67.59Z"/><path d="M994.71,70h1.8V60.44l-1.8-.34v-.86l3.94-.75V70h1.8v1.15h-5.74Zm1.49-15.33v-.15a1.37,1.37,0,0,1,2.73,0v.15a1.37,1.37,0,0,1-2.73,0Z"/><path d="M1002.37,65c0-3.93,2.45-6.48,6-6.48,2.69,0,4.4,1.27,4.4,3a1.56,1.56,0,0,1-1.61,1.72,1.47,1.47,0,0,1-1.56-1.56,1.66,1.66,0,0,1,1.08-1.56v-.07a4.42,4.42,0,0,0-2.07-.38,3.84,3.84,0,0,0-3.84,4v1.83c0,2.57,1.44,4.27,3.75,4.27a3.75,3.75,0,0,0,3.69-2.18l.84.52a4.92,4.92,0,0,1-4.87,3.29C1004.48,71.45,1002.37,68.84,1002.37,65Z"/><path d="M1015.11,68.09c0-2.4,1.49-3.67,5.67-3.67h1.75V62.64c0-1.92-1-3-2.86-3a4.58,4.58,0,0,0-2,.39v0a1.4,1.4,0,0,1,.81,1.29,1.29,1.29,0,0,1-1.41,1.39,1.32,1.32,0,0,1-1.4-1.46c0-1.42,1.71-2.81,4.73-2.81,2.64,0,4.23,1.42,4.23,3.84v7.73h1.8V71a3,3,0,0,1-1.76.48,1.87,1.87,0,0,1-2.06-2v-.08h-.12c-.48,1.08-1.44,2.09-3.67,2.09S1015.11,70.16,1015.11,68.09Zm7.42-.36V65.45H1021c-2.76,0-3.6.79-3.6,2.31v.48c0,1.2.89,1.82,2.38,1.82S1022.53,69.32,1022.53,67.73Z"/><path d="M1029.71,68.91V60h-1.61V58.78h.19c1.39,0,1.58-.36,1.8-1.08l.6-2.14h1.15v3.22h3.24V60h-3.24v9.89h3.24v.84a7.3,7.3,0,0,1-3,.55C1030.28,71.31,1029.71,70.66,1029.71,68.91Z"/><path d="M1036.86,65c0-3.84,2.42-6.48,5.66-6.48s5.36,2.45,5.36,5.86v.57h-8.64v.6c0,2.64,1.48,4.3,3.74,4.3a3.9,3.9,0,0,0,3.79-2.18l.84.52a5.06,5.06,0,0,1-5,3.29C1039,71.45,1036.86,68.84,1036.86,65Zm2.38-1.2h6.38v-.26c0-2.16-.91-3.82-3.1-3.82s-3.28,1.59-3.28,3.75Z"/></g></g></svg>