<svg xmlns="http://www.w3.org/2000/svg" viewBox="0 0 275.22 275.22"><title>Asset 3</title><g id="Layer_2" data-name="Layer 2"><g id="Layer_1-2" data-name="Layer 1"><path d="M137.61,137.61,10.87,85.11Q32.62,32.63,85.11,10.87Z" style="fill:#438915"/><path d="M137.61,137.61,10.87,190.11q-21.73-52.5,0-105Z" style="fill:#6aae46"/><path d="M137.61,137.61,85.11,264.35Q32.63,242.6,10.87,190.11Z" style="fill:#a0d57f"/><path d="M137.61,137.61l52.5,126.74q-52.5,21.73-105,0Z" style="fill:#bce4a7"/><path d="M137.61,137.61l126.74,52.5q-21.75,52.48-74.24,74.24Z" style="fill:#d8eecf"/><path d="M137.61,137.61l126.74-52.5q21.73,52.5,0,105Z" style="fill:#fbe4cb"/><path d="M137.61,137.61l52.5-126.74q52.48,21.75,74.24,74.24Z" style="fill:#f5cacb"/><path d="M137.61,137.61,85.11,10.87q52.5-21.73,105,0Z" style="fill:#e15a5a"/></g></g></svg>